# Blender v2.80 (sub 75) OBJ File: 'dungeon.blend'
# www.blender.org
o Cylinder.001_Cylinder.002
v 0.000000 -0.002520 0.131491
v -0.000000 -0.002500 -0.108835
v 0.002183 -0.001260 0.131491
v 0.002165 -0.001250 -0.108835
v 0.002183 0.001260 0.131491
v 0.002165 0.001250 -0.108835
v 0.000000 0.002520 0.131491
v -0.000000 0.002500 -0.108835
v -0.002182 0.001260 0.131491
v -0.002165 0.001250 -0.108835
v -0.002182 -0.001260 0.131491
v -0.002165 -0.001250 -0.108835
v 0.000000 -0.001778 0.139433
v 0.001540 -0.000889 0.139433
v 0.001540 0.000889 0.139433
v 0.000000 0.001778 0.139433
v -0.001540 0.000889 0.139433
v -0.001540 -0.000889 0.139433
v 0.000000 -0.003813 0.142307
v 0.003302 -0.001906 0.142307
v 0.003302 0.001906 0.142307
v 0.000000 0.003813 0.142307
v -0.003302 0.001906 0.142307
v -0.003302 -0.001906 0.142307
v 0.000000 -0.000000 0.153865
v 0.000000 -0.002500 0.088488
v 0.002165 -0.001250 0.088488
v 0.002165 0.001250 0.088488
v 0.000000 0.002500 0.088488
v -0.002165 0.001250 0.088488
v -0.002165 -0.001250 0.088488
v 0.002165 -0.001250 -0.138119
v -0.000000 -0.002500 -0.138119
v 0.002165 0.001250 -0.138119
v -0.000000 0.002500 -0.138119
v -0.002165 0.001250 -0.138119
v -0.002165 -0.001250 -0.138119
v 0.003988 -0.006908 -0.130944
v 0.003988 0.006908 -0.130944
v -0.007977 0.000000 -0.130944
v 0.003988 -0.006908 -0.137605
v 0.003988 0.006908 -0.137605
v -0.007977 0.000000 -0.137605
v 0.002165 -0.001250 -0.146135
v -0.000000 -0.002500 -0.146135
v 0.002165 0.001250 -0.146135
v -0.000000 0.002500 -0.146135
v -0.002165 0.001250 -0.146135
v -0.002165 -0.001250 -0.146135
vt 0.040745 0.960633
vt 0.040745 0.963421
vt 0.039808 0.963421
vt 0.039808 0.960633
vt 0.038872 0.963421
vt 0.038872 0.960633
vt 0.037935 0.963421
vt 0.037935 0.960633
vt 0.036999 0.963421
vt 0.036999 0.960633
vt 0.006541 0.879156
vt 0.006541 0.885571
vt 0.005445 0.880728
vt 0.005445 0.879268
vt 0.036062 0.963421
vt 0.036062 0.960633
vt 0.035125 0.963421
vt 0.035125 0.960633
vt 0.041514 0.942369
vt 0.042295 0.942421
vt 0.042049 0.944408
vt 0.041498 0.944371
vt 0.042295 0.945474
vt 0.041113 0.945396
vt 0.039777 0.942369
vt 0.040558 0.942421
vt 0.040311 0.944408
vt 0.039760 0.944371
vt 0.036706 0.942463
vt 0.037079 0.942631
vt 0.036558 0.945013
vt 0.036294 0.944895
vt 0.037670 0.942369
vt 0.038447 0.942463
vt 0.038035 0.944895
vt 0.037487 0.944828
vt 0.035929 0.942369
vt 0.035746 0.944828
vt 0.038821 0.942631
vt 0.038299 0.945013
vt 0.036514 0.945708
vt 0.037079 0.945961
vt 0.035478 0.949326
vt 0.040558 0.945474
vt 0.039376 0.945396
vt 0.038255 0.945708
vt 0.037079 0.945565
vt 0.041239 0.944104
vt 0.040558 0.944822
vt 0.035338 0.945565
vt 0.039501 0.944104
vt 0.038821 0.944822
vt 0.038821 0.945961
vt 0.037219 0.949326
vt 0.041538 0.947954
vt 0.039801 0.947954
vt 0.036062 0.960611
vt 0.035125 0.960611
vt 0.036999 0.960611
vt 0.037935 0.960611
vt 0.038872 0.960611
vt 0.039808 0.960611
vt 0.040745 0.960611
vt 0.035125 0.963421
vt 0.036062 0.963421
vt 0.036062 0.963421
vt 0.035125 0.963421
vt 0.009415 0.885571
vt 0.009415 0.879156
vt 0.010305 0.879268
vt 0.010305 0.880728
vt 0.037935 0.963421
vt 0.036999 0.963421
vt 0.039808 0.963421
vt 0.038872 0.963421
vt 0.009415 0.885571
vt 0.009074 0.885571
vt 0.008526 0.880728
vt 0.250000 0.490000
vt 0.457846 0.370000
vt 0.250000 0.490000
vt 0.004350 0.885571
vt 0.004350 0.879156
vt 0.005445 0.883999
vt 0.005445 0.885459
vt 0.042154 0.130000
vt 0.042154 0.370000
vt 0.042154 0.130000
vt 0.007636 0.879156
vt 0.007636 0.885571
vt 0.006541 0.885459
vt 0.006541 0.883999
vt 0.007636 0.885571
vt 0.007636 0.879156
vt 0.008526 0.879268
vt 0.010305 0.879186
vt 0.010765 0.879156
vt 0.010765 0.884171
vt 0.457846 0.130000
vt 0.250000 0.010000
vt 0.457846 0.130000
vt 0.009415 0.879156
vt 0.009757 0.885571
vt 0.037698 0.959880
vt 0.036530 0.960555
vt 0.035362 0.959880
vt 0.035362 0.958532
vt 0.036530 0.957857
vt 0.037698 0.958532
vt 0.037935 0.963421
vt 0.036999 0.963421
vt 0.039808 0.963421
vt 0.038872 0.963421
vt 0.035362 0.959880
vt 0.035362 0.958532
vt 0.036530 0.957857
vt 0.037698 0.958532
vt 0.037698 0.959880
vt 0.036530 0.960555
vn -0.0000 -1.0000 -0.0002
vn -0.1890 -0.9820 0.0000
vn 0.9449 -0.3273 -0.0000
vn 0.8660 -0.5000 -0.0002
vn 0.9449 0.3273 -0.0000
vn 0.8660 0.5000 -0.0002
vn -0.1890 0.9820 0.0000
vn -0.0000 1.0000 -0.0002
vn -0.7559 0.6547 0.0000
vn -0.8660 0.5000 -0.0002
vn -0.2125 -0.7144 -0.6667
vn -0.9567 -0.1615 0.2424
vn -0.9998 0.0000 0.0211
vn -0.8677 0.0000 -0.4971
vn -0.7559 -0.6547 0.0000
vn -0.8660 -0.5000 -0.0002
vn 0.8623 -0.4978 0.0931
vn 0.8623 0.4978 0.0931
vn 0.8525 0.0000 -0.5227
vn -0.8623 0.4978 0.0931
vn -0.8623 -0.4978 0.0931
vn -0.0000 -0.9957 0.0931
vn -0.0000 0.9957 0.0931
vn 0.4808 -0.8327 0.2747
vn -0.8525 0.0000 -0.5227
vn 0.4262 0.7383 -0.5227
vn 0.4263 -0.7383 -0.5227
vn -0.4263 -0.7383 -0.5227
vn -0.4263 0.7383 -0.5227
vn -0.4808 -0.8327 0.2747
vn -0.4808 0.8327 0.2747
vn 0.9615 0.0000 0.2747
vn -0.9615 0.0000 0.2747
vn 0.4808 0.8327 0.2747
vn -0.8660 -0.5000 -0.0005
vn -0.0000 -1.0000 -0.0005
vn -0.8660 0.5000 -0.0005
vn -0.0000 1.0000 -0.0005
vn 0.8660 0.5000 -0.0005
vn 0.8660 -0.5000 -0.0005
vn -0.6862 -0.3962 -0.6100
vn 0.0000 -0.7924 -0.6100
vn 0.3385 -0.9092 0.2424
vn -0.5124 -0.5413 -0.6667
vn 0.4338 -0.7514 -0.4971
vn 0.4999 -0.8658 0.0211
vn 0.3385 0.9092 0.2424
vn 0.6182 0.7478 0.2424
vn 0.4999 0.8658 0.0211
vn 0.7250 0.1731 -0.6667
vn 0.6182 -0.7478 0.2424
vn -0.2125 0.7144 -0.6667
vn -0.9567 0.1615 0.2424
vn 0.7250 -0.1731 -0.6667
vn 0.4338 0.7514 -0.4971
vn -0.5124 0.5413 -0.6667
vn 0.6862 -0.3962 -0.6100
vn -0.6862 0.3962 -0.6100
vn 0.0000 0.7924 -0.6100
vn 0.6862 0.3962 -0.6100
s 1
f 26/1/1 2/2/2 4/3/3 27/4/4
f 27/4/4 4/3/3 6/5/5 28/6/6
f 28/6/6 6/5/5 8/7/7 29/8/8
f 29/8/8 8/7/7 10/9/9 30/10/10
f 37/11/11 12/12/12 40/13/13 43/14/14
f 30/10/10 10/9/9 12/15/15 31/16/16
f 31/16/16 12/15/15 2/17/2 26/18/1
f 3/19/17 5/20/18 15/21/18 14/22/17
f 14/22/19 15/21/19 21/23/19 20/24/19
f 9/25/20 11/26/21 18/27/21 17/28/20
f 1/29/22 3/30/17 14/31/17 13/32/22
f 5/33/18 7/34/23 16/35/23 15/36/18
f 11/37/21 1/29/22 13/32/22 18/38/21
f 7/34/23 9/39/20 17/40/20 16/35/23
f 19/41/24 20/42/24 25/43/24
f 17/28/25 18/27/25 24/44/25 23/45/25
f 15/36/26 16/35/26 22/46/26 21/47/26
f 13/48/27 14/22/27 20/24/27 19/49/27
f 18/38/28 13/32/28 19/41/28 24/50/28
f 16/51/29 17/28/29 23/45/29 22/52/29
f 24/50/30 19/41/30 25/43/30
f 22/46/31 23/53/31 25/54/31
f 20/24/32 21/23/32 25/55/32
f 23/45/33 24/44/33 25/56/33
f 21/47/34 22/46/34 25/54/34
f 11/57/35 31/16/16 26/18/1 1/58/36
f 9/59/37 30/10/10 31/16/16 11/57/35
f 7/60/38 29/8/8 30/10/10 9/59/37
f 5/61/39 28/6/6 29/8/8 7/60/38
f 3/62/40 27/4/4 28/6/6 5/61/39
f 1/63/36 26/1/1 27/4/4 3/62/40
f 33/64/2 37/65/15 49/66/41 45/67/42
f 2/68/43 33/69/44 41/70/45 38/71/46
f 2/17/2 12/15/15 37/65/15 33/64/2
f 10/9/9 8/7/7 35/72/7 36/73/9
f 6/5/5 4/3/3 32/74/3 34/75/5
f 8/76/47 6/77/48 39/78/49
f 33/79/44 32/80/50 41/81/45
f 32/82/50 4/83/51 38/84/46 41/85/45
f 36/86/52 37/87/11 43/88/14
f 10/89/53 36/90/52 43/91/14 40/92/13
f 6/93/48 34/94/54 42/95/55 39/78/49
f 12/96/12 10/97/53 40/98/13
f 34/99/54 35/100/56 42/101/55
f 35/102/56 8/76/47 39/78/49 42/95/55
f 4/103/51 2/68/43 38/71/46
f 44/104/57 45/105/42 49/106/41 48/107/58 47/108/59 46/109/60
f 36/73/9 35/72/7 47/110/59 48/111/58
f 34/75/5 32/74/3 44/112/57 46/113/60
f 37/114/15 36/115/9 48/107/58 49/106/41
f 35/116/7 34/117/5 46/109/60 47/108/59
f 32/118/3 33/119/2 45/105/42 44/104/57
