# Blender v2.80 (sub 75) OBJ File: 'dungeon.blend'
# www.blender.org
o Book_Cube.018
v -0.013290 -0.054239 0.028497
v -0.013290 0.054239 0.028497
v -0.013290 -0.054239 -0.034472
v -0.005637 -0.054239 -0.027021
v -0.005637 0.054239 -0.027021
v -0.013290 0.054239 -0.034472
v 0.013290 -0.054239 0.028497
v 0.013290 0.054239 0.028497
v 0.005637 -0.054239 -0.027021
v 0.013290 -0.054239 -0.034472
v 0.013290 0.054239 -0.034472
v 0.005637 0.054239 -0.027021
v -0.002271 -0.054239 0.035732
v -0.008016 -0.054239 0.033482
v -0.008016 0.054239 0.033482
v -0.002271 0.054239 0.035732
v 0.008016 -0.054239 0.033482
v 0.002271 -0.054239 0.035732
v 0.002271 0.054239 0.035732
v 0.008016 0.054239 0.033482
v -0.014916 0.055936 0.029170
v -0.014916 -0.055936 0.029170
v -0.014916 -0.055936 -0.037291
v -0.014916 0.055936 -0.037291
v 0.014916 0.055936 -0.037291
v 0.014916 -0.055936 -0.037291
v 0.014916 -0.055936 0.029170
v 0.014916 0.055936 0.029170
v -0.008997 -0.055936 0.034766
v -0.002549 -0.055936 0.037291
v -0.002549 0.055936 0.037291
v -0.008997 0.055936 0.034766
v 0.008997 0.055936 0.034766
v 0.002549 0.055936 0.037291
v 0.002549 -0.055936 0.037291
v 0.008997 -0.055936 0.034766
v -0.013290 -0.032023 -0.034472
v -0.013290 0.032023 -0.034472
v 0.013290 0.032023 -0.034472
v 0.013290 -0.032023 -0.034472
v -0.014916 0.033025 0.029170
v -0.014916 -0.033025 0.029170
v -0.014916 -0.033025 -0.037291
v -0.014916 0.033025 -0.037291
v 0.014916 0.033025 -0.037291
v 0.014916 -0.033025 -0.037291
v 0.014916 -0.033025 0.029170
v 0.014916 0.033025 0.029170
v -0.002549 -0.033025 0.037291
v -0.002549 0.033025 0.037291
v -0.008997 0.033025 0.034766
v -0.008997 -0.033025 0.034766
v 0.002549 0.033025 0.037291
v 0.002549 -0.033025 0.037291
v 0.008997 -0.033025 0.034766
v 0.008997 0.033025 0.034766
v -0.013290 0.036159 -0.034472
v -0.014916 0.037291 -0.037291
v 0.014916 0.037291 0.029170
v -0.002549 0.037291 0.037291
v 0.008997 0.037291 0.034766
v 0.013290 0.036159 -0.034472
v -0.014916 0.037291 0.029170
v 0.014916 0.037291 -0.037291
v -0.008997 0.037291 0.034766
v 0.002549 0.037291 0.037291
v 0.013290 -0.036159 -0.034472
v -0.014916 -0.037291 0.029170
v 0.014916 -0.037291 -0.037291
v -0.008997 -0.037291 0.034766
v 0.002549 -0.037291 0.037291
v -0.013290 -0.036159 -0.034472
v -0.014916 -0.037291 -0.037291
v 0.014916 -0.037291 0.029170
v -0.002549 -0.037291 0.037291
v 0.008997 -0.037291 0.034766
vt 0.007801 0.883875
vt 0.007083 0.883482
vt 0.006026 0.883482
vt 0.005308 0.883875
vt 0.005308 0.879300
vt 0.005802 0.878938
vt 0.006341 0.878775
vt 0.006767 0.878775
vt 0.007306 0.878938
vt 0.007801 0.879300
vt 0.119604 0.926804
vt 0.119777 0.927041
vt 0.119702 0.927114
vt 0.119508 0.926848
vt 0.116678 0.928851
vt 0.116678 0.931755
vt 0.116601 0.931903
vt 0.116601 0.928838
vt 0.115705 0.931755
vt 0.116524 0.931755
vt 0.116601 0.931903
vt 0.115756 0.931903
vt 0.119420 0.928384
vt 0.119594 0.928146
vt 0.119690 0.928191
vt 0.119495 0.928457
vt 0.004461 0.878775
vt 0.004461 0.886401
vt 0.003564 0.886401
vt 0.003564 0.885130
vt 0.003564 0.884839
vt 0.003564 0.880336
vt 0.003564 0.880046
vt 0.003564 0.878775
vt 0.119526 0.926545
vt 0.119420 0.926558
vt 0.119672 0.927888
vt 0.119672 0.927683
vt 0.119777 0.927671
vt 0.119777 0.927900
vt 0.007801 0.878775
vt 0.008519 0.879168
vt 0.009576 0.879168
vt 0.010294 0.878775
vt 0.010294 0.883350
vt 0.009800 0.883712
vt 0.009261 0.883875
vt 0.008835 0.883875
vt 0.008296 0.883712
vt 0.007801 0.883350
vt 0.114733 0.931890
vt 0.114733 0.928986
vt 0.114810 0.928838
vt 0.114810 0.931903
vt 0.117496 0.932979
vt 0.118340 0.932979
vt 0.118340 0.933246
vt 0.117496 0.933246
vt 0.116524 0.928851
vt 0.116601 0.928838
vt 0.113914 0.932666
vt 0.113070 0.932666
vt 0.113070 0.932437
vt 0.113914 0.932437
vt 0.113914 0.932147
vt 0.113070 0.932147
vt 0.113070 0.931880
vt 0.113914 0.931880
vt 0.117496 0.932689
vt 0.118340 0.932689
vt 0.119604 0.926082
vt 0.119526 0.926341
vt 0.119420 0.926329
vt 0.119508 0.926038
vt 0.119420 0.928838
vt 0.118576 0.928838
vt 0.118576 0.925772
vt 0.119420 0.925772
vt 0.114810 0.931755
vt 0.115628 0.931755
vt 0.115705 0.931903
vt 0.114861 0.931903
vt 0.120029 0.931903
vt 0.119185 0.931903
vt 0.119185 0.928838
vt 0.120029 0.928838
vt 0.119777 0.925845
vt 0.119702 0.925772
vt 0.119594 0.927425
vt 0.119690 0.927381
vt 0.119420 0.927188
vt 0.119495 0.927114
vt 0.115628 0.928851
vt 0.115705 0.928838
vt 0.084597 0.948982
vt 0.083509 0.948982
vt 0.083509 0.941636
vt 0.084597 0.941636
vt 0.115585 0.925772
vt 0.118576 0.925772
vt 0.118576 0.928838
vt 0.115585 0.928838
vt 0.089768 0.942342
vt 0.089768 0.942799
vt 0.088948 0.942688
vt 0.088948 0.942217
vt 0.119923 0.925818
vt 0.119923 0.928768
vt 0.119777 0.928815
vt 0.119777 0.925772
vt 0.083509 0.948982
vt 0.082421 0.948982
vt 0.082421 0.941636
vt 0.083509 0.941636
vt 0.115585 0.928838
vt 0.112595 0.928838
vt 0.112595 0.925772
vt 0.115585 0.925772
vt 0.087860 0.942970
vt 0.086772 0.942970
vt 0.086772 0.942274
vt 0.087860 0.942274
vt 0.113142 0.928838
vt 0.113142 0.931880
vt 0.112856 0.931880
vt 0.112856 0.928838
vt 0.087860 0.943519
vt 0.088948 0.943519
vt 0.088948 0.944215
vt 0.087860 0.944215
vt 0.113367 0.931880
vt 0.113367 0.928838
vt 0.113652 0.928838
vt 0.113652 0.931880
vt 0.088948 0.944853
vt 0.087860 0.944853
vt 0.113914 0.928838
vt 0.113914 0.931880
vt 0.087860 0.942970
vt 0.088948 0.942970
vt 0.086772 0.941636
vt 0.087860 0.941636
vt 0.112595 0.931880
vt 0.112595 0.928838
vt 0.005308 0.878775
vt 0.005308 0.886401
vt 0.088948 0.943255
vt 0.088948 0.942799
vt 0.089768 0.942910
vt 0.089768 0.943380
vt 0.119923 0.928768
vt 0.119923 0.925818
vt 0.120069 0.925772
vt 0.120069 0.928815
vt 0.117496 0.931755
vt 0.117445 0.931903
vt 0.113070 0.932956
vt 0.113914 0.932956
vt 0.113914 0.933223
vt 0.113070 0.933223
vt 0.086772 0.948982
vt 0.085684 0.948982
vt 0.085684 0.941636
vt 0.089768 0.941636
vt 0.089768 0.942093
vt 0.088948 0.942217
vt 0.088948 0.941747
vt 0.084597 0.941636
vt 0.085684 0.941636
vt 0.085684 0.948982
vt 0.084597 0.948982
vt 0.086772 0.943519
vt 0.087860 0.943519
vt 0.087860 0.944215
vt 0.086772 0.944215
vt 0.087860 0.944853
vt 0.086772 0.944853
vt 0.010294 0.884839
vt 0.010294 0.880336
vt 0.010294 0.880046
vt 0.011191 0.878775
vt 0.011191 0.886401
vt 0.010294 0.886401
vt 0.010294 0.885130
vt 0.117496 0.932460
vt 0.118340 0.932460
vt 0.118340 0.932170
vt 0.117496 0.932170
vt 0.117496 0.931903
vt 0.118340 0.931903
vt 0.118340 0.928838
vt 0.119185 0.928838
vt 0.119185 0.931903
vt 0.118340 0.931903
vt 0.113914 0.928986
vt 0.113966 0.928838
vt 0.118340 0.931903
vt 0.117496 0.931903
vt 0.117496 0.928838
vt 0.118340 0.928838
vt 0.087860 0.942274
vt 0.088948 0.942274
vt 0.087860 0.941636
vt 0.088948 0.941636
vt 0.088948 0.943962
vt 0.088948 0.943505
vt 0.089768 0.943380
vt 0.089768 0.943851
vn 0.0000 1.0000 -0.0000
vn 0.3837 0.6878 -0.6162
vn 0.6365 0.7198 -0.2768
vn 0.6380 0.7199 -0.2733
vn 0.3926 0.6883 -0.6100
vn 0.7220 0.6919 0.0000
vn 0.8661 0.0000 -0.4998
vn 0.6365 -0.7198 -0.2768
vn 0.3837 -0.6878 -0.6162
vn 0.3926 -0.6883 -0.6100
vn 0.6380 -0.7199 -0.2733
vn 0.3765 0.0000 -0.9264
vn 0.6976 0.0000 -0.7165
vn 0.1363 0.6822 -0.7184
vn 0.1351 0.6822 -0.7186
vn 0.1363 -0.6822 -0.7184
vn -0.1363 -0.6822 -0.7184
vn -0.1351 -0.6822 -0.7186
vn 0.1351 -0.6822 -0.7186
vn 0.0000 -1.0000 0.0000
vn -0.6365 -0.7198 -0.2768
vn -0.7220 -0.6919 0.0000
vn -0.6380 -0.7199 -0.2733
vn 0.5356 -0.0000 0.8444
vn 0.6870 -0.0000 0.7267
vn 0.7220 -0.6919 0.0000
vn 0.1855 -0.0000 0.9826
vn -0.1855 0.0000 0.9826
vn -0.5356 0.0000 0.8444
vn -0.6870 0.0000 0.7267
vn -0.3837 0.6878 -0.6162
vn -0.1363 0.6822 -0.7184
vn -0.1351 0.6822 -0.7186
vn -0.3926 0.6883 -0.6100
vn -1.0000 0.0000 0.0000
vn -0.8661 0.0000 -0.4998
vn 1.0000 0.0000 0.0000
vn -0.6365 0.7198 -0.2768
vn -0.6380 0.7199 -0.2733
vn -0.3837 -0.6878 -0.6162
vn -0.3926 -0.6883 -0.6100
vn -0.7220 0.6919 0.0000
vn -0.3765 0.0000 -0.9264
vn -0.6976 0.0000 -0.7165
s 1
f 11/1/1 12/2/1 5/3/1 6/4/1 2/5/1 15/6/1 16/7/1 19/8/1 20/9/1 8/10/1
f 15/11/2 2/12/3 21/13/4 32/14/5
f 2/15/3 6/16/6 24/17/6 21/18/4
f 72/19/7 3/20/7 23/21/7 73/22/7
f 1/23/8 14/24/9 29/25/10 22/26/11
f 5/27/12 4/28/12 3/29/13 72/30/13 37/31/13 38/32/13 57/33/13 6/34/13
f 16/35/14 15/11/2 32/14/5 31/36/15
f 13/37/16 18/38/17 35/39/18 30/40/19
f 3/41/20 4/42/20 9/43/20 10/44/20 7/45/20 17/46/20 18/47/20 13/48/20 14/49/20 1/50/20
f 7/51/21 10/52/22 26/53/22 27/54/23
f 76/55/24 36/56/24 27/57/25 74/58/25
f 3/20/26 1/59/8 22/60/11 23/21/26
f 66/61/27 34/62/27 31/63/28 60/64/28
f 65/65/29 32/66/29 21/67/30 63/68/30
f 60/64/28 31/63/28 32/66/29 65/65/29
f 71/69/27 35/70/27 36/56/24 76/55/24
f 20/71/31 19/72/32 34/73/33 33/74/34
f 63/75/35 21/76/35 24/77/35 58/78/35
f 19/72/32 16/35/14 31/36/15 34/73/33
f 62/79/36 11/80/36 25/81/36 64/82/36
f 64/83/37 25/84/37 28/85/37 59/86/37
f 8/87/38 20/71/31 33/74/34 28/88/39
f 18/38/17 17/89/40 36/90/41 35/39/18
f 14/24/9 13/37/16 30/40/19 29/25/10
f 17/89/40 7/91/21 27/92/23 36/90/41
f 11/80/42 8/93/38 28/94/39 25/81/42
f 69/95/37 46/96/37 47/97/37 74/98/37
f 46/99/37 45/100/37 48/101/37 47/102/37
f 67/103/36 40/104/36 46/105/36 69/106/36
f 40/107/36 39/108/36 45/109/36 46/110/36
f 68/111/35 42/112/35 43/113/35 73/114/35
f 42/115/35 41/116/35 44/117/35 43/118/35
f 66/119/27 53/120/27 56/121/24 61/122/24
f 53/123/27 54/124/27 55/125/24 56/126/24
f 75/127/28 49/128/28 52/129/29 70/130/29
f 49/131/28 50/132/28 51/133/29 52/134/29
f 70/130/29 52/129/29 42/135/30 68/136/30
f 52/134/29 51/133/29 41/137/30 42/138/30
f 71/139/27 54/140/27 49/128/28 75/127/28
f 54/124/27 53/123/27 50/132/28 49/131/28
f 61/122/24 56/121/24 48/141/25 59/142/25
f 56/126/24 55/125/24 47/143/25 48/144/25
f 5/27/12 12/145/43 9/146/43 4/28/12
f 57/147/7 38/148/7 44/149/7 58/150/7
f 38/151/7 37/152/7 43/153/7 44/154/7
f 6/16/7 57/155/7 58/156/7 24/17/7
f 33/157/24 61/158/24 59/159/25 28/160/25
f 34/62/27 66/61/27 61/158/24 33/157/24
f 45/161/37 64/162/37 59/163/37 48/141/37
f 39/164/36 62/165/36 64/166/36 45/167/36
f 41/168/35 63/169/35 58/170/35 44/171/35
f 50/172/28 60/173/28 65/174/29 51/175/29
f 51/175/29 65/174/29 63/176/30 41/177/30
f 53/120/27 66/119/27 60/173/28 50/172/28
f 39/178/44 40/179/44 67/180/44 10/44/44 9/181/43 12/182/43 11/183/44 62/184/44
f 35/70/27 71/69/27 75/185/28 30/186/28
f 29/187/29 70/188/29 68/189/30 22/190/30
f 30/186/28 75/185/28 70/188/29 29/187/29
f 22/191/35 68/192/35 73/193/35 23/194/35
f 10/52/36 67/195/36 69/196/36 26/53/36
f 26/197/37 69/198/37 74/199/37 27/200/37
f 54/140/27 71/139/27 76/201/24 55/202/24
f 55/202/24 76/201/24 74/203/25 47/204/25
f 37/205/7 72/206/7 73/207/7 43/208/7
