# Blender v2.80 (sub 75) OBJ File: 'dungeon.blend'
# www.blender.org
v 0.111190 0.169900 0.016938
v 0.104048 0.178372 0.017420
v 0.112113 0.097695 0.016420
v 0.103110 0.084932 0.015254
v -0.019359 0.154290 0.017536
v -0.006212 0.169143 0.018913
v -0.013836 0.088889 0.013879
v -0.005649 0.076568 0.014618
v -0.003746 0.094058 0.129779
v -0.003464 0.100907 0.139257
v -0.012133 0.096689 0.130672
v -0.003953 0.177504 0.139571
v -0.005164 0.185416 0.131535
v -0.012482 0.177880 0.130105
v -0.002032 0.087804 -0.102935
v -0.012886 0.097095 -0.101971
v -0.001028 0.090547 -0.110966
v -0.003747 0.182564 -0.101036
v -0.003137 0.175850 -0.111758
v -0.011439 0.171779 -0.103428
v 0.104232 0.088262 0.131274
v 0.113261 0.098013 0.131419
v 0.103413 0.093963 0.139943
v 0.103835 0.187910 0.130535
v 0.104016 0.176960 0.139571
v 0.112271 0.176190 0.130464
v 0.105176 0.094583 -0.102142
v 0.105820 0.100989 -0.111318
v 0.114212 0.102964 -0.101736
v 0.106649 0.183783 -0.101702
v 0.114273 0.175719 -0.102039
v 0.104811 0.173948 -0.110189
v 0.154898 0.068862 0.113817
v 0.150836 0.076350 0.109947
v 0.156917 0.006137 0.114462
v 0.151590 0.001086 0.106887
v 0.081382 0.075604 0.012570
v 0.083498 0.077946 0.023920
v 0.081345 0.010141 0.013407
v 0.085904 -0.002492 0.021029
v -0.007232 -0.005388 0.091750
v -0.014283 0.000820 0.097600
v -0.012592 0.003180 0.085756
v -0.014397 0.075842 0.098118
v -0.007378 0.083714 0.091839
v -0.012048 0.076393 0.084222
v 0.179974 0.003885 -0.049899
v 0.174052 0.019348 -0.056519
v 0.187218 0.019548 -0.054142
v 0.178990 0.097004 -0.048490
v 0.187102 0.088731 -0.054309
v 0.174093 0.079055 -0.055342
v 0.058372 -0.001718 0.178196
v 0.063315 0.003786 0.185005
v 0.051276 0.004105 0.183398
v 0.058583 0.090427 0.177318
v 0.050991 0.078737 0.183287
v 0.063637 0.079548 0.184069
v 0.244503 -0.008886 0.037924
v 0.251096 0.005817 0.031731
v 0.249340 0.004968 0.044469
v 0.245852 0.077767 0.040454
v 0.252028 0.067196 0.047474
v 0.251193 0.079717 0.032414
v -0.009770 0.070109 -0.149808
v -0.008799 0.076816 -0.142224
v -0.013745 0.004651 -0.148825
v -0.013617 -0.003150 -0.139332
v -0.008834 0.079547 -0.017080
v -0.005894 0.071732 -0.026484
v -0.004332 -0.000578 -0.021734
v -0.004244 -0.007779 -0.030400
v 0.110988 -0.003070 -0.042006
v 0.120104 0.004420 -0.042465
v 0.112702 0.006281 -0.033496
v 0.119465 0.082859 -0.042233
v 0.109310 0.088265 -0.040637
v 0.110330 0.072315 -0.031417
v -0.119458 -0.009536 -0.020488
v -0.118349 0.000975 -0.012619
v -0.127018 0.000932 -0.020703
v -0.120298 0.076985 -0.021938
v -0.129144 0.070541 -0.023399
v -0.120675 0.066434 -0.015584
v 0.102508 -0.004357 -0.150306
v 0.102204 0.002625 -0.159332
v 0.111216 0.004361 -0.151114
v 0.102554 0.090844 -0.150326
v 0.110219 0.082691 -0.150273
v 0.100505 0.083273 -0.158057
v -0.129451 -0.000899 -0.127957
v -0.137709 0.006282 -0.127178
v -0.130605 0.008540 -0.136208
v -0.129910 0.085871 -0.130286
v -0.129957 0.076967 -0.138553
v -0.139028 0.077377 -0.129751
v -0.209845 0.120462 -0.033875
v -0.206640 0.133060 -0.020728
v -0.189045 0.076138 -0.059010
v -0.179205 0.065064 -0.058713
v -0.117930 0.108189 0.063029
v -0.124087 0.113135 0.057204
v -0.096575 0.049358 0.026185
v -0.099896 0.041196 0.014994
v -0.030856 0.102935 -0.045526
v -0.026169 0.117546 -0.051209
v -0.025989 0.113094 -0.037371
v -0.051944 0.181339 -0.007548
v -0.061271 0.176680 0.002343
v -0.047935 0.177289 -0.001822
v -0.165209 -0.019804 0.077212
v -0.161581 -0.012601 0.089028
v -0.170658 -0.020967 0.084915
v -0.194074 0.057851 0.124841
v -0.201244 0.052611 0.129200
v -0.178124 0.036709 0.121312
v -0.108139 0.128768 -0.123926
v -0.114864 0.135905 -0.127802
v -0.103705 0.138192 -0.123671
v -0.137078 0.206998 -0.074807
v -0.129084 0.199401 -0.086061
v -0.140699 0.198694 -0.086004
v -0.248389 -0.001185 0.006547
v -0.257404 0.004364 0.017417
v -0.259110 0.009529 0.005151
v -0.274257 0.064867 0.045084
v -0.277551 0.064910 0.040783
v -0.277854 0.062013 0.053363
vt 0.009332 0.979957
vt 0.008647 0.979968
vt 0.008634 0.979112
vt 0.009267 0.979111
vt 0.009656 0.978358
vt 0.010251 0.978371
vt 0.010287 0.979300
vt 0.009643 0.979298
vt 0.006393 0.977372
vt 0.005507 0.977401
vt 0.005490 0.976438
vt 0.006390 0.976406
vt 0.005276 0.976343
vt 0.004364 0.976315
vt 0.004388 0.975419
vt 0.005288 0.975436
vt 0.009564 0.974373
vt 0.010106 0.974352
vt 0.010228 0.975345
vt 0.009614 0.975322
vt 0.011015 0.975173
vt 0.010312 0.975204
vt 0.010316 0.974332
vt 0.010916 0.974310
vt 0.006326 0.975489
vt 0.006317 0.975418
vt 0.006393 0.975482
vt 0.004396 0.975346
vt 0.004325 0.975422
vt 0.009531 0.975330
vt 0.009551 0.975396
vt 0.010312 0.975328
vt 0.010255 0.975415
vt 0.009559 0.979294
vt 0.009604 0.979366
vt 0.008557 0.979986
vt 0.008654 0.980052
vt 0.005502 0.977482
vt 0.005428 0.977408
vt 0.005376 0.975346
vt 0.005428 0.975420
vt 0.005360 0.975420
vt 0.009457 0.974366
vt 0.009616 0.973428
vt 0.009644 0.973420
vt 0.009674 0.973352
vt 0.010304 0.973361
vt 0.010312 0.973437
vt 0.010220 0.974346
vt 0.010966 0.975280
vt 0.010350 0.975280
vt 0.006386 0.977440
vt 0.004377 0.977302
vt 0.005288 0.977315
vt 0.005269 0.977374
vt 0.004379 0.977382
vt 0.010317 0.977400
vt 0.009717 0.977393
vt 0.009699 0.977313
vt 0.010299 0.977332
vt 0.009547 0.978345
vt 0.009644 0.977387
vt 0.010317 0.978375
vt 0.010380 0.979301
vt 0.009299 0.980052
vt 0.005440 0.975500
vt 0.005441 0.975435
vt 0.005287 0.975351
vt 0.010380 0.977403
vt 0.004251 0.976310
vt 0.007594 0.979356
vt 0.008208 0.979344
vt 0.008242 0.980028
vt 0.007625 0.980046
vt 0.010239 0.976442
vt 0.009723 0.976397
vt 0.009686 0.975530
vt 0.010310 0.975562
vt 0.009457 0.975334
vt 0.008554 0.975313
vt 0.008568 0.974384
vt 0.009457 0.974371
vt 0.005514 0.974385
vt 0.006413 0.974418
vt 0.006411 0.975336
vt 0.005527 0.975303
vt 0.008225 0.978495
vt 0.007688 0.978445
vt 0.007712 0.977614
vt 0.008201 0.977657
vt 0.010473 0.976469
vt 0.011042 0.976430
vt 0.011042 0.977149
vt 0.010433 0.977184
vt 0.007571 0.980096
vt 0.007646 0.980142
vt 0.008304 0.980080
vt 0.008248 0.980142
vt 0.008335 0.977629
vt 0.008211 0.977554
vt 0.007571 0.977569
vt 0.007643 0.977503
vt 0.008562 0.973429
vt 0.008495 0.973434
vt 0.008566 0.973364
vt 0.009598 0.975498
vt 0.009698 0.975432
vt 0.010313 0.977242
vt 0.010433 0.977288
vt 0.005512 0.973427
vt 0.005428 0.973429
vt 0.005540 0.973352
vt 0.008335 0.978477
vt 0.008307 0.979314
vt 0.008231 0.979344
vt 0.006440 0.973427
vt 0.006497 0.973442
vt 0.006497 0.974380
vt 0.010343 0.976512
vt 0.006434 0.973353
vt 0.010947 0.977279
vt 0.010282 0.976417
vt 0.010313 0.977294
vt 0.010197 0.977313
vt 0.009663 0.976369
vt 0.010313 0.975470
vt 0.009455 0.973420
vt 0.009455 0.973352
vt 0.006398 0.975418
vt 0.005517 0.975391
vt 0.009599 0.977259
vt 0.009684 0.977299
vt 0.008493 0.974387
vt 0.006479 0.975336
vt 0.007630 0.979283
vt 0.010330 0.973420
vt 0.010975 0.973425
vt 0.010982 0.974310
vt 0.010336 0.974310
vt 0.006111 0.978432
vt 0.005572 0.978391
vt 0.005480 0.977487
vt 0.006144 0.977482
vt 0.008550 0.977503
vt 0.007656 0.977503
vt 0.007655 0.976556
vt 0.008557 0.976559
vt 0.007515 0.974328
vt 0.006564 0.974391
vt 0.006606 0.973437
vt 0.007508 0.973411
vt 0.004945 0.978304
vt 0.004282 0.978286
vt 0.004353 0.977392
vt 0.004894 0.977382
vt 0.010404 0.975497
vt 0.010975 0.975560
vt 0.010975 0.976430
vt 0.010392 0.976367
vt 0.005005 0.979257
vt 0.004946 0.979333
vt 0.004928 0.979257
vt 0.004299 0.979354
vt 0.004251 0.979272
vt 0.004382 0.979256
vt 0.010313 0.975490
vt 0.010403 0.975432
vt 0.005346 0.975346
vt 0.005346 0.975431
vt 0.005288 0.975411
vt 0.007657 0.975606
vt 0.007577 0.975597
vt 0.007650 0.975529
vt 0.011039 0.973423
vt 0.010976 0.973360
vt 0.006144 0.979393
vt 0.006084 0.979460
vt 0.006063 0.979392
vt 0.005428 0.979384
vt 0.005498 0.979376
vt 0.005497 0.979459
vt 0.005005 0.978319
vt 0.006622 0.975323
vt 0.006559 0.975335
vt 0.006497 0.974419
vt 0.010940 0.975495
vt 0.010327 0.976370
vt 0.007522 0.975319
vt 0.007516 0.975396
vt 0.006634 0.975396
vt 0.007579 0.977500
vt 0.007571 0.976545
vt 0.007565 0.973425
vt 0.007571 0.974333
vt 0.010312 0.973352
vt 0.008547 0.975612
vt 0.008544 0.975533
vt 0.006606 0.973355
vt 0.007494 0.973352
vt 0.005520 0.978391
vt 0.006514 0.973442
vt 0.004981 0.977386
vt 0.007401 0.977533
vt 0.006824 0.977603
vt 0.006503 0.977022
vt 0.007128 0.976978
vt 0.005039 0.974212
vt 0.005428 0.974332
vt 0.005428 0.975236
vt 0.004896 0.975052
vt 0.009460 0.978975
vt 0.008557 0.979002
vt 0.008589 0.978161
vt 0.009488 0.978179
vt 0.008604 0.976429
vt 0.009549 0.976462
vt 0.009547 0.977198
vt 0.008639 0.977210
vt 0.006538 0.978582
vt 0.007074 0.978489
vt 0.006959 0.979314
vt 0.006514 0.979398
vt 0.007770 0.973352
vt 0.008493 0.973419
vt 0.008236 0.973984
vt 0.007666 0.973941
vt 0.007194 0.976866
vt 0.007085 0.976867
vt 0.009539 0.977313
vt 0.009598 0.977301
vt 0.009547 0.979017
vt 0.009471 0.979052
vt 0.007179 0.979318
vt 0.007184 0.979396
vt 0.004817 0.975043
vt 0.004844 0.975123
vt 0.008622 0.977313
vt 0.008557 0.977243
vt 0.007571 0.973984
vt 0.007642 0.974047
vt 0.008647 0.975599
vt 0.008603 0.975604
vt 0.008677 0.975529
vt 0.007305 0.976153
vt 0.007193 0.976124
vt 0.006497 0.976966
vt 0.007129 0.978495
vt 0.006497 0.979490
vt 0.008563 0.979111
vt 0.009582 0.975620
vt 0.009570 0.975549
vt 0.008195 0.974081
vt 0.004918 0.974200
vt 0.004993 0.973352
vt 0.005117 0.973358
vt 0.008306 0.974798
vt 0.008493 0.975494
vt 0.008386 0.975529
vt 0.008161 0.974826
vt 0.005363 0.975304
vt 0.004251 0.975227
vt 0.004303 0.975346
vt 0.008634 0.977313
vt 0.009547 0.977372
vt 0.008213 0.974052
vt 0.007184 0.977698
vt 0.007119 0.977603
vt 0.007401 0.975434
vt 0.007292 0.975396
vt 0.006547 0.977721
vt 0.007731 0.974774
vn -0.0032 0.0004 1.0000
vn 0.9999 0.0127 -0.0101
vn 0.0703 -0.9938 -0.0867
vn -0.0543 0.9921 -0.1132
vn -0.9988 -0.0284 -0.0405
vn 0.0056 0.0022 -1.0000
vn -0.1872 -0.7936 0.5790
vn -0.6324 0.5023 0.5897
vn -0.6323 -0.7055 -0.3200
vn -0.6980 0.5884 -0.4082
vn 0.6480 -0.6068 0.4603
vn 0.6702 0.4789 0.5670
vn 0.6287 -0.6577 -0.4150
vn 0.5058 0.5075 -0.6976
vn -0.6666 -0.7399 0.0910
vn -0.7237 -0.0027 0.6901
vn -0.7785 0.6259 0.0467
vn -0.6526 -0.0133 -0.7575
vn 0.0720 -0.8835 -0.4628
vn 0.0051 0.7575 -0.6529
vn 0.7038 0.0086 -0.7104
vn 0.7615 -0.6476 -0.0276
vn 0.7903 0.6110 -0.0457
vn 0.6970 0.0076 0.7170
vn -0.0545 -0.8220 0.5668
vn -0.0026 0.6710 0.7415
vn 0.0109 -0.9959 0.0896
vn 0.7462 0.6639 0.0491
vn 0.7805 -0.6252 0.0022
vn -0.7289 0.6781 -0.0944
vn -0.7489 -0.6591 -0.0696
vn -0.9982 -0.0409 0.0429
vn -0.0464 0.9959 0.0775
vn 0.9997 0.0059 0.0221
vn -0.7938 -0.0038 0.6081
vn 0.6063 0.0165 0.7951
vn -0.0376 -0.9990 -0.0247
vn 0.0546 0.9959 -0.0722
vn -0.5967 0.0026 -0.8025
vn 0.8034 0.0023 -0.5954
vn -0.7438 -0.6271 -0.2312
vn -0.7833 0.6122 -0.1081
vn 0.1725 -0.3311 -0.9277
vn -0.2278 0.4009 -0.8874
vn -0.1090 -0.7329 0.6716
vn -0.0853 0.4965 0.8639
vn 0.9231 -0.3707 0.1026
vn 0.5409 0.6612 0.5198
vn -0.4547 -0.6221 -0.6374
vn -0.9879 0.0018 -0.1549
vn -0.4941 0.6689 -0.5554
vn 0.1263 0.0078 -0.9920
vn 0.6609 -0.4950 -0.5641
vn 0.3366 0.9363 -0.1004
vn 0.9995 -0.0211 0.0230
vn 0.4150 -0.6771 0.6078
vn 0.5279 0.6061 0.5949
vn -0.0965 0.0069 0.9953
vn -0.4264 -0.8306 0.3582
vn -0.5869 0.6967 0.4125
vn 0.0396 -0.9991 0.0119
vn 0.4470 0.6340 0.6311
vn 0.3254 -0.8581 0.3973
vn -0.2470 0.8963 -0.3683
vn -0.4809 -0.5325 -0.6966
vn -0.6091 -0.0110 -0.7930
vn -0.0119 0.9918 0.1272
vn 0.5836 -0.0185 0.8118
vn 0.9965 0.0110 -0.0834
vn -0.0828 0.0033 -0.9966
vn -0.0077 -0.9981 -0.0605
vn -0.1298 0.9908 0.0392
vn 0.0474 -0.0094 0.9988
vn -0.9953 -0.0208 0.0950
vn 0.5376 -0.6193 0.5722
vn 0.3802 0.4810 0.7900
vn -0.6145 -0.4302 0.6613
vn -0.4654 0.4687 0.7508
vn 0.5853 -0.6317 -0.5083
vn 0.5540 0.5166 -0.6528
vn -0.5617 -0.5823 -0.5877
vn -0.5614 0.5646 -0.6050
vn 0.1048 -0.7210 0.6849
vn 0.7660 0.0057 0.6428
vn -0.0298 0.9859 0.1649
vn -0.6790 0.0084 0.7341
vn -0.7439 -0.6677 0.0283
vn -0.6387 0.7610 0.1137
vn -0.7389 -0.0273 -0.6732
vn -0.0901 -0.7175 -0.6907
vn -0.1393 0.7378 -0.6605
vn 0.6488 0.0211 -0.7607
vn 0.6700 -0.7407 -0.0490
vn 0.6032 0.7968 -0.0355
vn 0.0135 -0.9998 -0.0165
vn -0.0203 0.7130 -0.7009
vn -0.0684 -0.7805 -0.6214
vn 0.0124 0.9158 0.4013
vn 0.0610 -0.6830 0.7279
vn 0.1097 -0.0406 0.9931
vn 0.0646 0.9962 0.0585
vn -0.1011 -0.0212 -0.9946
vn 0.6362 0.5864 -0.5014
vn -0.7078 0.1261 -0.6950
vn 0.2604 -0.8067 -0.5305
vn -0.3178 0.7577 0.5700
vn 0.7609 -0.1386 0.6339
vn -0.6060 -0.5730 0.5518
vn 0.9299 -0.3464 -0.1236
vn 0.1220 0.8486 0.5148
vn 0.5740 -0.7656 0.2905
vn 0.4197 0.1677 0.8920
vn 0.3701 -0.1493 -0.9169
vn -0.0522 0.8101 -0.5840
vn -0.6789 -0.7057 -0.2027
vn -0.2628 0.9416 0.2105
vn 0.7600 -0.6010 0.2475
vn 0.9284 0.3697 -0.0381
vn 0.3969 0.4087 0.8218
vn -0.0265 -0.5359 0.8438
vn -0.2659 -0.9638 0.0205
vn -0.2584 0.8983 0.3552
vn -0.9529 -0.3003 -0.0436
vn -0.3731 -0.4165 -0.8290
vn -0.7961 0.5512 -0.2500
vn 0.0741 0.5593 -0.8256
vn 0.5831 -0.3831 -0.7164
vn 0.2417 0.9683 0.0635
vn 0.2539 -0.8114 -0.5265
vn -0.7562 0.6312 -0.1725
vn -0.3317 -0.4868 -0.8081
vn 0.0734 0.6267 0.7758
vn 0.7622 -0.6205 0.1842
vn 0.7341 -0.1334 0.6658
vn -0.3053 0.8350 0.4578
vn -0.7499 0.1031 -0.6535
s off
f 23/1/1 25/2/1 12/3/1 10/4/1
f 3/5/2 1/6/2 26/7/2 22/8/2
f 15/9/3 27/10/3 4/11/3 8/12/3
f 2/13/4 6/14/4 13/15/4 24/16/4
f 7/17/5 5/18/5 20/19/5 16/20/5
f 17/21/6 19/22/6 32/23/6 28/24/6
f 9/25/7 10/26/7 11/27/7
f 12/28/8 13/15/8 14/29/8
f 15/30/9 16/20/9 17/31/9
f 18/32/10 19/33/10 20/19/10
f 21/34/11 22/8/11 23/35/11
f 24/36/12 25/2/12 26/37/12
f 27/10/13 28/38/13 29/39/13
f 30/40/14 31/41/14 32/42/14
f 8/43/15 9/44/15 11/45/15 7/17/15
f 10/46/16 12/47/16 14/48/16 11/45/16
f 6/49/17 18/32/17 20/19/17 5/18/17
f 19/22/18 17/21/18 16/50/18 20/51/18
f 27/10/19 15/9/19 17/52/19 28/38/19
f 18/53/20 30/54/20 32/55/20 19/56/20
f 31/57/21 29/58/21 28/59/21 32/60/21
f 4/61/22 27/62/22 29/58/22 3/5/22
f 2/63/23 24/64/23 26/7/23 1/6/23
f 25/2/24 23/1/24 22/65/24 26/37/24
f 9/25/25 21/66/25 23/67/25 10/26/25
f 24/16/26 13/15/26 12/28/26 25/68/26
f 8/12/27 4/11/27 21/66/27 9/25/27
f 30/69/28 2/63/28 1/6/28 31/57/28
f 21/34/29 4/61/29 3/5/29 22/8/29
f 13/15/30 6/14/30 5/70/30 14/29/30
f 15/30/31 8/43/31 7/17/31 16/20/31
f 11/45/32 14/48/32 5/18/32 7/17/32
f 30/54/33 18/53/33 6/14/33 2/13/33
f 29/58/34 31/57/34 1/6/34 3/5/34
f 55/71/35 57/72/35 44/73/35 42/74/35
f 35/75/36 33/76/36 58/77/36 54/78/36
f 47/79/37 59/80/37 36/81/37 40/82/37
f 34/83/38 38/84/38 45/85/38 56/86/38
f 39/87/39 37/88/39 52/89/39 48/90/39
f 49/91/40 51/92/40 64/93/40 60/94/40
f 41/95/41 42/74/41 43/96/41
f 44/73/42 45/97/42 46/98/42
f 47/99/43 48/90/43 49/100/43
f 50/101/44 51/102/44 52/89/44
f 53/103/45 54/104/45 55/105/45
f 56/106/46 57/107/46 58/77/46
f 59/108/47 60/94/47 61/109/47
f 62/110/48 63/111/48 64/112/48
f 40/113/49 41/114/49 43/115/49 39/87/49
f 42/74/50 44/73/50 46/98/50 43/96/50
f 38/84/51 50/116/51 52/117/51 37/118/51
f 51/102/52 49/100/52 48/90/52 52/89/52
f 59/108/53 47/119/53 49/91/53 60/94/53
f 50/116/54 62/110/54 64/112/54 51/120/54
f 63/121/55 61/109/55 60/94/55 64/93/55
f 36/122/56 59/123/56 61/124/56 35/75/56
f 34/125/57 56/106/57 58/77/57 33/76/57
f 57/107/58 55/126/58 54/78/58 58/77/58
f 41/127/59 53/103/59 55/105/59 42/128/59
f 56/86/60 45/85/60 44/129/60 57/130/60
f 40/82/61 36/81/61 53/103/61 41/127/61
f 62/131/62 34/125/62 33/76/62 63/132/62
f 53/103/63 36/81/63 35/133/63 54/104/63
f 45/85/64 38/84/64 37/118/64 46/134/64
f 47/99/65 40/113/65 39/87/65 48/90/65
f 43/115/66 46/135/66 37/88/66 39/87/66
f 62/110/67 50/116/67 38/84/67 34/83/67
f 61/124/68 63/132/68 33/76/68 35/75/68
f 87/136/69 89/137/69 76/138/69 74/139/69
f 67/140/70 65/141/70 90/142/70 86/143/70
f 79/144/71 91/145/71 68/146/71 72/147/71
f 66/148/72 70/149/72 77/150/72 88/151/72
f 71/152/73 69/153/73 84/154/73 80/155/73
f 81/156/74 83/157/74 96/158/74 92/159/74
f 73/160/75 74/161/75 75/162/75
f 76/163/76 77/164/76 78/165/76
f 79/166/77 80/167/77 81/156/77
f 82/168/78 83/169/78 84/170/78
f 85/171/79 86/172/79 87/173/79
f 88/174/80 89/137/80 90/175/80
f 91/176/81 92/177/81 93/178/81
f 94/179/82 95/180/82 96/181/82
f 72/182/83 73/160/83 75/162/83 71/152/83
f 74/161/84 76/163/84 78/165/84 75/162/84
f 70/149/85 82/183/85 84/184/85 69/185/85
f 83/157/86 81/156/86 80/167/86 84/186/86
f 91/187/87 79/166/87 81/156/87 92/159/87
f 82/183/88 94/188/88 96/189/88 83/190/88
f 95/180/89 93/178/89 92/177/89 96/181/89
f 68/146/90 91/145/90 93/191/90 67/192/90
f 66/148/91 88/151/91 90/193/91 65/194/91
f 89/137/92 87/136/92 86/195/92 90/175/92
f 73/196/93 85/171/93 87/173/93 74/197/93
f 88/151/94 77/150/94 76/198/94 89/199/94
f 72/147/95 68/146/95 85/171/95 73/196/95
f 94/179/96 66/200/96 65/141/96 95/180/96
f 85/171/97 68/146/97 67/192/97 86/172/97
f 77/150/98 70/149/98 69/185/98 78/201/98
f 79/202/99 72/182/99 71/152/99 80/155/99
f 75/162/100 78/165/100 69/153/100 71/152/100
f 94/188/101 82/183/101 70/149/101 66/148/101
f 93/178/102 95/180/102 65/141/102 67/140/102
f 119/203/103 121/204/103 108/205/103 106/206/103
f 99/207/104 97/208/104 122/209/104 118/210/104
f 111/211/105 123/212/105 100/213/105 104/214/105
f 98/215/106 102/216/106 109/217/106 120/218/106
f 103/219/107 101/220/107 116/221/107 112/222/107
f 113/223/108 115/224/108 128/225/108 124/226/108
f 105/227/109 106/206/109 107/228/109
f 108/229/110 109/217/110 110/230/110
f 111/211/111 112/231/111 113/232/111
f 114/233/112 115/234/112 116/221/112
f 117/235/113 118/210/113 119/236/113
f 120/218/114 121/237/114 122/238/114
f 123/239/115 124/226/115 125/240/115
f 126/241/116 127/242/116 128/243/116
f 104/244/117 105/227/117 107/228/117 103/245/117
f 106/206/118 108/205/118 110/246/118 107/228/118
f 102/247/119 114/233/119 116/221/119 101/220/119
f 115/234/120 113/248/120 112/222/120 116/221/120
f 123/212/121 111/211/121 113/232/121 124/249/121
f 114/250/122 126/241/122 128/243/122 115/251/122
f 127/252/123 125/240/123 124/226/123 128/225/123
f 100/253/124 123/254/124 125/255/124 99/207/124
f 98/256/125 120/257/125 122/258/125 97/259/125
f 121/260/126 119/236/126 118/210/126 122/209/126
f 105/261/127 117/235/127 119/236/127 106/262/127
f 120/218/128 109/217/128 108/229/128 121/237/128
f 104/214/129 100/213/129 117/263/129 105/264/129
f 126/265/130 98/256/130 97/259/130 127/252/130
f 117/235/131 100/253/131 99/207/131 118/210/131
f 109/266/132 102/247/132 101/220/132 110/267/132
f 111/268/133 104/244/133 103/245/133 112/269/133
f 107/270/134 110/267/134 101/220/134 103/219/134
f 126/241/135 114/250/135 102/216/135 98/215/135
f 125/240/136 127/252/136 97/259/136 99/271/136
