# Blender v2.80 (sub 75) OBJ File: 'coins_8.blend'
# www.blender.org
o Mesh_Composite
v -0.035713 0.014197 0.159546
v -0.036130 0.004206 0.159491
v -0.019361 0.013103 0.234308
v -0.019778 0.003112 0.234253
v 0.045023 0.010187 0.275587
v 0.044606 0.000196 0.275533
v 0.119725 0.007158 0.259205
v 0.119307 -0.002833 0.259150
v 0.160984 0.005789 0.194756
v 0.160567 -0.004202 0.194701
v 0.144632 0.006883 0.119994
v 0.144215 -0.003108 0.119939
v 0.080248 0.009799 0.078714
v 0.079831 -0.000192 0.078659
v 0.005547 0.012828 0.095097
v 0.005129 0.002837 0.095042
v -0.078736 -0.003794 -0.253352
v -0.078275 0.006188 -0.253713
v -0.009354 -0.005836 -0.221106
v -0.008893 0.004146 -0.221467
v 0.016996 -0.004455 -0.149262
v 0.017458 0.005528 -0.149623
v -0.015121 -0.000459 -0.079904
v -0.014659 0.009524 -0.080266
v -0.086891 0.003811 -0.053663
v -0.086429 0.013794 -0.054024
v -0.156273 0.005853 -0.085909
v -0.155812 0.015836 -0.086270
v -0.182624 0.004471 -0.157753
v -0.182162 0.014454 -0.158115
v -0.150507 0.000475 -0.227110
v -0.150045 0.010458 -0.227472
v 0.502186 0.004016 -0.167279
v 0.501387 0.013984 -0.167209
v 0.427672 -0.002074 -0.150896
v 0.426873 0.007893 -0.150826
v 0.363405 -0.006941 -0.192175
v 0.362606 0.003027 -0.192105
v 0.347033 -0.007732 -0.266936
v 0.346234 0.002236 -0.266866
v 0.388145 -0.003985 -0.331384
v 0.387346 0.005983 -0.331315
v 0.462660 0.002106 -0.347767
v 0.461860 0.012073 -0.347698
v 0.526926 0.006972 -0.306488
v 0.526127 0.016940 -0.306418
v 0.543299 0.007763 -0.231727
v 0.542499 0.017731 -0.231657
v 0.405661 -0.003000 -0.573304
v 0.405699 0.006954 -0.572347
v 0.444467 0.003162 -0.638984
v 0.444506 0.013116 -0.638028
v 0.518555 0.004717 -0.658130
v 0.518593 0.014671 -0.657173
v 0.584523 0.000755 -0.619525
v 0.584561 0.010710 -0.618568
v 0.603729 -0.006403 -0.545784
v 0.603767 0.003551 -0.544827
v 0.564922 -0.012565 -0.480103
v 0.564961 -0.002610 -0.479147
v 0.490835 -0.014120 -0.460958
v 0.490874 -0.004166 -0.460001
v 0.424867 -0.010158 -0.499563
v 0.424905 -0.000204 -0.498606
vt 0.104026 0.945273
vt 0.104026 0.947945
vt 0.103358 0.947945
vt 0.103358 0.945273
vt 0.102690 0.947945
vt 0.102690 0.945273
vt 0.102022 0.947945
vt 0.102022 0.945273
vt 0.101354 0.947945
vt 0.101354 0.945273
vt 0.100686 0.947945
vt 0.100686 0.945273
vt 0.100018 0.947945
vt 0.100018 0.945273
vt 0.100925 0.944844
vt 0.100018 0.945219
vt 0.099111 0.944844
vt 0.098735 0.943937
vt 0.099111 0.943030
vt 0.100018 0.942654
vt 0.100925 0.943030
vt 0.101301 0.943937
vt 0.099350 0.947945
vt 0.099350 0.945273
vt 0.098682 0.947945
vt 0.098682 0.945273
vt 0.102690 0.945219
vt 0.103597 0.944844
vt 0.103973 0.943937
vt 0.103597 0.943030
vt 0.102690 0.942654
vt 0.101783 0.943030
vt 0.101408 0.943937
vt 0.101783 0.944844
vt 0.104026 0.945273
vt 0.104026 0.947945
vt 0.103358 0.947945
vt 0.103358 0.945273
vt 0.102690 0.947945
vt 0.102690 0.945273
vt 0.102022 0.947945
vt 0.102022 0.945273
vt 0.101354 0.947945
vt 0.101354 0.945273
vt 0.100686 0.947945
vt 0.100686 0.945273
vt 0.100018 0.947945
vt 0.100018 0.945273
vt 0.100925 0.944844
vt 0.100018 0.945219
vt 0.099111 0.944844
vt 0.098735 0.943937
vt 0.099111 0.943030
vt 0.100018 0.942654
vt 0.100925 0.943030
vt 0.101301 0.943937
vt 0.099350 0.947945
vt 0.099350 0.945273
vt 0.098682 0.947945
vt 0.098682 0.945273
vt 0.102690 0.945219
vt 0.103597 0.944844
vt 0.103973 0.943937
vt 0.103597 0.943030
vt 0.102690 0.942654
vt 0.101783 0.943030
vt 0.101408 0.943937
vt 0.101783 0.944844
vt 0.104026 0.945273
vt 0.104026 0.947945
vt 0.103358 0.947945
vt 0.103358 0.945273
vt 0.102690 0.947945
vt 0.102690 0.945273
vt 0.102022 0.947945
vt 0.102022 0.945273
vt 0.101354 0.947945
vt 0.101354 0.945273
vt 0.100686 0.947945
vt 0.100686 0.945273
vt 0.100018 0.947945
vt 0.100018 0.945273
vt 0.100925 0.944844
vt 0.100018 0.945219
vt 0.099111 0.944844
vt 0.098735 0.943937
vt 0.099111 0.943030
vt 0.100018 0.942654
vt 0.100925 0.943030
vt 0.101301 0.943937
vt 0.099350 0.947945
vt 0.099350 0.945273
vt 0.098682 0.947945
vt 0.098682 0.945273
vt 0.102690 0.945219
vt 0.103597 0.944844
vt 0.103973 0.943937
vt 0.103597 0.943030
vt 0.102690 0.942654
vt 0.101783 0.943030
vt 0.101408 0.943937
vt 0.101783 0.944844
vt 0.104026 0.945273
vt 0.104026 0.947945
vt 0.103358 0.947945
vt 0.103358 0.945273
vt 0.102690 0.947945
vt 0.102690 0.945273
vt 0.102022 0.947945
vt 0.102022 0.945273
vt 0.101354 0.947945
vt 0.101354 0.945273
vt 0.100686 0.947945
vt 0.100686 0.945273
vt 0.100018 0.947945
vt 0.100018 0.945273
vt 0.100925 0.944844
vt 0.100018 0.945219
vt 0.099111 0.944844
vt 0.098735 0.943937
vt 0.099111 0.943030
vt 0.100018 0.942654
vt 0.100925 0.943030
vt 0.101301 0.943937
vt 0.099350 0.947945
vt 0.099350 0.945273
vt 0.098682 0.947945
vt 0.098682 0.945273
vt 0.102690 0.945219
vt 0.103597 0.944844
vt 0.103973 0.943937
vt 0.103597 0.943030
vt 0.102690 0.942654
vt 0.101783 0.943030
vt 0.101408 0.943937
vt 0.101783 0.944844
vn -0.9835 0.0420 -0.1760
vn -0.8200 0.0311 0.5716
vn -0.1761 0.0019 0.9844
vn 0.5709 -0.0283 0.8205
vn 0.9835 -0.0420 0.1760
vn 0.8200 -0.0311 -0.5716
vn 0.1761 -0.0019 -0.9844
vn -0.0417 -0.9991 -0.0055
vn -0.5709 0.0284 -0.8205
vn 0.0417 0.9991 0.0055
vn 0.0408 -0.0380 -0.9984
vn 0.7346 -0.0584 -0.6760
vn 0.9981 -0.0446 0.0425
vn 0.6769 -0.0047 0.7360
vn -0.0408 0.0380 0.9984
vn -0.7346 0.0584 0.6760
vn -0.9981 0.0446 -0.0425
vn 0.0462 0.9983 -0.0361
vn -0.6769 0.0047 -0.7360
vn -0.0462 -0.9983 0.0361
vn 0.5702 0.0400 0.8205
vn -0.1749 -0.0209 0.9844
vn -0.8176 -0.0696 0.5716
vn -0.9813 -0.0775 -0.1760
vn -0.5702 -0.0400 -0.8205
vn 0.1749 0.0209 -0.9844
vn 0.8176 0.0696 -0.5716
vn -0.0799 0.9968 0.0070
vn 0.9813 0.0775 0.1760
vn 0.0799 -0.9968 -0.0070
vn -0.9903 0.0170 -0.1376
vn -0.6023 0.0786 -0.7944
vn 0.1386 0.0942 -0.9859
vn 0.7983 0.0546 -0.5998
vn 0.9903 -0.0170 0.1376
vn 0.6023 -0.0786 0.7944
vn -0.1386 -0.0942 0.9859
vn 0.0038 0.9954 0.0956
vn -0.7983 -0.0546 0.5998
vn -0.0038 -0.9954 -0.0956
s 1
f 1/1/1 2/2/1 4/3/2 3/4/2
f 3/4/2 4/3/2 6/5/3 5/6/3
f 5/6/3 6/5/3 8/7/4 7/8/4
f 7/8/4 8/7/4 10/9/5 9/10/5
f 9/10/5 10/9/5 12/11/6 11/12/6
f 11/12/6 12/11/6 14/13/7 13/14/7
f 4/15/8 2/16/8 16/17/8 14/18/8 12/19/8 10/20/8 8/21/8 6/22/8
f 13/14/7 14/13/7 16/23/9 15/24/9
f 15/24/9 16/23/9 2/25/1 1/26/1
f 1/27/10 3/28/10 5/29/10 7/30/10 9/31/10 11/32/10 13/33/10 15/34/10
f 17/35/11 18/36/11 20/37/12 19/38/12
f 19/38/12 20/37/12 22/39/13 21/40/13
f 21/40/13 22/39/13 24/41/14 23/42/14
f 23/42/14 24/41/14 26/43/15 25/44/15
f 25/44/15 26/43/15 28/45/16 27/46/16
f 27/46/16 28/45/16 30/47/17 29/48/17
f 20/49/18 18/50/18 32/51/18 30/52/18 28/53/18 26/54/18 24/55/18 22/56/18
f 29/48/17 30/47/17 32/57/19 31/58/19
f 31/58/19 32/57/19 18/59/11 17/60/11
f 17/61/20 19/62/20 21/63/20 23/64/20 25/65/20 27/66/20 29/67/20 31/68/20
f 33/69/21 34/70/21 36/71/22 35/72/22
f 35/72/22 36/71/22 38/73/23 37/74/23
f 37/74/23 38/73/23 40/75/24 39/76/24
f 39/76/24 40/75/24 42/77/25 41/78/25
f 41/78/25 42/77/25 44/79/26 43/80/26
f 43/80/26 44/79/26 46/81/27 45/82/27
f 36/83/28 34/84/28 48/85/28 46/86/28 44/87/28 42/88/28 40/89/28 38/90/28
f 45/82/27 46/81/27 48/91/29 47/92/29
f 47/92/29 48/91/29 34/93/21 33/94/21
f 33/95/30 35/96/30 37/97/30 39/98/30 41/99/30 43/100/30 45/101/30 47/102/30
f 49/103/31 50/104/31 52/105/32 51/106/32
f 51/106/32 52/105/32 54/107/33 53/108/33
f 53/108/33 54/107/33 56/109/34 55/110/34
f 55/110/34 56/109/34 58/111/35 57/112/35
f 57/112/35 58/111/35 60/113/36 59/114/36
f 59/114/36 60/113/36 62/115/37 61/116/37
f 52/117/38 50/118/38 64/119/38 62/120/38 60/121/38 58/122/38 56/123/38 54/124/38
f 61/116/37 62/115/37 64/125/39 63/126/39
f 63/126/39 64/125/39 50/127/31 49/128/31
f 49/129/40 51/130/40 53/131/40 55/132/40 57/133/40 59/134/40 61/135/40 63/136/40
