# Blender v2.80 (sub 75) OBJ File: 'dungeon.blend'
# www.blender.org
o Coin_Mesh
v 0.000000 -0.005000 -0.100000
v 0.000000 0.005000 -0.100000
v 0.070711 -0.005000 -0.070711
v 0.070711 0.005000 -0.070711
v 0.100000 -0.005000 0.000000
v 0.100000 0.005000 0.000000
v 0.070711 -0.005000 0.070711
v 0.070711 0.005000 0.070711
v -0.000000 -0.005000 0.100000
v -0.000000 0.005000 0.100000
v -0.070711 -0.005000 0.070711
v -0.070711 0.005000 0.070711
v -0.100000 -0.005000 -0.000000
v -0.100000 0.005000 -0.000000
v -0.070711 -0.005000 -0.070711
v -0.070711 0.005000 -0.070711
vt 0.103178 0.945761
vt 0.103178 0.948433
vt 0.102510 0.948433
vt 0.102510 0.945761
vt 0.101842 0.948433
vt 0.101842 0.945761
vt 0.101174 0.948433
vt 0.101174 0.945761
vt 0.100506 0.948433
vt 0.100506 0.945761
vt 0.099838 0.948433
vt 0.099838 0.945761
vt 0.099170 0.948433
vt 0.099170 0.945761
vt 0.100077 0.945332
vt 0.099170 0.945707
vt 0.098263 0.945332
vt 0.097888 0.944425
vt 0.098263 0.943518
vt 0.099170 0.943142
vt 0.100077 0.943518
vt 0.100453 0.944425
vt 0.098502 0.948433
vt 0.098502 0.945761
vt 0.097834 0.948433
vt 0.097834 0.945761
vt 0.101842 0.945707
vt 0.102749 0.945332
vt 0.103125 0.944425
vt 0.102749 0.943518
vt 0.101842 0.943142
vt 0.100935 0.943518
vt 0.100560 0.944425
vt 0.100935 0.945332
vn -0.0000 0.0000 -1.0000
vn 0.7071 0.0000 -0.7071
vn 1.0000 0.0000 0.0000
vn 0.7071 0.0000 0.7071
vn -0.0000 0.0000 1.0000
vn -0.7071 0.0000 0.7071
vn -1.0000 0.0000 0.0000
vn 0.0000 1.0000 0.0000
vn -0.7071 0.0000 -0.7071
vn 0.0000 -1.0000 0.0000
s 1
f 1/1/1 2/2/1 4/3/2 3/4/2
f 3/4/2 4/3/2 6/5/3 5/6/3
f 5/6/3 6/5/3 8/7/4 7/8/4
f 7/8/4 8/7/4 10/9/5 9/10/5
f 9/10/5 10/9/5 12/11/6 11/12/6
f 11/12/6 12/11/6 14/13/7 13/14/7
f 4/15/8 2/16/8 16/17/8 14/18/8 12/19/8 10/20/8 8/21/8 6/22/8
f 13/14/7 14/13/7 16/23/9 15/24/9
f 15/24/9 16/23/9 2/25/1 1/26/1
f 1/27/10 3/28/10 5/29/10 7/30/10 9/31/10 11/32/10 13/33/10 15/34/10
