# Blender v2.80 (sub 75) OBJ File: 'dungeon.blend'
# www.blender.org
o Cube_Cube.039
v -0.006225 -0.059247 -0.002875
v 0.005847 -0.069388 -0.002875
v 0.011456 -0.066551 -0.000000
v -0.011505 0.080403 0.000000
v -0.008510 -0.054447 0.000000
v -0.007563 -0.034224 0.000000
v -0.004154 -0.011299 0.000000
v 0.000154 0.011627 0.000000
v -0.000233 0.034552 0.000000
v -0.005254 0.057477 0.000000
v 0.012556 -0.034224 -0.000000
v 0.016584 -0.011299 -0.000000
v 0.021192 0.011627 -0.000000
v 0.020126 0.034552 -0.000000
v 0.010506 0.057477 -0.000000
v -0.006225 -0.059247 0.002875
v 0.005847 -0.069388 0.002875
v -0.011994 -0.077927 -0.002875
v -0.011994 -0.077927 0.002875
v 0.001099 -0.082307 -0.002875
v 0.001099 -0.082307 0.002875
v -0.012541 -0.081768 -0.002875
v -0.012541 -0.081768 0.002875
v 0.001020 -0.084356 -0.002875
v 0.001020 -0.084356 0.002875
v -0.012607 -0.085947 -0.002875
v -0.012607 -0.085947 0.002875
v 0.001158 -0.087014 -0.002875
v 0.001158 -0.087014 0.002875
v -0.012234 -0.090527 -0.002875
v -0.012234 -0.090527 0.002875
v 0.001545 -0.089673 -0.002875
v 0.001545 -0.089673 0.002875
v -0.011435 -0.095807 -0.002875
v -0.011435 -0.095807 0.002875
v 0.002175 -0.093489 -0.002875
v 0.002175 -0.093489 0.002875
v -0.008010 -0.108453 -0.002875
v -0.008010 -0.108453 0.002875
v 0.004838 -0.103400 -0.002875
v 0.004838 -0.103400 0.002875
v 0.001515 -0.130329 -0.002875
v 0.001515 -0.130329 0.002875
v 0.013772 -0.123974 -0.002875
v 0.013772 -0.123974 0.002875
v 0.007328 -0.139717 -0.002875
v 0.007328 -0.139717 0.002875
v 0.018561 -0.131691 -0.002875
v 0.018561 -0.131691 0.002875
v 0.002626 0.057477 0.002875
v 0.009947 0.034552 0.002875
v 0.010673 0.011627 0.002875
v 0.006215 -0.011299 0.002875
v 0.002497 -0.034224 0.002875
v 0.002626 0.057477 -0.002875
v 0.009947 0.034552 -0.002875
v 0.010673 0.011627 -0.002875
v 0.006215 -0.011299 -0.002875
v 0.002497 -0.034224 -0.002875
v 0.001473 -0.060499 -0.002875
v 0.001473 -0.060499 0.002875
v 0.018490 -0.129890 0.003246
v 0.018490 -0.129890 -0.003246
v 0.005613 -0.138635 -0.003246
v 0.005613 -0.138635 0.003246
v 0.015365 -0.124857 -0.003246
v 0.001724 -0.132352 -0.003246
v 0.015365 -0.124857 0.003246
v 0.001724 -0.132352 0.003246
v -0.007905 -0.065663 -0.004145
v -0.007465 -0.064682 -0.001848
v -0.007465 -0.064682 0.001848
v -0.007905 -0.065663 0.004145
v 0.005134 -0.070326 -0.001848
v 0.004696 -0.071304 -0.004145
v 0.004696 -0.071304 0.004145
v 0.005134 -0.070326 0.001848
v -0.010722 -0.071951 -0.001848
v -0.010290 -0.070987 -0.004145
v -0.010290 -0.070987 0.004145
v -0.010722 -0.071951 0.001848
v 0.002310 -0.076630 -0.004145
v 0.001878 -0.077595 -0.001848
v 0.001878 -0.077595 0.001848
v 0.002310 -0.076630 0.004145
v -0.026998 -0.057119 -0.002875
v -0.026555 -0.056131 -0.001848
v -0.026555 -0.056131 0.001848
v -0.026998 -0.057119 0.002875
v -0.029811 -0.063401 -0.001848
v -0.029379 -0.062435 -0.002875
v -0.029379 -0.062435 0.002875
v -0.029811 -0.063401 0.001848
v 0.022984 -0.074011 0.002875
v 0.023422 -0.073034 0.001848
v 0.023422 -0.073034 -0.001848
v 0.022984 -0.074011 -0.002875
v 0.020166 -0.080303 0.001848
v 0.020599 -0.079337 0.002875
v 0.020599 -0.079337 -0.002875
v 0.020166 -0.080303 -0.001848
v -0.035664 -0.043601 -0.001848
v -0.036024 -0.044740 -0.002875
v -0.036686 -0.043706 -0.001848
v -0.035664 -0.043601 0.001848
v -0.036686 -0.043706 0.001848
v -0.036024 -0.044740 0.002875
v -0.038978 -0.050909 -0.001848
v -0.039103 -0.049101 -0.001848
v -0.038379 -0.049997 -0.002875
v -0.038978 -0.050909 0.001848
v -0.038379 -0.049997 0.002875
v -0.039103 -0.049101 0.001848
v 0.038790 -0.091445 0.001848
v 0.038214 -0.092393 0.002875
v 0.038971 -0.093215 0.001848
v 0.038790 -0.091445 -0.001848
v 0.038971 -0.093215 -0.001848
v 0.038214 -0.092393 -0.002875
v 0.035502 -0.098738 0.001848
v 0.036554 -0.098610 0.001848
v 0.035886 -0.097590 0.002875
v 0.035502 -0.098738 -0.001848
v 0.035886 -0.097590 -0.002875
v 0.036554 -0.098610 -0.001848
v 0.023270 -0.081443 0.002875
v 0.022602 -0.082225 0.001848
v 0.027091 -0.076967 0.002875
v 0.027774 -0.076167 0.001848
v 0.027774 -0.076167 -0.001848
v 0.027091 -0.076967 -0.002875
v 0.023270 -0.081443 -0.002875
v 0.022602 -0.082225 -0.001848
v -0.032541 -0.061218 0.001848
v -0.031847 -0.060458 0.002875
v -0.032541 -0.061218 -0.001848
v -0.031847 -0.060458 -0.002875
v -0.027829 -0.056058 0.002875
v -0.027170 -0.055336 0.001848
v -0.027170 -0.055336 -0.001848
v -0.027829 -0.056058 -0.002875
vt 0.053252 0.942977
vt 0.053454 0.941489
vt 0.054691 0.941850
vt 0.054515 0.942996
vt 0.057195 0.947449
vt 0.057397 0.948935
vt 0.056133 0.949284
vt 0.055905 0.947455
vt 0.037921 0.945901
vt 0.038347 0.945901
vt 0.038347 0.947108
vt 0.037921 0.947108
vt 0.058609 0.948569
vt 0.058361 0.948853
vt 0.056872 0.949445
vt 0.052209 0.941139
vt 0.052928 0.940979
vt 0.054421 0.941570
vt 0.058609 0.940927
vt 0.057888 0.942235
vt 0.056923 0.942255
vt 0.056066 0.943564
vt 0.054761 0.943571
vt 0.055906 0.942258
vt 0.056039 0.944864
vt 0.054691 0.944871
vt 0.056663 0.946156
vt 0.055334 0.946162
vt 0.054691 0.949499
vt 0.051981 0.948171
vt 0.052979 0.948176
vt 0.052120 0.946867
vt 0.053399 0.946885
vt 0.053967 0.948191
vt 0.052093 0.945566
vt 0.053414 0.945585
vt 0.052719 0.944272
vt 0.054021 0.944291
vt 0.058972 0.941477
vt 0.059334 0.941825
vt 0.058609 0.941825
vt 0.058972 0.940927
vt 0.059334 0.941229
vt 0.058609 0.941229
vt 0.040750 0.946215
vt 0.041419 0.946249
vt 0.041225 0.947762
vt 0.040557 0.947728
vt 0.038906 0.945900
vt 0.039575 0.945866
vt 0.040313 0.947125
vt 0.039644 0.947159
vt 0.039448 0.944868
vt 0.038779 0.944902
vt 0.038586 0.943388
vt 0.039254 0.943354
vt 0.036362 0.947358
vt 0.035937 0.947358
vt 0.035937 0.946794
vt 0.036362 0.946794
vt 0.067682 0.926774
vt 0.069216 0.927707
vt 0.068901 0.928144
vt 0.067242 0.927320
vt 0.041547 0.945250
vt 0.040877 0.945216
vt 0.041616 0.943958
vt 0.042285 0.943992
vt 0.053020 0.940927
vt 0.054592 0.941263
vt 0.038785 0.947973
vt 0.038534 0.947978
vt 0.038364 0.948807
vt 0.037959 0.948807
vt 0.059205 0.941477
vt 0.058739 0.941477
vt 0.041547 0.945250
vt 0.058532 0.949159
vt 0.056964 0.949497
vt 0.038458 0.947991
vt 0.038795 0.947974
vt 0.039228 0.948765
vt 0.038588 0.948800
vt 0.072654 0.933839
vt 0.072108 0.933839
vt 0.071956 0.933238
vt 0.072806 0.933238
vt 0.073504 0.933160
vt 0.072958 0.933160
vt 0.072806 0.932690
vt 0.073656 0.932690
vt 0.059205 0.941890
vt 0.058739 0.941890
vt 0.039671 0.942812
vt 0.038988 0.942846
vt 0.039372 0.942350
vt 0.040031 0.942313
vt 0.037024 0.946794
vt 0.036599 0.946794
vt 0.036599 0.946273
vt 0.037024 0.946273
vt 0.037260 0.945397
vt 0.037685 0.945397
vt 0.037685 0.945826
vt 0.037260 0.945826
vt 0.040959 0.948270
vt 0.041643 0.948304
vt 0.042003 0.948803
vt 0.041344 0.948766
vt 0.041758 0.943148
vt 0.041083 0.943114
vt 0.040595 0.942316
vt 0.041247 0.942351
vt 0.037921 0.945397
vt 0.038347 0.945397
vt 0.038347 0.945826
vt 0.037921 0.945826
vt 0.037366 0.947983
vt 0.038174 0.947992
vt 0.037704 0.948812
vt 0.037269 0.948812
vt 0.071641 0.932583
vt 0.069983 0.933407
vt 0.069738 0.933048
vt 0.071541 0.932385
vt 0.071956 0.933021
vt 0.070423 0.933954
vt 0.037260 0.945901
vt 0.037685 0.945901
vt 0.037685 0.947108
vt 0.037260 0.947108
vt 0.037024 0.948852
vt 0.036599 0.948852
vt 0.036599 0.947358
vt 0.037024 0.947358
vt 0.073656 0.932483
vt 0.072806 0.932483
vt 0.072806 0.932211
vt 0.073656 0.932211
vt 0.071956 0.932850
vt 0.072806 0.932850
vt 0.068800 0.928343
vt 0.066998 0.927680
vt 0.071444 0.932120
vt 0.069547 0.932641
vt 0.069400 0.932181
vt 0.071383 0.931848
vt 0.068704 0.928607
vt 0.066807 0.928087
vt 0.071956 0.932424
vt 0.072806 0.932424
vt 0.072806 0.931953
vt 0.071956 0.931953
vt 0.071956 0.931407
vt 0.072806 0.931407
vt 0.072806 0.931935
vt 0.073656 0.931935
vt 0.068643 0.928879
vt 0.066660 0.928547
vt 0.073656 0.931540
vt 0.072806 0.931540
vt 0.072806 0.930499
vt 0.073656 0.930499
vt 0.068566 0.929272
vt 0.066543 0.929088
vt 0.069283 0.931640
vt 0.071306 0.931456
vt 0.071250 0.930405
vt 0.069216 0.930298
vt 0.069608 0.927868
vt 0.071616 0.928120
vt 0.068510 0.930323
vt 0.066476 0.930430
vt 0.071956 0.930088
vt 0.072806 0.930088
vt 0.041749 0.945838
vt 0.039850 0.945838
vt 0.039850 0.945425
vt 0.041749 0.945425
vt 0.071956 0.927778
vt 0.072806 0.927778
vt 0.072806 0.928297
vt 0.073656 0.928297
vt 0.068876 0.932607
vt 0.066868 0.932859
vt 0.037951 0.945425
vt 0.039850 0.945425
vt 0.039850 0.949151
vt 0.037951 0.949151
vt 0.040983 0.945425
vt 0.040791 0.941707
vt 0.041297 0.941706
vt 0.041598 0.945425
vt 0.035111 0.941707
vt 0.036435 0.945676
vt 0.034304 0.945425
vt 0.034605 0.941706
vt 0.036052 0.945927
vt 0.036052 0.945425
vt 0.051408 0.944264
vt 0.051979 0.942970
vt 0.050763 0.945558
vt 0.050833 0.946859
vt 0.057941 0.946132
vt 0.058434 0.947425
vt 0.057336 0.944840
vt 0.057320 0.943541
vt 0.037613 0.946682
vt 0.036180 0.947794
vt 0.037026 0.941765
vt 0.038571 0.945425
vt 0.038807 0.941708
vt 0.041749 0.947459
vt 0.039850 0.947459
vt 0.041749 0.947876
vt 0.039850 0.947876
vt 0.037951 0.945425
vt 0.038298 0.941709
vt 0.037604 0.941709
vt 0.037951 0.945425
vt 0.037951 0.948405
vt 0.036052 0.948405
vt 0.035937 0.946267
vt 0.036362 0.946267
vt 0.035819 0.946293
vt 0.035937 0.946229
vt 0.036362 0.946229
vt 0.036481 0.946293
vt 0.037024 0.946229
vt 0.037142 0.946254
vt 0.036481 0.946254
vt 0.036599 0.946229
vt 0.038465 0.948826
vt 0.038347 0.948852
vt 0.037921 0.948852
vt 0.037835 0.948826
vt 0.037260 0.948852
vt 0.037142 0.948785
vt 0.037849 0.948786
vt 0.037685 0.948852
vt 0.039571 0.944861
vt 0.039698 0.945860
vt 0.041669 0.945256
vt 0.041542 0.946255
vt 0.036918 0.943702
vt 0.035385 0.942769
vt 0.035385 0.942769
vt 0.036918 0.943702
vt 0.038125 0.949949
vt 0.039659 0.949016
vt 0.039659 0.949016
vt 0.038125 0.949949
vt 0.040436 0.947722
vt 0.040629 0.946209
vt 0.038658 0.944908
vt 0.038465 0.943395
vt 0.039378 0.943348
vt 0.041349 0.947768
vt 0.037142 0.947108
vt 0.037142 0.945919
vt 0.038465 0.945901
vt 0.038465 0.947089
vt 0.037142 0.945864
vt 0.037142 0.945446
vt 0.039393 0.942304
vt 0.040071 0.942270
vt 0.041215 0.948764
vt 0.040841 0.948264
vt 0.038870 0.942852
vt 0.036481 0.946794
vt 0.040162 0.942300
vt 0.039783 0.942806
vt 0.037921 0.945323
vt 0.038347 0.945323
vt 0.038465 0.945365
vt 0.038465 0.945778
vt 0.039260 0.948812
vt 0.038582 0.948846
vt 0.037142 0.947980
vt 0.038465 0.947966
vt 0.039244 0.942353
vt 0.036481 0.946888
vt 0.036481 0.947358
vt 0.036362 0.948852
vt 0.035937 0.948852
vn -0.2716 0.0277 -0.9620
vn 0.1302 0.0971 -0.9867
vn -0.1753 0.0573 -0.9828
vn -0.2717 0.0259 -0.9620
vn 0.2720 -0.0267 0.9619
vn 0.1302 0.0971 0.9867
vn 0.2287 0.0947 0.9689
vn 0.2718 -0.0289 0.9619
vn 0.1465 0.9892 0.0000
vn 0.3761 0.9266 0.0000
vn -0.1753 0.0573 0.9828
vn 0.0744 0.0691 0.9948
vn 0.0227 -0.0020 0.9997
vn 0.2287 0.0947 -0.9689
vn 0.0227 -0.0020 -0.9997
vn 0.0744 0.0691 -0.9948
vn -0.3413 -0.0931 0.9353
vn -0.3247 -0.0881 0.9417
vn -0.3162 -0.0855 0.9448
vn 0.3180 0.2363 0.9182
vn 0.2866 0.0659 0.9558
vn 0.2824 0.0533 0.9578
vn 0.3104 0.1741 0.9345
vn 0.2664 -0.0224 0.9636
vn 0.2666 -0.0194 0.9636
vn 0.2682 -0.0487 0.9621
vn 0.2676 -0.0495 0.9623
vn 0.3256 0.3126 -0.8923
vn 0.3104 0.1741 -0.9345
vn 0.3180 0.2363 -0.9182
vn -0.3162 -0.0855 -0.9448
vn -0.2833 -0.0397 -0.9582
vn -0.2865 -0.0465 -0.9570
vn -0.3247 -0.0881 -0.9417
vn -0.2666 0.0206 -0.9636
vn -0.2664 0.0235 -0.9636
vn -0.2676 0.0468 -0.9624
vn -0.2682 0.0459 -0.9623
vn 0.4513 -0.8924 -0.0000
vn 0.6142 -0.7891 -0.0000
vn -0.9029 -0.4297 0.0000
vn -0.9978 -0.0657 0.0000
vn -0.0277 0.0124 0.9995
vn -0.0240 0.0107 0.9997
vn -0.0301 0.0135 0.9995
vn 0.0294 -0.0132 -0.9995
vn 0.0351 -0.0157 -0.9993
vn 0.0316 -0.0142 -0.9994
vn 0.0327 -0.0147 -0.9994
vn -0.0277 0.0124 -0.9995
vn -0.0301 0.0135 -0.9995
vn -0.0240 0.0108 -0.9997
vn 0.6186 0.7857 0.0000
vn 0.8007 0.5991 0.0000
vn -0.7383 0.2764 -0.6152
vn 0.7249 0.0111 -0.6887
vn 0.6797 -0.0075 -0.7335
vn -0.6665 0.1917 -0.7205
vn 0.0351 -0.0157 0.9993
vn 0.0294 -0.0132 0.9995
vn 0.0327 -0.0147 0.9994
vn 0.0316 -0.0142 0.9994
vn -0.1642 -0.2566 -0.9525
vn 0.7069 0.7073 0.0000
vn 0.8111 0.5849 0.0000
vn -0.9749 0.2225 0.0000
vn -0.1642 -0.2566 0.9525
vn -0.0000 0.0000 -1.0000
vn -0.7383 0.2764 0.6152
vn -0.6665 0.1917 0.7205
vn 0.7249 0.0111 0.6887
vn 0.6797 -0.0075 0.7335
vn 0.7963 -0.6050 -0.0000
vn -0.7470 -0.6648 0.0000
vn -0.8482 -0.5297 0.0000
vn -0.9126 0.4088 -0.0000
vn 0.0000 -0.0000 1.0000
vn 0.9126 -0.4088 0.0000
vn -0.7088 -0.7054 0.0000
vn -0.7880 -0.6156 0.0000
vn -0.7185 0.0566 0.6933
vn 0.6967 0.0047 0.7173
vn -0.1465 -0.9892 0.0000
vn -0.3963 -0.9181 0.0000
vn -0.4088 -0.9126 0.0000
vn -0.5208 -0.8537 0.0000
vn 0.6967 0.0047 -0.7173
vn 0.6929 0.0683 0.7177
vn 0.6929 0.0683 -0.7177
vn -0.7185 0.0566 -0.6933
vn -0.7173 -0.0235 0.6963
vn -0.7099 -0.0826 0.6994
vn 0.6966 0.1083 0.7092
vn -0.7173 -0.0235 -0.6963
vn -0.7099 -0.0826 -0.6994
vn -0.7041 -0.1481 -0.6945
vn -0.7041 -0.1481 0.6945
vn 0.6966 0.1083 -0.7092
vn 0.6799 0.1471 -0.7184
vn 0.6799 0.1471 0.7184
vn 0.6512 0.2275 0.7240
vn 0.6512 0.2275 -0.7240
vn -0.6820 -0.2394 0.6910
vn -0.6624 -0.2884 0.6914
vn 0.6346 0.2756 0.7221
vn -0.6820 -0.2394 -0.6910
vn 0.8279 -0.0700 -0.5565
vn 0.8279 -0.0700 0.5565
vn 0.6938 -0.1042 0.7126
vn 0.6938 -0.1042 -0.7126
vn -0.6624 -0.2884 -0.6914
vn 0.6346 0.2756 -0.7221
vn 0.5814 -0.8136 0.0000
vn -0.3175 -0.7312 -0.6037
vn -0.2552 -0.6685 -0.6986
vn -0.3175 -0.7312 0.6037
vn -0.2552 -0.6685 0.6986
vn 0.2676 -0.0495 -0.9623
vn 0.2718 -0.0289 -0.9619
vn 0.2720 -0.0267 -0.9619
vn 0.2682 -0.0487 -0.9621
vn 0.2666 -0.0194 -0.9636
vn 0.2664 -0.0224 -0.9636
vn 0.2824 0.0533 -0.9578
vn 0.2866 0.0659 -0.9558
vn -0.2682 0.0459 0.9623
vn -0.2717 0.0259 0.9620
vn -0.2716 0.0277 0.9620
vn -0.2676 0.0468 0.9624
vn -0.2664 0.0235 0.9636
vn -0.2666 0.0206 0.9636
vn -0.2865 -0.0465 0.9570
vn -0.2833 -0.0397 0.9582
vn -0.3413 -0.0931 -0.9353
vn 0.3256 0.3126 0.8923
vn -0.6112 -0.3784 0.6951
vn -0.6112 -0.3784 -0.6951
vn -0.6094 -0.3772 -0.6974
vn -0.6094 -0.3772 0.6974
vn 0.5907 0.3667 0.7188
vn 0.5930 0.3681 0.7162
vn 0.5907 0.3667 -0.7188
vn 0.5930 0.3681 -0.7162
vn 0.2194 0.6650 -0.7139
vn 0.2194 0.6650 0.7139
vn 0.3119 0.7718 0.5541
vn 0.3119 0.7718 -0.5541
vn -0.7129 0.0679 -0.6980
vn -0.7929 0.0414 -0.6079
vn -0.7129 0.0679 0.6980
vn -0.7929 0.0414 0.6079
vn 0.8101 0.5864 0.0000
vn 0.1196 0.8594 -0.4972
vn -0.0348 0.5001 -0.8652
vn -0.2925 0.8118 -0.5054
vn 0.1196 0.8593 0.4972
vn -0.2925 0.8118 0.5054
vn -0.0348 0.5001 0.8653
vn -0.8667 -0.2168 -0.4493
vn -0.8837 0.0974 -0.4577
vn -0.7330 -0.0556 -0.6780
vn -0.8667 -0.2168 0.4493
vn -0.7330 -0.0556 0.6780
vn -0.8837 0.0974 0.4577
vn 0.8533 0.2523 0.4563
vn 0.7208 0.0744 0.6891
vn 0.8861 -0.0748 0.4574
vn 0.8533 0.2523 -0.4563
vn 0.8861 -0.0748 -0.4574
vn 0.7208 0.0744 -0.6891
vn -0.1027 -0.8584 0.5027
vn 0.3055 -0.8073 0.5049
vn 0.0565 -0.5007 0.8638
vn -0.1027 -0.8584 -0.5027
vn 0.0565 -0.5007 -0.8638
vn 0.3055 -0.8073 -0.5049
vn 0.2651 0.8379 -0.4771
vn 0.3501 0.8019 -0.4842
vn 0.3497 0.8014 -0.4853
vn 0.2542 0.8384 -0.4822
vn 0.3501 0.8019 0.4842
vn 0.2651 0.8379 0.4771
vn 0.2542 0.8384 0.4822
vn 0.3497 0.8014 0.4853
vn -0.2468 -0.8464 -0.4719
vn -0.3664 -0.7981 -0.4784
vn -0.3665 -0.7987 -0.4773
vn -0.2397 -0.8469 -0.4747
vn -0.3664 -0.7981 0.4784
vn -0.2468 -0.8464 0.4719
vn -0.2397 -0.8469 0.4747
vn -0.3665 -0.7987 0.4773
vn -0.4068 -0.6602 0.6314
vn -0.4025 -0.6711 0.6226
vn -0.4068 -0.6602 -0.6314
vn -0.4025 -0.6711 -0.6226
vn 0.4453 0.6474 -0.6186
vn 0.4755 0.6084 -0.6354
vn 0.4453 0.6474 0.6186
vn 0.4755 0.6084 0.6354
vn 0.2843 0.7157 -0.6379
vn 0.2780 0.7220 -0.6336
vn -0.2798 -0.7230 -0.6316
vn -0.2790 -0.7238 -0.6311
vn -0.2798 -0.7230 0.6316
vn -0.2790 -0.7238 0.6311
vn 0.2843 0.7157 0.6379
vn 0.2780 0.7220 0.6336
vn -0.5337 -0.4664 0.7054
vn -0.5258 -0.4745 0.7060
vn -0.5337 -0.4664 -0.7054
vn -0.5258 -0.4745 -0.7060
vn 0.5850 0.4380 0.6826
vn 0.5837 0.4396 0.6827
vn 0.5837 0.4396 -0.6827
vn 0.5850 0.4380 -0.6826
vn -0.5040 -0.4970 0.7064
vn -0.4994 -0.5012 0.7067
vn 0.4919 0.4973 0.7146
vn 0.4978 0.4918 0.7143
vn 0.4978 0.4918 -0.7143
vn 0.4919 0.4973 -0.7146
vn -0.5040 -0.4970 -0.7064
vn -0.4994 -0.5012 -0.7067
vn 0.4088 0.9126 0.0000
s 1
f 59/1/1 60/2/2 5/3/3 6/4/4
f 54/5/5 61/6/6 3/7/7 11/8/8
f 74/9/9 77/10/9 95/11/10 96/12/10
f 3/7/7 61/6/6 5/13/11 16/14/12 17/15/13
f 5/3/3 60/2/2 3/16/14 2/17/15 1/18/16
f 4/19/17 10/20/18 50/21/19
f 50/21/20 51/22/21 14/23/22 15/24/23
f 51/22/21 52/25/24 13/26/25 14/23/22
f 52/25/24 53/27/26 12/28/27 13/26/25
f 53/27/26 54/5/5 11/8/8 12/28/27
f 4/29/28 15/30/29 55/31/30
f 55/31/31 56/32/32 9/33/33 10/34/34
f 56/32/32 57/35/35 8/36/36 9/33/33
f 57/35/35 58/37/37 7/38/38 8/36/36
f 58/37/37 59/1/1 6/4/4 7/38/38
f 3/39/39 17/40/40 2/41/40
f 5/42/41 1/43/42 16/44/42
f 80/45/43 73/46/43 89/47/44 92/48/45
f 82/49/46 75/50/47 97/51/48 100/52/49
f 70/53/50 75/50/47 82/49/46 79/54/50
f 70/53/50 79/54/50 91/55/51 86/56/52
f 88/57/53 87/58/53 140/59/54 139/60/54
f 78/61/55 83/62/56 20/63/57 18/64/58
f 76/65/59 85/66/60 99/67/61 94/68/62
f 1/18/16 2/17/15 74/69/63 71/70/63
f 130/71/64 129/72/64 114/73/65 117/74/65
f 16/44/42 1/43/42 71/75/66 72/76/66
f 76/77/59 73/46/43 80/45/43 85/66/60
f 17/15/13 16/14/12 72/78/67 77/79/67
f 132/80/68 131/81/68 119/82/68 124/83/68
f 81/84/69 78/85/55 18/86/58 19/87/70
f 83/88/56 84/89/71 21/90/72 20/91/57
f 2/41/40 17/40/40 77/92/73 74/93/73
f 141/94/68 137/95/68 110/96/68 103/97/68
f 136/98/74 134/99/74 111/100/75 108/101/75
f 106/102/76 104/103/76 109/104/76 113/105/76
f 135/106/77 138/107/77 107/108/77 112/109/77
f 128/110/77 126/111/77 122/112/77 115/113/77
f 118/114/78 116/115/78 121/116/78 125/117/78
f 127/118/79 133/119/79 123/120/80 120/121/80
f 21/122/72 19/123/70 23/124/81 25/125/82
f 84/126/71 81/127/69 19/123/70 21/122/72
f 84/128/83 83/129/83 101/130/84 98/131/84
f 78/132/85 81/133/85 93/134/86 90/135/86
f 24/136/87 25/137/82 29/138/88 28/139/89
f 19/87/70 18/86/58 22/140/90 23/141/81
f 20/91/57 21/90/72 25/137/82 24/136/87
f 18/64/58 20/63/57 24/142/87 22/143/90
f 29/144/88 27/145/91 31/146/92 33/147/93
f 22/143/90 24/142/87 28/148/89 26/149/94
f 25/125/82 23/124/81 27/145/91 29/144/88
f 23/141/81 22/140/90 26/150/94 27/151/91
f 31/152/92 30/153/95 34/154/96 35/155/97
f 27/151/91 26/150/94 30/153/95 31/152/92
f 28/139/89 29/138/88 33/156/93 32/157/98
f 26/149/94 28/148/89 32/158/98 30/159/95
f 36/160/99 37/161/100 41/162/101 40/163/102
f 32/157/98 33/156/93 37/161/100 36/160/99
f 30/159/95 32/158/98 36/164/99 34/165/96
f 33/147/93 31/146/92 35/166/97 37/167/100
f 41/168/101 39/169/103 43/170/104 45/171/105
f 34/165/96 36/164/99 40/172/102 38/173/106
f 37/167/100 35/166/97 39/169/103 41/168/101
f 35/155/97 34/154/96 38/174/106 39/175/103
f 63/176/107 62/177/108 49/178/109 48/179/110
f 39/175/103 38/174/106 42/180/111 43/181/104
f 40/163/102 41/162/101 45/182/105 44/183/112
f 38/173/106 40/172/102 44/184/112 42/185/111
f 47/186/113 46/187/113 48/188/113 49/189/113
f 64/190/114 63/191/107 48/192/110 46/193/115
f 62/194/108 65/195/116 47/196/117 49/197/109
f 65/195/116 64/198/114 46/199/115 47/186/117
f 12/200/118 11/201/119 59/1/120 58/37/121
f 13/202/122 12/200/118 58/37/121 57/35/123
f 14/203/124 13/202/122 57/35/123 56/32/125
f 15/30/29 14/203/124 56/32/125 55/31/30
f 7/204/126 6/205/127 54/5/128 53/27/129
f 8/206/130 7/204/126 53/27/129 52/25/131
f 9/207/132 8/206/130 52/25/131 51/22/133
f 10/20/18 9/207/132 51/22/133 50/21/19
f 6/205/127 5/13/11 61/6/6 54/5/128
f 11/201/119 3/16/14 60/2/2 59/1/120
f 10/34/34 4/29/134 55/31/31
f 15/24/23 4/19/135 50/21/20
f 69/208/136 67/209/137 64/198/138 65/195/139
f 68/210/140 69/208/136 65/195/139 62/194/141
f 67/211/137 66/212/142 63/191/143 64/190/138
f 66/213/142 68/214/140 62/177/141 63/176/143
f 44/215/144 45/216/145 68/214/146 66/213/147
f 42/217/148 44/218/144 66/212/147 67/211/149
f 45/219/145 43/220/150 69/208/151 68/210/146
f 43/221/150 42/222/148 67/209/149 69/208/151
f 139/60/54 140/59/54 102/223/152 105/224/152
f 98/131/84 101/130/84 133/119/79 127/118/79
f 94/68/62 99/67/61 126/111/77 128/110/77
f 100/52/49 97/51/48 131/81/68 132/80/68
f 92/48/45 89/47/44 138/107/77 135/106/77
f 86/56/52 91/55/51 137/95/68 141/94/68
f 90/135/86 93/134/86 134/99/74 136/98/74
f 96/12/10 95/11/10 129/72/64 130/71/64
f 102/223/153 103/225/154 104/226/155
f 105/224/156 106/227/157 107/228/158
f 108/101/159 109/229/160 110/230/161
f 111/100/162 112/231/163 113/232/164
f 114/73/165 115/233/166 116/234/167
f 117/74/168 118/235/169 119/236/170
f 120/121/171 121/237/172 122/238/173
f 123/120/174 124/239/175 125/240/176
f 75/50/177 70/53/178 71/241/179 74/242/180
f 73/46/181 76/77/182 77/243/183 72/244/184
f 83/245/185 78/246/186 79/247/187 82/248/188
f 81/249/189 84/250/190 85/251/191 80/252/192
f 80/45/192 92/48/193 93/253/194 81/254/189
f 91/55/195 79/54/187 78/255/186 90/256/196
f 70/53/178 86/56/197 87/257/198 71/241/179
f 89/47/199 73/46/181 72/244/184 88/258/200
f 74/9/180 96/12/201 97/51/202 75/50/177
f 101/130/203 83/129/185 82/49/188 100/52/204
f 84/128/190 98/131/205 99/259/206 85/260/191
f 95/11/207 77/10/183 76/261/182 94/262/208
f 104/103/155 106/102/157 105/224/156 102/223/153
f 108/101/159 111/100/162 113/105/164 109/104/160
f 106/102/157 113/105/164 112/263/163 107/264/158
f 103/97/154 110/96/161 109/265/160 104/266/155
f 135/106/209 112/109/163 111/267/162 134/268/210
f 137/95/211 91/55/195 90/256/196 136/269/212
f 139/60/213 105/224/156 107/228/158 138/270/214
f 141/94/215 103/97/154 102/271/153 140/272/216
f 116/115/167 118/114/169 117/273/168 114/274/165
f 120/121/171 123/120/174 125/240/176 121/237/172
f 121/116/172 116/115/167 115/275/166 122/276/173
f 124/83/175 119/82/170 118/277/169 125/278/176
f 127/118/217 120/121/171 122/238/173 126/279/218
f 129/72/219 95/11/207 94/262/208 128/280/220
f 131/81/221 97/51/202 96/12/201 130/71/222
f 133/119/223 101/130/203 100/52/204 132/80/224
f 98/131/205 127/118/217 126/279/218 99/259/206
f 114/73/165 129/72/219 128/280/220 115/233/166
f 119/82/170 131/81/221 130/71/222 117/74/168
f 123/120/174 133/119/223 132/80/224 124/83/175
f 92/48/193 135/106/209 134/268/210 93/253/194
f 110/96/161 137/95/211 136/269/212 108/281/159
f 88/57/200 139/60/213 138/282/214 89/283/199
f 86/56/197 141/94/215 140/272/216 87/257/198
f 72/284/225 71/285/225 87/58/53 88/57/53
