# Blender v2.80 (sub 75) OBJ File: 'dungeon.blend'
# www.blender.org
o Plane
v 0.489774 -0.009662 0.480233
v -0.492889 -0.009451 0.125000
v -0.492889 -0.009451 -0.125000
v -0.492889 -0.009451 -0.369275
v 0.492889 -0.009451 -0.250000
v 0.492889 -0.009451 -0.000000
v 0.492889 -0.009451 0.250000
v -0.375000 -0.009451 -0.492823
v -0.250000 -0.009451 -0.492823
v -0.125000 -0.009451 -0.492823
v -0.000000 -0.009451 -0.492823
v 0.125000 -0.009451 -0.492823
v 0.250000 -0.009451 -0.492823
v 0.375000 -0.009451 0.492823
v 0.250000 -0.009451 0.492823
v 0.125000 -0.009451 0.492823
v -0.000000 -0.009451 0.492823
v -0.125000 -0.009451 0.492823
v -0.250000 -0.009451 0.492823
v -0.375000 -0.009451 0.492823
v 0.255472 -0.009135 -0.374944
v 0.119528 -0.009135 -0.374944
v 0.005472 -0.009135 -0.374944
v -0.130472 -0.009135 -0.374944
v -0.244528 -0.009135 -0.374944
v -0.380472 -0.009135 -0.374944
v 0.380472 -0.009135 -0.250000
v 0.244528 -0.009135 -0.250000
v 0.130472 -0.009135 -0.250000
v -0.005472 -0.009135 -0.250000
v -0.119528 -0.009135 -0.250000
v -0.255472 -0.009135 -0.250000
v -0.369528 -0.009135 -0.250000
v 0.369528 -0.009135 -0.125000
v 0.255472 -0.009135 -0.125000
v 0.119528 -0.009135 -0.125000
v 0.005472 -0.009135 -0.125000
v -0.130472 -0.009135 -0.125000
v -0.244528 -0.009135 -0.125000
v -0.380472 -0.009135 -0.125000
v 0.380472 -0.009135 -0.000000
v 0.244528 -0.009135 -0.000000
v 0.130472 -0.009135 -0.000000
v -0.005472 -0.009135 -0.000000
v -0.119528 -0.009135 -0.000000
v -0.255472 -0.009135 -0.000000
v -0.369528 -0.009135 -0.000000
v 0.369528 -0.009135 0.125000
v 0.255472 -0.009135 0.125000
v 0.119528 -0.009135 0.125000
v 0.005472 -0.009135 0.125000
v -0.130472 -0.009135 0.125000
v -0.244528 -0.009135 0.125000
v -0.380472 -0.009135 0.125000
v 0.380472 -0.009135 0.250000
v 0.244528 -0.009135 0.250000
v 0.130472 -0.009135 0.250000
v -0.005472 -0.009135 0.250000
v -0.119528 -0.009135 0.250000
v -0.255472 -0.009135 0.250000
v -0.369528 -0.009135 0.250000
v 0.369528 -0.009135 0.374944
v 0.255472 -0.009135 0.374944
v 0.119528 -0.009135 0.374944
v 0.005472 -0.009135 0.374944
v -0.130472 -0.009135 0.374944
v -0.244528 -0.009135 0.374944
v -0.380472 -0.009135 0.374944
v 0.236280 0.011715 0.375000
v 0.223378 0.008515 0.469642
v 0.151622 0.005634 0.469642
v 0.138720 0.003861 0.375000
v 0.151622 0.006838 0.280358
v 0.223378 0.004839 0.280358
v 0.151622 0.009819 -0.469642
v 0.223378 0.004884 -0.469642
v 0.236280 0.013346 -0.375000
v 0.223378 0.012262 -0.280358
v 0.151622 0.013089 -0.280358
v 0.138720 0.007481 -0.375000
v 0.151622 -0.001432 -0.219642
v 0.223378 -0.003024 -0.219642
v 0.236280 0.001151 -0.125000
v 0.223378 0.002796 -0.030358
v 0.151622 -0.002376 -0.030358
v 0.138720 0.002222 -0.125000
v 0.151622 0.013215 0.030358
v 0.223378 0.011754 0.030358
v 0.236280 0.011151 0.125000
v 0.223378 0.012352 0.219642
v 0.151622 0.005008 0.219642
v 0.138720 0.012774 0.125000
v 0.401622 0.014108 0.281187
v 0.472661 0.008889 0.295946
v 0.472661 0.008739 0.454054
v 0.401622 0.005019 0.468813
v 0.388720 0.008309 0.375000
v -0.263720 0.013129 0.375000
v -0.276622 0.004016 0.469642
v -0.348378 0.007450 0.469642
v -0.361280 0.012958 0.375000
v -0.348378 0.007831 0.280358
v -0.276622 0.013924 0.280358
v -0.223378 -0.003872 0.155358
v -0.151622 -0.000097 0.155358
v -0.138720 -0.004016 0.250000
v -0.151622 0.005168 0.344642
v -0.223378 0.001091 0.344642
v -0.236280 -0.000980 0.250000
v -0.013720 0.004838 0.375000
v -0.026622 0.006266 0.469642
v -0.098378 0.008883 0.469642
v -0.111280 0.012937 0.375000
v -0.098378 0.005471 0.280358
v -0.026622 0.013777 0.280358
v 0.026622 0.014089 0.155358
v 0.098378 0.007217 0.155358
v 0.111280 0.005047 0.250000
v 0.098378 0.012738 0.344642
v 0.026622 0.010400 0.344642
v 0.013720 0.011778 0.250000
v -0.348378 0.010691 0.030358
v -0.276622 0.004895 0.030358
v -0.263720 0.010044 0.125000
v -0.276622 0.005070 0.219642
v -0.348378 0.012522 0.219642
v -0.361280 0.006574 0.125000
v -0.223378 0.011713 -0.094642
v -0.151622 0.010842 -0.094642
v -0.138720 0.006506 0.000000
v -0.151622 0.005359 0.094642
v -0.223378 0.007698 0.094642
v -0.236280 0.006011 0.000000
v 0.276622 0.009460 -0.094642
v 0.348378 0.009736 -0.094642
v 0.361280 0.006553 0.000000
v 0.348378 0.011701 0.094642
v 0.276622 0.008210 0.094642
v 0.263720 0.004192 0.000000
v -0.098378 0.004693 -0.219642
v -0.026622 0.006123 -0.219642
v -0.013720 0.010768 -0.125000
v -0.026622 0.010376 -0.030358
v -0.098378 0.005254 -0.030358
v -0.111280 0.010420 -0.125000
v -0.472661 0.005864 -0.079054
v -0.401622 0.004591 -0.093813
v -0.388720 0.010353 0.000000
v -0.401622 0.010277 0.093813
v -0.472661 0.008529 0.079054
v 0.472661 0.004440 -0.204054
v 0.472661 0.007717 -0.045946
v 0.401622 0.008388 -0.031187
v 0.388720 0.012067 -0.125000
v 0.401622 0.010675 -0.218813
v -0.223378 0.006712 -0.344642
v -0.151622 0.006593 -0.344642
v -0.138720 0.008071 -0.250000
v -0.151622 0.006646 -0.155358
v -0.223378 0.008730 -0.155358
v -0.236280 0.012539 -0.250000
v 0.026622 0.005545 -0.344642
v 0.098378 0.011406 -0.344642
v 0.111280 0.003946 -0.250000
v 0.098378 0.005227 -0.155358
v 0.026622 0.004635 -0.155358
v 0.013720 0.012882 -0.250000
v -0.348378 0.007051 -0.469642
v -0.276622 0.007805 -0.469642
v -0.263720 0.005849 -0.375000
v -0.276622 0.007865 -0.280358
v -0.348378 0.010103 -0.280358
v -0.361280 0.006155 -0.375000
v -0.098378 0.009223 -0.469642
v -0.026622 0.009659 -0.469642
v -0.013720 0.007832 -0.375000
v -0.026622 0.005774 -0.280358
v -0.098378 0.009805 -0.280358
v -0.111280 0.006301 -0.375000
v -0.472661 0.011754 -0.329054
v -0.401622 0.005783 -0.343813
v -0.388720 0.007966 -0.250000
v -0.401622 0.012549 -0.156187
v -0.472661 0.011751 -0.170946
vt 0.024971 0.979664
vt 0.024971 0.978985
vt 0.024384 0.978985
vt 0.024384 0.979664
vt 0.024384 0.980342
vt 0.024971 0.980342
vt 0.007697 0.974061
vt 0.007697 0.974739
vt 0.007697 0.975417
vt 0.008284 0.975417
vt 0.008284 0.974739
vt 0.008284 0.974061
vt 0.007697 0.975600
vt 0.007697 0.976278
vt 0.007697 0.976956
vt 0.008284 0.976956
vt 0.008284 0.976278
vt 0.008284 0.975600
vt 0.007697 0.977139
vt 0.007697 0.977817
vt 0.007697 0.978495
vt 0.008284 0.978495
vt 0.008284 0.977817
vt 0.008284 0.977139
vt 0.009236 0.978678
vt 0.009236 0.979356
vt 0.009236 0.980034
vt 0.009823 0.980034
vt 0.009823 0.978678
vt 0.005206 0.979356
vt 0.005206 0.978678
vt 0.004619 0.978678
vt 0.004619 0.979356
vt 0.004619 0.980034
vt 0.005206 0.980034
vt 0.005388 0.977908
vt 0.005388 0.978587
vt 0.005388 0.979265
vt 0.005976 0.979265
vt 0.005976 0.978587
vt 0.005976 0.977908
vt 0.023432 0.979664
vt 0.023432 0.978985
vt 0.022845 0.978985
vt 0.022845 0.979664
vt 0.022845 0.980342
vt 0.023432 0.980342
vt 0.006927 0.977908
vt 0.006927 0.978587
vt 0.006927 0.979265
vt 0.007514 0.979265
vt 0.007514 0.978587
vt 0.007514 0.977908
vt 0.004619 0.977139
vt 0.004619 0.977817
vt 0.004619 0.978495
vt 0.005206 0.978495
vt 0.005206 0.977817
vt 0.005206 0.977139
vt 0.022076 0.976677
vt 0.022076 0.977355
vt 0.022076 0.978034
vt 0.022663 0.978034
vt 0.022663 0.977355
vt 0.022663 0.976677
vt 0.025154 0.976677
vt 0.025154 0.977355
vt 0.025154 0.978034
vt 0.025741 0.978034
vt 0.025741 0.977355
vt 0.025741 0.976677
vt 0.006158 0.975600
vt 0.006158 0.976278
vt 0.006158 0.976956
vt 0.006745 0.976956
vt 0.006745 0.976278
vt 0.006745 0.975600
vt 0.003849 0.976369
vt 0.003849 0.977726
vt 0.004437 0.977726
vt 0.004437 0.977048
vt 0.004437 0.976369
vt 0.009823 0.975600
vt 0.009236 0.975600
vt 0.009236 0.976278
vt 0.009236 0.976956
vt 0.009823 0.976956
vt 0.005388 0.974830
vt 0.005388 0.975509
vt 0.005388 0.976187
vt 0.005976 0.976187
vt 0.005976 0.975509
vt 0.005976 0.974830
vt 0.023615 0.975138
vt 0.023615 0.975816
vt 0.023615 0.976495
vt 0.024202 0.976495
vt 0.024202 0.975816
vt 0.024202 0.975138
vt 0.004619 0.974061
vt 0.004619 0.974739
vt 0.004619 0.975417
vt 0.005206 0.975417
vt 0.005206 0.974739
vt 0.005206 0.974061
vt 0.006158 0.974061
vt 0.006158 0.974739
vt 0.006158 0.975417
vt 0.006745 0.975417
vt 0.006745 0.974739
vt 0.006745 0.974061
vt 0.020537 0.975138
vt 0.020537 0.976495
vt 0.021124 0.976495
vt 0.021124 0.975816
vt 0.021124 0.975138
vt 0.025062 0.979664
vt 0.025062 0.980433
vt 0.024293 0.980433
vt 0.024293 0.979664
vt 0.024293 0.978894
vt 0.025062 0.978894
vt 0.007606 0.973970
vt 0.008375 0.973970
vt 0.008375 0.974739
vt 0.008375 0.975509
vt 0.007606 0.975509
vt 0.007606 0.974739
vt 0.008375 0.976278
vt 0.008375 0.977048
vt 0.007606 0.977048
vt 0.007606 0.976278
vt 0.008375 0.977817
vt 0.008375 0.978587
vt 0.007606 0.978587
vt 0.007606 0.977817
vt 0.009145 0.978587
vt 0.009914 0.978587
vt 0.009914 0.980126
vt 0.009145 0.980126
vt 0.009145 0.979356
vt 0.005297 0.979356
vt 0.005297 0.980126
vt 0.004528 0.980126
vt 0.004528 0.979356
vt 0.004528 0.978587
vt 0.005297 0.978587
vt 0.005297 0.977817
vt 0.006067 0.977817
vt 0.006067 0.978587
vt 0.006067 0.979356
vt 0.023523 0.979664
vt 0.023523 0.980433
vt 0.022754 0.980433
vt 0.022754 0.979664
vt 0.022754 0.978894
vt 0.023523 0.978894
vt 0.006836 0.977817
vt 0.007606 0.979356
vt 0.006836 0.979356
vt 0.006836 0.978587
vt 0.004528 0.977048
vt 0.005297 0.977048
vt 0.004528 0.977817
vt 0.021984 0.976586
vt 0.022754 0.976586
vt 0.022754 0.977355
vt 0.022754 0.978125
vt 0.021984 0.978125
vt 0.021984 0.977355
vt 0.025062 0.976586
vt 0.025832 0.976586
vt 0.025832 0.977355
vt 0.025832 0.978125
vt 0.025062 0.978125
vt 0.025062 0.977355
vt 0.006067 0.975509
vt 0.006836 0.975509
vt 0.006836 0.976278
vt 0.006836 0.977048
vt 0.006067 0.977048
vt 0.006067 0.976278
vt 0.003758 0.976278
vt 0.004528 0.976278
vt 0.003758 0.977817
vt 0.009914 0.975509
vt 0.009914 0.977048
vt 0.009145 0.977048
vt 0.009145 0.976278
vt 0.009145 0.975509
vt 0.005297 0.974739
vt 0.006067 0.974739
vt 0.005297 0.976278
vt 0.005297 0.975509
vt 0.023523 0.975047
vt 0.024293 0.975047
vt 0.024293 0.975816
vt 0.024293 0.976586
vt 0.023523 0.976586
vt 0.023523 0.975816
vt 0.004528 0.973970
vt 0.005297 0.973970
vt 0.004528 0.975509
vt 0.004528 0.974739
vt 0.006067 0.973970
vt 0.006836 0.973970
vt 0.006836 0.974739
vt 0.020445 0.975047
vt 0.021215 0.975047
vt 0.021215 0.975816
vt 0.021215 0.976586
vt 0.020445 0.976586
vn -0.0489 0.9988 -0.0065
vn -0.0176 0.9994 -0.0281
vn -0.0042 0.9999 -0.0129
vn -0.0078 0.9998 0.0201
vn 0.0009 0.9996 0.0287
vn -0.0089 0.9996 0.0272
vn -0.0053 0.9996 -0.0270
vn 0.0310 0.9995 0.0108
vn 0.0531 0.9986 -0.0048
vn 0.0186 0.9998 -0.0053
vn 0.0066 0.9997 0.0251
vn -0.0251 0.9997 -0.0019
vn -0.0214 0.9997 -0.0127
vn -0.0233 0.9994 -0.0247
vn 0.0618 0.9981 -0.0015
vn 0.0329 0.9994 -0.0055
vn 0.0337 0.9993 0.0187
vn 0.0062 0.9999 -0.0082
vn 0.0016 1.0000 0.0087
vn 0.0414 0.9989 -0.0210
vn 0.6251 0.7777 0.0669
vn -0.0119 0.8142 0.5804
vn -0.5082 0.8604 0.0380
vn -0.5578 0.8285 -0.0493
vn 0.0096 0.8968 -0.4423
vn 0.6106 0.7867 -0.0909
vn 0.0203 0.8095 -0.5868
vn 0.5979 0.7971 -0.0846
vn 0.7055 0.7042 0.0801
vn 0.0036 0.8121 0.5835
vn -0.6711 0.7394 0.0540
vn -0.6020 0.7972 -0.0445
vn 0.0084 0.9750 -0.2219
vn 0.3403 0.9387 -0.0548
vn 0.4570 0.8884 0.0430
vn -0.0266 0.9554 0.2941
vn -0.3712 0.9266 0.0597
vn -0.3907 0.9187 -0.0577
vn 0.0064 0.8145 -0.5801
vn 0.6852 0.7247 -0.0724
vn 0.6912 0.7192 0.0711
vn -0.0341 0.8620 0.5058
vn -0.6226 0.7767 0.0951
vn -0.7105 0.6996 -0.0757
vn 0.0646 0.8781 -0.4742
vn 0.7030 0.7111 0.0063
vn 0.0661 0.8289 0.5554
vn -0.5485 0.8338 0.0618
vn -0.6873 0.7242 -0.0557
vn 0.5852 0.8063 0.0864
vn 0.0146 0.8364 0.5479
vn -0.6240 0.7778 0.0753
vn -0.6575 0.7482 -0.0889
vn -0.0274 0.8346 -0.5502
vn 0.7191 0.6908 -0.0756
vn -0.0198 0.9732 -0.2292
vn 0.3192 0.9475 -0.0177
vn 0.4284 0.9035 0.0087
vn -0.0203 0.9268 0.3751
vn -0.3931 0.9189 0.0340
vn -0.2856 0.9573 -0.0436
vn 0.5286 0.8478 0.0413
vn 0.0107 0.8059 0.5919
vn -0.6394 0.7656 0.0710
vn -0.6297 0.7710 -0.0946
vn -0.0380 0.8501 -0.5253
vn 0.6573 0.7525 -0.0407
vn 0.0310 0.8373 -0.5458
vn 0.5762 0.8155 -0.0545
vn 0.6473 0.7610 0.0436
vn -0.0104 0.8256 0.5641
vn -0.6761 0.7327 0.0780
vn -0.7119 0.6988 -0.0699
vn 0.0272 0.8731 -0.4868
vn 0.5952 0.7992 -0.0834
vn 0.5976 0.7975 0.0829
vn 0.0345 0.8605 0.5083
vn -0.6577 0.7515 0.0511
vn -0.6365 0.7693 -0.0547
vn 0.0039 0.8298 -0.5580
vn 0.6377 0.7684 -0.0541
vn 0.5650 0.8225 0.0656
vn 0.0112 0.8886 0.4585
vn -0.5929 0.8032 0.0582
vn -0.6437 0.7636 -0.0501
vn -0.0013 0.8510 -0.5251
vn 0.6247 0.7788 -0.0565
vn 0.6482 0.7596 0.0526
vn -0.0159 0.8464 0.5323
vn -0.5813 0.8123 0.0482
vn -0.5985 0.7998 -0.0458
vn -0.0069 0.9018 -0.4320
vn 0.6182 0.7815 -0.0836
vn 0.6680 0.7405 0.0738
vn -0.0241 0.8729 0.4874
vn -0.6037 0.7928 0.0842
vn -0.5962 0.7983 -0.0855
vn -0.0235 0.9355 -0.3525
vn 0.5929 0.8007 -0.0857
vn 0.6627 0.7454 0.0725
vn -0.0452 0.8987 0.4362
vn -0.6355 0.7721 -0.0050
vn 0.6090 0.7932 -0.0064
vn 0.0379 0.9112 0.4103
vn -0.6555 0.7505 0.0840
vn -0.6801 0.7289 -0.0787
vn 0.0648 0.9141 -0.4002
vn 0.0006 0.8869 -0.4621
vn 0.5986 0.7980 -0.0704
vn 0.5992 0.7975 0.0702
vn 0.0098 0.8746 0.4847
vn -0.6641 0.7428 0.0850
vn -0.6413 0.7620 -0.0899
vn -0.0273 0.8643 -0.5023
vn 0.6214 0.7824 -0.0409
vn 0.5341 0.8438 0.0531
vn -0.0029 0.9073 0.4204
vn -0.6189 0.7795 0.0965
vn -0.6303 0.7706 -0.0942
vn -0.0031 0.8084 -0.5886
vn 0.5607 0.8269 -0.0421
vn 0.5935 0.8028 0.0571
vn 0.0103 0.8586 0.5125
vn -0.6255 0.7783 0.0539
vn -0.5539 0.8313 -0.0456
vn -0.0017 0.7752 -0.6317
vn 0.6034 0.7961 -0.0465
vn 0.5849 0.8080 0.0711
vn 0.0189 0.8733 0.4869
vn -0.6232 0.7801 0.0552
vn -0.5835 0.8111 -0.0405
vn -0.0228 0.8918 -0.4518
vn 0.5855 0.8075 -0.0719
vn 0.6685 0.7415 0.0573
vn -0.0444 0.8729 0.4859
vn -0.7236 0.6903 0.0000
s off
f 69/1/1 74/2/1 73/3/1 72/4/1 71/5/1 70/6/1
f 75/7/2 80/8/2 79/9/2 78/10/2 77/11/2 76/12/2
f 81/13/3 86/14/3 85/15/3 84/16/3 83/17/3 82/18/3
f 87/19/4 92/20/4 91/21/4 90/22/4 89/23/4 88/24/4
f 93/25/5 97/26/5 96/27/5 95/28/5 94/29/5
f 98/30/6 103/31/6 102/32/6 101/33/6 100/34/6 99/35/6
f 104/36/7 109/37/7 108/38/7 107/39/7 106/40/7 105/41/7
f 110/42/8 115/43/8 114/44/8 113/45/8 112/46/8 111/47/8
f 116/48/9 121/49/9 120/50/9 119/51/9 118/52/9 117/53/9
f 122/54/10 127/55/10 126/56/10 125/57/10 124/58/10 123/59/10
f 128/60/11 133/61/11 132/62/11 131/63/11 130/64/11 129/65/11
f 134/66/12 139/67/12 138/68/12 137/69/12 136/70/12 135/71/12
f 140/72/13 145/73/13 144/74/13 143/75/13 142/76/13 141/77/13
f 146/78/14 150/79/14 149/80/14 148/81/14 147/82/14
f 151/83/15 155/84/15 154/85/15 153/86/15 152/87/15
f 156/88/16 161/89/16 160/90/16 159/91/16 158/92/16 157/93/16
f 162/94/17 167/95/17 166/96/17 165/97/17 164/98/17 163/99/17
f 168/100/18 173/101/18 172/102/18 171/103/18 170/104/18 169/105/18
f 174/106/19 179/107/19 178/108/19 177/109/19 176/110/19 175/111/19
f 180/112/20 184/113/20 183/114/20 182/115/20 181/116/20
f 63/117/21 69/1/21 70/6/21 15/118/21
f 15/118/22 70/6/22 71/5/22 16/119/22
f 16/119/23 71/5/23 72/4/23 64/120/23
f 64/120/24 72/4/24 73/3/24 57/121/24
f 57/121/25 73/3/25 74/2/25 56/122/25
f 56/122/26 74/2/26 69/1/26 63/117/26
f 12/123/27 75/7/27 76/12/27 13/124/27
f 13/124/28 76/12/28 77/11/28 21/125/28
f 21/125/29 77/11/29 78/10/29 28/126/29
f 28/126/30 78/10/30 79/9/30 29/127/30
f 29/127/31 79/9/31 80/8/31 22/128/31
f 22/128/32 80/8/32 75/7/32 12/123/32
f 29/127/33 81/13/33 82/18/33 28/126/33
f 28/126/34 82/18/34 83/17/34 35/129/34
f 35/129/35 83/17/35 84/16/35 42/130/35
f 42/130/36 84/16/36 85/15/36 43/131/36
f 43/131/37 85/15/37 86/14/37 36/132/37
f 36/132/38 86/14/38 81/13/38 29/127/38
f 43/131/39 87/19/39 88/24/39 42/130/39
f 42/130/40 88/24/40 89/23/40 49/133/40
f 49/133/41 89/23/41 90/22/41 56/134/41
f 56/134/42 90/22/42 91/21/42 57/135/42
f 57/135/43 91/21/43 92/20/43 50/136/43
f 50/136/44 92/20/44 87/19/44 43/131/44
f 55/137/45 93/25/45 94/29/45 7/138/45
f 7/138/46 94/29/46 95/28/46 1/139/46
f 1/139/47 95/28/47 96/27/47 14/140/47
f 14/140/48 96/27/48 97/26/48 62/141/48
f 62/141/49 97/26/49 93/25/49 55/137/49
f 67/142/50 98/30/50 99/35/50 19/143/50
f 19/143/51 99/35/51 100/34/51 20/144/51
f 20/144/52 100/34/52 101/33/52 68/145/52
f 68/145/53 101/33/53 102/32/53 61/146/53
f 61/146/54 102/32/54 103/31/54 60/147/54
f 60/147/55 103/31/55 98/30/55 67/142/55
f 53/148/56 104/36/56 105/41/56 52/149/56
f 52/149/57 105/41/57 106/40/57 59/150/57
f 59/150/58 106/40/58 107/39/58 66/151/58
f 66/151/59 107/39/59 108/38/59 67/142/59
f 67/142/60 108/38/60 109/37/60 60/147/60
f 60/147/61 109/37/61 104/36/61 53/148/61
f 65/152/62 110/42/62 111/47/62 17/153/62
f 17/153/63 111/47/63 112/46/63 18/154/63
f 18/154/64 112/46/64 113/45/64 66/155/64
f 66/155/65 113/45/65 114/44/65 59/156/65
f 59/156/66 114/44/66 115/43/66 58/157/66
f 58/157/67 115/43/67 110/42/67 65/152/67
f 51/158/68 116/48/68 117/53/68 50/136/68
f 50/136/69 117/53/69 118/52/69 57/135/69
f 57/135/70 118/52/70 119/51/70 64/159/70
f 64/159/71 119/51/71 120/50/71 65/160/71
f 65/160/72 120/50/72 121/49/72 58/161/72
f 58/161/73 121/49/73 116/48/73 51/158/73
f 47/162/74 122/54/74 123/59/74 46/163/74
f 46/163/75 123/59/75 124/58/75 53/148/75
f 53/148/76 124/58/76 125/57/76 60/147/76
f 60/147/77 125/57/77 126/56/77 61/146/77
f 61/146/78 126/56/78 127/55/78 54/164/78
f 54/164/79 127/55/79 122/54/79 47/162/79
f 39/165/80 128/60/80 129/65/80 38/166/80
f 38/166/81 129/65/81 130/64/81 45/167/81
f 45/167/82 130/64/82 131/63/82 52/168/82
f 52/168/83 131/63/83 132/62/83 53/169/83
f 53/169/84 132/62/84 133/61/84 46/170/84
f 46/170/85 133/61/85 128/60/85 39/165/85
f 35/171/86 134/66/86 135/71/86 34/172/86
f 34/172/87 135/71/87 136/70/87 41/173/87
f 41/173/88 136/70/88 137/69/88 48/174/88
f 48/174/89 137/69/89 138/68/89 49/175/89
f 49/175/90 138/68/90 139/67/90 42/176/90
f 42/176/91 139/67/91 134/66/91 35/171/91
f 31/177/92 140/72/92 141/77/92 30/178/92
f 30/178/93 141/77/93 142/76/93 37/179/93
f 37/179/94 142/76/94 143/75/94 44/180/94
f 44/180/95 143/75/95 144/74/95 45/181/95
f 45/181/96 144/74/96 145/73/96 38/182/96
f 38/182/97 145/73/97 140/72/97 31/177/97
f 3/183/98 146/78/98 147/82/98 40/184/98
f 40/184/99 147/82/99 148/81/99 47/162/99
f 47/162/100 148/81/100 149/80/100 54/164/100
f 54/164/101 149/80/101 150/79/101 2/185/101
f 2/185/102 150/79/102 146/78/102 3/183/102
f 5/186/103 151/83/103 152/87/103 6/187/103
f 6/187/104 152/87/104 153/86/104 41/188/104
f 41/188/105 153/86/105 154/85/105 34/189/105
f 34/189/106 154/85/106 155/84/106 27/190/106
f 27/190/107 155/84/107 151/83/107 5/186/107
f 25/191/108 156/88/108 157/93/108 24/192/108
f 24/192/109 157/93/109 158/92/109 31/177/109
f 31/177/110 158/92/110 159/91/110 38/182/110
f 38/182/111 159/91/111 160/90/111 39/193/111
f 39/193/112 160/90/112 161/89/112 32/194/112
f 32/194/113 161/89/113 156/88/113 25/191/113
f 23/195/114 162/94/114 163/99/114 22/196/114
f 22/196/115 163/99/115 164/98/115 29/197/115
f 29/197/116 164/98/116 165/97/116 36/198/116
f 36/198/117 165/97/117 166/96/117 37/199/117
f 37/199/118 166/96/118 167/95/118 30/200/118
f 30/200/119 167/95/119 162/94/119 23/195/119
f 8/201/120 168/100/120 169/105/120 9/202/120
f 9/202/121 169/105/121 170/104/121 25/191/121
f 25/191/122 170/104/122 171/103/122 32/194/122
f 32/194/123 171/103/123 172/102/123 33/203/123
f 33/203/124 172/102/124 173/101/124 26/204/124
f 26/204/125 173/101/125 168/100/125 8/201/125
f 10/205/126 174/106/126 175/111/126 11/206/126
f 11/206/127 175/111/127 176/110/127 23/207/127
f 23/207/128 176/110/128 177/109/128 30/178/128
f 30/178/129 177/109/129 178/108/129 31/177/129
f 31/177/130 178/108/130 179/107/130 24/192/130
f 24/192/131 179/107/131 174/106/131 10/205/131
f 4/208/132 180/112/132 181/116/132 26/209/132
f 26/209/133 181/116/133 182/115/133 33/210/133
f 33/210/134 182/115/134 183/114/134 40/211/134
f 40/211/135 183/114/135 184/113/135 3/212/135
f 3/212/136 184/113/136 180/112/136 4/208/136
