# Blender v2.80 (sub 75) OBJ File: 'dungeon.blend'
# www.blender.org
o Potion_Cube.012
v 0.000000 0.052409 -0.025575
v 0.000000 0.041165 -0.031251
v 0.000000 0.016214 -0.028093
v -0.000000 0.028553 -0.032210
v -0.004794 0.062376 0.011566
v -0.011566 0.062376 0.004794
v -0.016494 0.057832 0.011665
v -0.011665 0.057832 0.016494
v -0.011566 0.062376 -0.004794
v -0.004794 0.062376 -0.011566
v -0.011665 0.057832 -0.016494
v -0.016494 0.057832 -0.011665
v 0.011566 0.062376 0.004794
v 0.004794 0.062376 0.011566
v 0.011665 0.057832 0.016494
v 0.016494 0.057832 0.011665
v 0.004794 0.062376 -0.011566
v 0.011566 0.062376 -0.004794
v 0.016494 0.057832 -0.011665
v 0.011665 0.057832 -0.016494
v -0.014401 0.078308 0.005970
v -0.005970 0.078308 0.014401
v -0.005970 0.078308 -0.014401
v -0.014401 0.078308 -0.005970
v 0.014401 0.078308 -0.005970
v 0.005970 0.078308 -0.014401
v 0.005970 0.078308 0.014401
v 0.014401 0.078308 0.005970
v -0.007214 0.082302 0.017405
v -0.017405 0.082302 0.007214
v -0.017405 0.082302 -0.007214
v -0.007214 0.082302 -0.017405
v 0.017405 0.082302 0.007214
v 0.007214 0.082302 0.017405
v 0.007214 0.082302 -0.017405
v 0.017405 0.082302 -0.007214
v -0.007214 0.090957 0.017405
v -0.017405 0.090957 0.007214
v -0.017405 0.090957 -0.007214
v -0.007214 0.090957 -0.017405
v 0.017405 0.090957 0.007214
v 0.007214 0.090957 0.017405
v 0.007214 0.090957 -0.017405
v 0.017405 0.090957 -0.007214
v -0.004983 0.093660 0.012022
v -0.012022 0.093660 0.004983
v -0.012022 0.093660 -0.004983
v -0.004983 0.093660 -0.012022
v 0.012022 0.093660 0.004983
v 0.004983 0.093660 0.012022
v 0.004983 0.093660 -0.012022
v 0.012022 0.093660 -0.004983
v -0.002459 0.075720 0.005933
v -0.005933 0.075720 0.002459
v -0.005933 0.075720 -0.002459
v -0.002459 0.075720 -0.005933
v 0.005933 0.075720 0.002459
v 0.002459 0.075720 0.005933
v 0.002459 0.075720 -0.005933
v 0.005933 0.075720 -0.002459
v -0.005868 0.104125 0.014156
v -0.014156 0.104125 0.005868
v -0.014156 0.104125 -0.005868
v -0.005868 0.104125 -0.014156
v 0.014156 0.104125 0.005868
v 0.005868 0.104125 0.014156
v 0.005868 0.104125 -0.014156
v 0.014156 0.104125 -0.005868
v -0.005868 0.115520 0.014156
v -0.014156 0.115520 0.005868
v -0.014156 0.115520 -0.005868
v -0.005868 0.115520 -0.014156
v 0.014156 0.115520 0.005868
v 0.005868 0.115520 0.014156
v 0.005868 0.115520 -0.014156
v 0.014156 0.115520 -0.005868
v -0.005458 0.117300 0.013166
v -0.013166 0.117300 0.005458
v -0.013166 0.117300 -0.005458
v -0.005458 0.117300 -0.013166
v 0.013166 0.117300 0.005458
v 0.005458 0.117300 0.013166
v 0.005458 0.117300 -0.013166
v 0.013166 0.117300 -0.005458
v -0.017834 0.028578 0.026826
v -0.012707 0.017348 0.025754
v -0.006359 0.028578 0.031579
v -0.026826 0.028578 0.017834
v -0.031579 0.028578 0.006359
v -0.025754 0.017348 0.012707
v -0.017332 0.040962 0.026071
v -0.006180 0.040962 0.030691
v -0.011796 0.050937 0.023907
v -0.023907 0.050937 0.011796
v -0.030691 0.040962 0.006180
v -0.026071 0.040962 0.017332
v -0.026826 0.028578 -0.017834
v -0.025754 0.017348 -0.012707
v -0.031579 0.028578 -0.006359
v -0.017834 0.028578 -0.026826
v -0.006359 0.028578 -0.031579
v -0.012707 0.017348 -0.025754
v -0.011796 0.050937 -0.023907
v -0.006180 0.040962 -0.030691
v -0.017332 0.040962 -0.026071
v -0.026071 0.040962 -0.017332
v -0.030691 0.040962 -0.006180
v -0.023907 0.050937 -0.011796
v 0.026826 0.028578 0.017834
v 0.025754 0.017348 0.012707
v 0.031579 0.028578 0.006359
v 0.017834 0.028578 0.026826
v 0.006359 0.028578 0.031579
v 0.012707 0.017348 0.025754
v 0.011796 0.050937 0.023907
v 0.006180 0.040962 0.030691
v 0.017332 0.040962 0.026071
v 0.026071 0.040962 0.017332
v 0.030691 0.040962 0.006180
v 0.023907 0.050937 0.011796
v 0.017834 0.028578 -0.026826
v 0.012707 0.017348 -0.025754
v 0.006359 0.028578 -0.031579
v 0.026826 0.028578 -0.017834
v 0.031579 0.028578 -0.006359
v 0.025754 0.017348 -0.012707
v 0.023907 0.050937 -0.011796
v 0.030691 0.040962 -0.006180
v 0.026071 0.040962 -0.017332
v 0.017332 0.040962 -0.026071
v 0.006180 0.040962 -0.030691
v 0.011796 0.050937 -0.023907
v -0.008070 0.002073 0.008070
v -0.015605 0.008662 0.015605
v -0.015605 0.008662 -0.015605
v -0.008070 0.002073 -0.008070
v 0.015605 0.008662 0.015605
v 0.008070 0.002073 0.008070
v 0.015605 0.008662 -0.015605
v 0.008070 0.002073 -0.008070
v 0.000000 0.028553 0.032210
v 0.000000 0.016214 0.028093
v 0.000000 0.041165 0.031251
v 0.000000 0.052409 0.025575
v 0.000000 0.001094 -0.008354
v 0.000000 0.005438 -0.017980
v -0.000000 0.001094 0.008354
v 0.000000 0.005438 0.017980
v -0.032210 0.028553 0.000000
v -0.028093 0.016214 0.000000
v -0.031251 0.041165 -0.000000
v -0.025575 0.052409 -0.000000
v 0.032210 0.028553 -0.000000
v 0.028093 0.016214 0.000000
v 0.031251 0.041165 -0.000000
v 0.025575 0.052409 -0.000000
v -0.008354 0.001094 -0.000000
v -0.017980 0.005438 0.000000
v 0.008354 0.001094 0.000000
v 0.017980 0.005438 0.000000
v -0.000000 0.000000 0.000000
v 0.000000 0.062708 0.011695
v -0.011695 0.062708 -0.000000
v 0.000000 0.062708 -0.011695
v 0.011695 0.062708 -0.000000
vt 0.067617 0.902875
vt 0.066733 0.902875
vt 0.066877 0.902191
vt 0.067617 0.902191
vt 0.067257 0.897676
vt 0.067976 0.897676
vt 0.067976 0.898316
vt 0.067257 0.898316
vt 0.067617 0.899610
vt 0.067617 0.898654
vt 0.067923 0.898654
vt 0.068356 0.899039
vt 0.068356 0.899609
vt 0.074365 0.902225
vt 0.073896 0.901982
vt 0.073896 0.901473
vt 0.074365 0.900963
vt 0.072930 0.900064
vt 0.072529 0.899990
vt 0.072406 0.899370
vt 0.073399 0.899554
vt 0.067976 0.895139
vt 0.067257 0.895139
vt 0.067257 0.894500
vt 0.067976 0.894500
vt 0.070040 0.900641
vt 0.070486 0.899682
vt 0.071076 0.900327
vt 0.070703 0.901129
vt 0.066609 0.900448
vt 0.066609 0.901353
vt 0.066100 0.901353
vt 0.066100 0.900448
vt 0.069593 0.901600
vt 0.070329 0.901932
vt 0.069482 0.902415
vt 0.071284 0.901558
vt 0.071723 0.901881
vt 0.071541 0.902272
vt 0.071102 0.901948
vt 0.008003 0.894375
vt 0.008523 0.894375
vt 0.009043 0.894375
vt 0.009043 0.896261
vt 0.008003 0.896261
vt 0.069134 0.900448
vt 0.069134 0.901353
vt 0.068625 0.901353
vt 0.068625 0.900448
vt 0.008682 0.899643
vt 0.007862 0.898944
vt 0.008045 0.898497
vt 0.009036 0.899341
vt 0.070433 0.897665
vt 0.070176 0.898216
vt 0.069866 0.897988
vt 0.070123 0.897436
vt 0.067976 0.896408
vt 0.067257 0.896408
vt 0.067257 0.895955
vt 0.067976 0.895955
vt 0.007826 0.900837
vt 0.007416 0.900488
vt 0.007006 0.900139
vt 0.070400 0.895537
vt 0.070136 0.896463
vt 0.069752 0.895397
vt 0.067617 0.901353
vt 0.067617 0.900448
vt 0.067976 0.900448
vt 0.067976 0.901353
vt 0.004606 0.898678
vt 0.005016 0.898329
vt 0.005426 0.897979
vt 0.006281 0.899174
vt 0.005462 0.899872
vt 0.072684 0.896551
vt 0.073084 0.896476
vt 0.073554 0.896986
vt 0.072561 0.897170
vt 0.070997 0.899161
vt 0.074037 0.896282
vt 0.073251 0.895428
vt 0.073451 0.895136
vt 0.074051 0.895068
vt 0.074520 0.895578
vt 0.074051 0.894559
vt 0.074520 0.894315
vt 0.071162 0.896099
vt 0.071925 0.896661
vt 0.071412 0.897403
vt 0.070774 0.896933
vt 0.066591 0.896408
vt 0.065832 0.896408
vt 0.065832 0.896022
vt 0.066138 0.895477
vt 0.066591 0.895477
vt 0.070703 0.896039
vt 0.069186 0.897519
vt 0.068643 0.897338
vt 0.068643 0.896408
vt 0.004969 0.894375
vt 0.005489 0.894375
vt 0.006010 0.894375
vt 0.006010 0.896261
vt 0.004969 0.896261
vt 0.071426 0.895533
vt 0.071581 0.895199
vt 0.071955 0.895475
vt 0.071800 0.895809
vt 0.073296 0.902124
vt 0.073296 0.901405
vt 0.072895 0.900821
vt 0.072330 0.900716
vt 0.073451 0.894416
vt 0.072484 0.895825
vt 0.073050 0.895720
vt 0.006745 0.894462
vt 0.006745 0.896347
vt 0.004234 0.896347
vt 0.004234 0.894462
vt 0.007268 0.896347
vt 0.007268 0.894462
vt 0.009778 0.894462
vt 0.009778 0.896347
vt 0.073882 0.900259
vt 0.073096 0.901113
vt 0.007894 0.896607
vt 0.009152 0.896607
vt 0.009152 0.897424
vt 0.007894 0.897424
vt 0.007011 0.898830
vt 0.007016 0.898360
vt 0.006589 0.898301
vt 0.007006 0.898420
vt 0.006635 0.899475
vt 0.005644 0.900319
vt 0.008989 0.900515
vt 0.009407 0.900396
vt 0.004611 0.899986
vt 0.004616 0.900457
vt 0.006118 0.896607
vt 0.004861 0.896607
vt 0.012191 0.895344
vt 0.012191 0.896715
vt 0.011534 0.896503
vt 0.011534 0.895556
vt 0.006118 0.897424
vt 0.004861 0.897424
vt 0.010040 0.896712
vt 0.010040 0.897529
vt 0.003972 0.896712
vt 0.003972 0.897529
vt 0.007006 0.899993
vt 0.006015 0.900837
vt 0.008416 0.897979
vt 0.009407 0.898824
vt 0.007006 0.896712
vt 0.007006 0.897529
vt 0.007006 0.896712
vt 0.007006 0.897529
vt 0.009407 0.901880
vt 0.009407 0.900933
vt 0.010912 0.901173
vt 0.010912 0.901640
vt 0.011586 0.897683
vt 0.011116 0.897171
vt 0.011586 0.894375
vt 0.011116 0.894887
vt 0.008957 0.897979
vt 0.008089 0.897979
vt 0.005924 0.897979
vt 0.005055 0.897979
vt 0.010510 0.894375
vt 0.011116 0.895344
vt 0.010458 0.895556
vt 0.010040 0.894887
vt 0.011116 0.896715
vt 0.010510 0.897683
vt 0.010040 0.897171
vt 0.010458 0.896503
vt 0.020677 0.879565
vt 0.020992 0.879609
vt 0.020992 0.882291
vt 0.020242 0.882185
vt 0.009825 0.900264
vt 0.011119 0.900842
vt 0.009825 0.902548
vt 0.011119 0.901970
vt 0.005474 0.900837
vt 0.006343 0.900837
vt 0.006123 0.902594
vt 0.005694 0.902594
vt 0.004606 0.900837
vt 0.005474 0.900837
vt 0.005254 0.902594
vt 0.004826 0.902594
vt 0.009825 0.900264
vt 0.009407 0.899595
vt 0.010912 0.899355
vt 0.011119 0.899685
vt 0.009407 0.898648
vt 0.009825 0.897979
vt 0.011119 0.898558
vt 0.010912 0.898888
vt 0.025262 0.885552
vt 0.026012 0.885607
vt 0.026012 0.886631
vt 0.025262 0.886577
vt 0.023138 0.879565
vt 0.023452 0.879609
vt 0.023452 0.882291
vt 0.022702 0.882185
vt 0.024510 0.879313
vt 0.024954 0.879313
vt 0.025262 0.881812
vt 0.024202 0.881812
vt 0.022711 0.879442
vt 0.021684 0.881893
vt 0.019961 0.879313
vt 0.020251 0.879442
vt 0.019223 0.881893
vt 0.018531 0.881586
vt 0.022421 0.879313
vt 0.020992 0.881586
vt 0.024510 0.883054
vt 0.024954 0.883054
vt 0.024202 0.885552
vt 0.021402 0.882870
vt 0.022420 0.883162
vt 0.022344 0.883293
vt 0.021397 0.883021
vt 0.019960 0.883162
vt 0.018941 0.882870
vt 0.024202 0.886577
vt 0.023452 0.885607
vt 0.023452 0.886631
vt 0.023452 0.881867
vt 0.024202 0.882836
vt 0.023452 0.882891
vt 0.025262 0.882836
vt 0.026012 0.881867
vt 0.026012 0.882891
vt 0.019228 0.885666
vt 0.018531 0.884971
vt 0.018531 0.883987
vt 0.019228 0.883293
vt 0.020215 0.883293
vt 0.020912 0.883987
vt 0.020912 0.884971
vt 0.020215 0.885666
vt 0.025923 0.883054
vt 0.025225 0.883003
vt 0.025923 0.886794
vt 0.025225 0.886743
vt 0.019884 0.883293
vt 0.018936 0.883021
vt 0.024239 0.886743
vt 0.023542 0.886794
vt 0.024239 0.883003
vt 0.023542 0.883054
vt 0.068356 0.895297
vt 0.067976 0.895477
vt 0.067976 0.894161
vt 0.068356 0.894342
vt 0.067257 0.895477
vt 0.066877 0.895297
vt 0.074414 0.900279
vt 0.074662 0.900641
vt 0.065975 0.901831
vt 0.065832 0.901353
vt 0.066877 0.901353
vt 0.066734 0.901831
vt 0.066877 0.899609
vt 0.067257 0.899970
vt 0.066877 0.899970
vt 0.065832 0.900448
vt 0.065975 0.899970
vt 0.068356 0.898474
vt 0.067976 0.898654
vt 0.067976 0.897338
vt 0.068356 0.897518
vt 0.066591 0.897338
vt 0.066877 0.896860
vt 0.066877 0.897338
vt 0.067257 0.898654
vt 0.066877 0.898474
vt 0.068500 0.901831
vt 0.068356 0.901353
vt 0.069402 0.901353
vt 0.069259 0.901831
vt 0.074099 0.896946
vt 0.073850 0.897308
vt 0.068356 0.900448
vt 0.068500 0.899970
vt 0.066877 0.894342
vt 0.066734 0.899970
vt 0.066877 0.897518
vt 0.069259 0.899970
vt 0.070486 0.898445
vt 0.070743 0.897893
vt 0.071071 0.898135
vt 0.070814 0.898687
vt 0.070679 0.898979
vt 0.070040 0.898508
vt 0.067257 0.900448
vt 0.067257 0.901353
vt 0.069538 0.897746
vt 0.069795 0.897194
vt 0.068356 0.902191
vt 0.071905 0.901491
vt 0.071466 0.901168
vt 0.071658 0.900755
vt 0.072097 0.901078
vt 0.072329 0.901249
vt 0.071955 0.902052
vt 0.067257 0.896860
vt 0.067976 0.896860
vt 0.071349 0.902684
vt 0.070910 0.902361
vt 0.068643 0.895477
vt 0.072339 0.897303
vt 0.071206 0.894923
vt 0.071051 0.895257
vt 0.070679 0.895297
vt 0.070943 0.894729
vt 0.071736 0.894866
vt 0.071362 0.894590
vt 0.071207 0.894161
vt 0.071845 0.894632
vt 0.072111 0.895142
vt 0.072483 0.895102
vt 0.071955 0.896237
vt 0.069186 0.895296
vt 0.068500 0.902875
vt 0.071581 0.902855
vt 0.069402 0.898038
vt 0.066877 0.899039
vt 0.067310 0.898654
vt 0.066138 0.897338
vt 0.065832 0.896793
vn 0.0000 -0.8026 -0.5965
vn -0.4799 -0.7345 -0.4799
vn -0.3997 -0.4815 -0.7800
vn -0.0000 -0.5365 -0.8439
vn 0.5491 0.2593 0.7945
vn 0.5650 -0.1259 0.8154
vn 0.8154 -0.1259 0.5650
vn 0.7945 0.2593 0.5491
vn -0.0000 0.6406 -0.7679
vn -0.0000 0.7788 -0.6273
vn 0.2055 0.8259 -0.5251
vn 0.3409 0.7706 -0.5384
vn 0.3646 0.5833 -0.7259
vn -0.3646 0.5833 0.7259
vn -0.3409 0.7706 0.5384
vn -0.5384 0.7706 0.3409
vn -0.7259 0.5833 0.3646
vn -0.5384 0.7706 -0.3409
vn -0.3409 0.7706 -0.5384
vn -0.3646 0.5833 -0.7259
vn -0.7259 0.5833 -0.3646
vn -0.5650 -0.1259 0.8154
vn -0.5491 0.2593 0.7945
vn -0.7945 0.2593 0.5491
vn -0.8154 -0.1259 0.5650
vn 0.5965 -0.8026 -0.0000
vn 0.4799 -0.7345 -0.4799
vn 0.7800 -0.4815 -0.3997
vn 0.8439 -0.5365 -0.0000
vn -0.5491 0.2593 -0.7945
vn -0.5650 -0.1259 -0.8154
vn -0.8154 -0.1259 -0.5650
vn -0.7945 0.2593 -0.5491
vn 0.4799 -0.7345 0.4799
vn 0.7800 -0.4815 0.3997
vn 0.3997 -0.4815 0.7800
vn 0.9903 -0.1390 0.0000
vn 0.9595 0.2816 0.0000
vn 0.9376 0.2578 0.2332
vn 0.9628 -0.1225 0.2407
vn 0.9038 -0.1882 0.3843
vn 0.9849 -0.1733 0.0000
vn 0.9038 -0.1882 -0.3843
vn 0.9074 -0.1882 -0.3758
vn 0.9074 -0.1882 0.3758
vn 0.7945 0.2593 -0.5491
vn 0.8154 -0.1259 -0.5650
vn 0.5650 -0.1259 -0.8154
vn 0.5491 0.2593 -0.7945
vn -0.2967 -0.6313 0.7165
vn 0.2967 -0.6313 0.7165
vn 0.2968 -0.6313 0.7165
vn -0.2968 -0.6313 0.7165
vn -0.9903 -0.1390 -0.0000
vn -0.9595 0.2816 0.0000
vn -0.9376 0.2578 -0.2332
vn -0.9628 -0.1225 -0.2407
vn 0.0000 -0.1390 0.9903
vn 0.0000 0.2816 0.9595
vn -0.2332 0.2578 0.9376
vn -0.2407 -0.1225 0.9628
vn -0.3843 -0.1882 0.9038
vn 0.0000 -0.1733 0.9849
vn 0.3843 -0.1882 0.9038
vn 0.3758 -0.1882 0.9074
vn -0.3758 -0.1882 0.9074
vn -0.7800 -0.4815 -0.3997
vn -0.0000 -0.1390 -0.9903
vn 0.0000 0.2816 -0.9595
vn 0.2332 0.2578 -0.9376
vn 0.2407 -0.1225 -0.9628
vn 0.3843 -0.1882 -0.9038
vn 0.0000 -0.1733 -0.9849
vn -0.3843 -0.1882 -0.9038
vn -0.3758 -0.1882 -0.9074
vn 0.3758 -0.1882 -0.9074
vn 0.5384 0.7706 -0.3409
vn 0.7259 0.5833 -0.3646
vn 0.3997 -0.4815 -0.7800
vn 0.7679 0.6406 0.0000
vn 0.6273 0.7788 0.0000
vn 0.5251 0.8259 0.2055
vn 0.5384 0.7706 0.3409
vn 0.7259 0.5833 0.3646
vn 0.3409 0.7706 0.5384
vn 0.3646 0.5833 0.7259
vn -0.5965 -0.8026 -0.0000
vn -0.4799 -0.7345 0.4799
vn -0.7800 -0.4815 0.3997
vn -0.8439 -0.5365 -0.0000
vn 0.0000 0.6406 0.7679
vn 0.0000 0.7788 0.6273
vn -0.2055 0.8259 0.5251
vn 0.0000 -0.8026 0.5965
vn 0.0000 -0.5365 0.8439
vn -0.9038 -0.1882 -0.3843
vn -0.9849 -0.1733 0.0000
vn -0.9038 -0.1882 0.3843
vn -0.9074 -0.1882 0.3758
vn -0.9074 -0.1882 -0.3758
vn -0.3027 -0.9531 -0.0000
vn 0.0000 -1.0000 -0.0000
vn -0.0000 -0.9531 0.3027
vn -0.2844 -0.9156 0.2844
vn -0.5251 0.8259 0.2055
vn -0.5251 0.8259 -0.2055
vn -0.2055 0.8259 -0.5251
vn 0.2055 0.8259 0.5251
vn 0.5251 0.8259 -0.2055
vn -0.7679 0.6406 0.0000
vn -0.6273 0.7788 -0.0000
vn 0.9239 0.0000 0.3827
vn 0.9239 0.0000 -0.3827
vn 0.7165 -0.6313 0.2967
vn 0.7165 -0.6313 0.2968
vn 0.7165 -0.6313 -0.2967
vn 0.7165 -0.6313 -0.2968
vn -0.2967 -0.6313 -0.7165
vn -0.7165 -0.6313 -0.2967
vn -0.7165 -0.6313 -0.2968
vn -0.2968 -0.6313 -0.7165
vn 0.2967 -0.6313 -0.7165
vn 0.2968 -0.6313 -0.7165
vn -0.7165 -0.6313 0.2967
vn -0.7165 -0.6313 0.2968
vn -0.1611 0.9071 0.3888
vn 0.1611 0.9071 0.3888
vn 0.1610 0.9071 0.3888
vn -0.1610 0.9071 0.3888
vn -0.9239 0.0000 -0.3827
vn -0.9239 0.0000 0.3827
vn 0.3827 0.0000 -0.9239
vn -0.3827 0.0000 -0.9239
vn -0.3827 0.0000 0.9239
vn 0.3827 0.0000 0.9239
vn 0.3592 0.3449 -0.8672
vn -0.3592 0.3449 -0.8672
vn 0.0279 0.9973 0.0672
vn -0.0279 0.9973 0.0672
vn 0.3888 0.9071 0.1611
vn 0.3888 0.9071 0.1610
vn -0.3888 0.9071 0.1611
vn -0.3888 0.9071 0.1610
vn 0.3888 0.9071 -0.1611
vn 0.3888 0.9071 -0.1610
vn -0.3888 0.9071 -0.1611
vn -0.3888 0.9071 -0.1610
vn 0.1611 0.9071 -0.3888
vn 0.1610 0.9071 -0.3888
vn -0.1611 0.9071 -0.3888
vn -0.1610 0.9071 -0.3888
vn 0.0279 0.9973 -0.0672
vn -0.0279 0.9973 -0.0672
vn -0.3786 -0.1460 -0.9140
vn 0.3786 -0.1460 -0.9140
vn -0.8672 0.3449 -0.3592
vn 0.0672 0.9973 0.0279
vn 0.8672 0.3449 -0.3592
vn -0.0672 0.9973 0.0279
vn -0.8672 0.3449 0.3592
vn 0.0672 0.9973 -0.0279
vn 0.8672 0.3449 0.3592
vn -0.0672 0.9973 -0.0279
vn -0.3592 0.3449 0.8672
vn 0.3592 0.3449 0.8672
vn -0.9140 -0.1460 -0.3786
vn -0.9140 -0.1460 0.3786
vn -0.8940 0.2522 0.3703
vn -0.8940 0.2522 -0.3703
vn 0.3786 -0.1460 0.9140
vn -0.3786 -0.1460 0.9140
vn 0.9140 -0.1460 0.3786
vn 0.9140 -0.1460 -0.3786
vn -0.3703 0.2522 0.8940
vn -0.3278 0.5157 0.7916
vn -0.7916 0.5157 0.3278
vn 0.3703 0.2522 -0.8940
vn 0.8940 0.2522 -0.3703
vn -0.3703 0.2522 -0.8940
vn 0.3703 0.2522 0.8940
vn 0.8940 0.2522 0.3703
vn 0.0000 1.0000 0.0000
vn 0.7916 0.5157 -0.3278
vn 0.7916 0.5157 0.3278
vn -0.7916 0.5157 -0.3278
vn 0.3278 0.5157 -0.7916
vn -0.3278 0.5157 -0.7916
vn 0.3278 0.5157 0.7916
vn -0.3997 -0.4815 0.7800
vn -0.9628 -0.1225 0.2407
vn -0.9376 0.2578 0.2332
vn -0.2407 -0.1225 -0.9628
vn -0.2332 0.2578 -0.9376
vn 0.2407 -0.1225 0.9628
vn 0.2332 0.2578 0.9376
vn 0.9628 -0.1225 -0.2407
vn 0.9376 0.2578 -0.2332
vn 0.0000 -0.9531 -0.3027
vn -0.2844 -0.9156 -0.2844
vn 0.3027 -0.9531 -0.0000
vn 0.2844 -0.9156 -0.2844
vn 0.2844 -0.9156 0.2844
s 1
f 146/1/1 135/2/2 102/3/3 3/4/4
f 117/5/5 112/6/6 109/7/7 118/8/8
f 1/9/9 164/10/10 17/11/11 20/12/12 132/13/13
f 93/14/14 8/15/15 7/16/16 94/17/17
f 12/18/18 11/19/19 103/20/20 108/21/21
f 85/22/22 91/23/23 96/24/24 88/25/25
f 160/26/26 139/27/27 126/28/28 154/29/29
f 105/30/30 100/31/31 97/32/32 106/33/33
f 137/34/34 110/35/35 114/36/36
f 153/37/37 155/38/38 119/39/39 111/40/40
f 13/41/41 165/42/42 18/43/43 25/44/44 28/45/45
f 129/46/46 124/47/47 121/48/48 130/49/49
f 22/50/50 27/51/51 34/52/52 29/53/53
f 149/54/54 151/55/55 107/56/56 99/57/57
f 141/58/58 143/59/59 92/60/60 87/61/61
f 5/62/62 162/63/63 14/64/64 27/51/65 22/50/66
f 135/65/2 98/66/67 102/67/3
f 4/68/68 2/69/69 131/70/70 123/71/71
f 17/72/72 164/73/73 10/74/74 23/75/75 26/76/76
f 20/77/12 19/78/77 127/79/78 132/80/13
f 139/27/27 122/81/79 126/28/28
f 156/82/80 165/83/81 13/84/82 16/85/83 120/86/84
f 16/85/83 15/87/85 115/88/86 120/86/84
f 158/89/87 134/90/88 90/91/89 150/92/90
f 144/93/91 162/94/92 5/95/93 8/96/15 93/97/14
f 148/98/94 137/99/34 114/100/36 142/101/95
f 9/102/96 163/103/97 6/104/98 21/105/99 24/106/100
f 157/107/101 161/108/102 147/109/103 133/110/104
f 5/111/93 6/112/105 7/16/16 8/15/15
f 9/113/106 10/114/107 11/19/19 12/18/18
f 13/84/82 14/115/108 15/87/85 16/85/83
f 17/116/11 18/117/109 19/78/77 20/77/12
f 5/118/62 22/119/66 21/105/99 6/104/98
f 23/120/75 10/121/74 9/102/96 24/106/100
f 13/41/41 28/45/45 27/122/65 14/123/64
f 17/124/72 26/125/76 25/44/44 18/43/43
f 152/126/110 163/127/111 9/113/106 12/18/18 108/21/21
f 33/128/112 36/129/113 44/130/113 41/131/112
f 27/51/51 28/132/114 33/133/115 34/52/52
f 28/45/114 25/44/116 36/129/117 33/128/115
f 23/75/118 24/134/119 31/135/120 32/136/121
f 26/76/122 23/75/118 32/136/121 35/137/123
f 21/138/124 22/50/50 29/53/53 30/139/125
f 25/140/116 26/76/122 35/137/123 36/141/117
f 24/106/119 21/105/124 30/142/125 31/143/120
f 37/144/126 42/145/127 50/146/128 45/147/129
f 31/143/130 30/142/131 38/148/131 39/149/130
f 36/129/113 35/150/132 43/151/132 44/130/113
f 32/152/133 31/143/130 39/149/130 40/153/133
f 35/137/132 32/136/133 40/154/133 43/155/132
f 29/53/134 34/52/135 42/156/135 37/157/134
f 34/158/135 33/128/112 41/131/112 42/159/135
f 30/142/131 29/160/134 37/161/134 38/148/131
f 45/162/136 50/163/137 58/164/138 53/165/139
f 42/145/127 41/166/140 49/167/141 50/146/128
f 38/168/142 37/144/126 45/147/129 46/169/143
f 41/131/140 44/130/144 52/170/145 49/171/141
f 39/149/146 38/148/142 46/172/143 47/173/147
f 44/174/144 43/175/148 51/176/149 52/177/145
f 40/178/150 39/179/146 47/180/147 48/181/151
f 43/175/148 40/178/150 48/181/151 51/176/149
f 59/182/152 56/183/153 64/184/154 67/185/155
f 50/163/137 49/186/156 57/187/157 58/164/138
f 46/188/158 45/162/136 53/165/139 54/189/159
f 49/190/156 52/191/160 60/192/161 57/193/157
f 47/194/162 46/195/158 54/196/159 55/197/163
f 52/198/160 51/199/164 59/200/152 60/201/161
f 48/202/165 47/203/162 55/204/163 56/205/153
f 51/199/164 48/202/165 56/205/153 59/200/152
f 63/206/166 62/207/167 70/208/168 71/209/169
f 53/210/139 58/211/138 66/212/170 61/213/171
f 58/214/138 57/215/157 65/216/172 66/217/170
f 54/218/159 53/210/139 61/213/171 62/219/167
f 57/220/157 60/221/161 68/222/173 65/223/172
f 55/224/163 54/218/159 62/219/167 63/225/166
f 60/221/161 59/182/152 67/185/155 68/222/173
f 56/226/153 55/227/163 63/206/166 64/228/154
f 70/229/168 69/230/174 77/231/175 78/232/176
f 68/222/173 67/185/155 75/233/177 76/234/178
f 64/228/154 63/206/166 71/209/169 72/235/179
f 67/236/155 64/228/154 72/235/179 75/237/177
f 61/238/171 66/217/170 74/239/180 69/240/174
f 66/217/170 65/216/172 73/241/181 74/239/180
f 62/219/167 61/213/171 69/230/174 70/229/168
f 65/216/172 68/242/173 76/243/178 73/241/181
f 84/244/182 83/245/182 80/246/182 79/247/182 78/248/182 77/249/182 82/250/182 81/251/182
f 73/241/181 76/243/178 84/252/183 81/253/184
f 71/209/169 70/208/168 78/254/176 79/255/185
f 76/234/178 75/233/177 83/256/186 84/257/183
f 72/235/179 71/209/169 79/255/185 80/258/187
f 75/237/177 72/235/179 80/258/187 83/259/186
f 69/240/174 74/239/180 82/260/188 77/261/175
f 74/239/180 73/241/181 81/253/184 82/260/188
f 85/22/22 86/262/189 87/263/61
f 88/25/25 89/264/190 90/265/89
f 91/23/23 92/266/60 93/267/14
f 94/17/17 95/268/191 96/269/24
f 97/32/32 98/270/67 99/271/57
f 100/31/31 101/272/192 102/273/3
f 103/274/20 104/275/193 105/276/30
f 106/33/33 107/277/56 108/278/21
f 109/7/7 110/279/35 111/280/40
f 112/6/6 113/281/194 114/282/36
f 115/283/86 116/284/195 117/285/5
f 118/8/8 119/286/39 120/287/84
f 121/48/48 122/288/79 123/289/71
f 124/47/47 125/290/196 126/291/28
f 127/79/78 128/292/197 129/293/46
f 130/49/49 131/294/70 132/295/13
f 85/22/22 88/25/25 90/265/89 86/262/189
f 96/24/24 91/23/23 93/267/14 94/296/17
f 97/32/32 100/31/31 102/273/3 98/270/67
f 105/30/30 106/33/33 108/278/21 103/297/20
f 109/7/7 112/6/6 114/282/36 110/279/35
f 117/5/5 118/8/8 120/287/84 115/298/86
f 121/48/48 124/47/47 126/291/28 122/288/79
f 129/46/46 130/49/49 132/295/13 127/299/78
f 149/54/54 99/57/57 98/66/67 150/92/90
f 87/61/61 92/60/60 91/23/23 85/22/22
f 95/300/191 89/301/190 88/302/25 96/303/24
f 151/55/55 95/300/191 94/304/17 152/305/110
f 104/306/193 101/307/192 100/31/31 105/30/30
f 99/57/57 107/56/56 106/308/33 97/309/32
f 4/68/68 123/71/71 122/310/79 3/4/4
f 2/69/69 104/306/193 103/274/20 1/9/9
f 128/311/197 125/312/196 124/313/47 129/314/46
f 123/71/71 131/70/70 130/49/49 121/48/48
f 153/37/37 111/40/40 110/35/35 154/29/29
f 155/38/38 128/311/197 127/315/78 156/316/80
f 116/317/195 113/318/194 112/6/6 117/5/5
f 111/40/40 119/39/39 118/319/8 109/320/7
f 141/58/58 87/61/61 86/321/189 142/101/95
f 143/59/59 116/317/195 115/283/86 144/93/91
f 134/90/88 86/322/189 90/91/89
f 157/107/101 133/110/104 134/90/88 158/89/87
f 145/323/198 136/324/199 135/325/2 146/326/1
f 159/327/200 140/328/201 139/329/27 160/330/26
f 147/109/103 138/331/202 137/332/34 148/98/94
f 161/108/102 159/327/200 138/331/202 147/109/103
f 133/110/104 147/109/103 148/98/94 134/333/88
f 140/328/201 145/323/198 146/326/1 139/329/27
f 92/60/60 143/59/59 144/93/91 93/97/14
f 113/318/194 141/58/58 142/101/95 114/100/36
f 131/70/70 2/69/69 1/9/9 132/13/13
f 101/307/192 4/68/68 3/4/4 102/3/3
f 134/334/88 148/98/94 142/101/95 86/321/189
f 101/307/192 104/306/193 2/69/69 4/68/68
f 113/318/194 116/317/195 143/59/59 141/58/58
f 139/335/27 146/1/1 3/4/4 122/310/79
f 145/323/198 140/328/201 159/327/200 161/108/102
f 138/331/202 159/327/200 160/330/26 137/332/34
f 136/324/199 157/107/101 158/89/87 135/65/2
f 119/39/39 155/38/38 156/316/80 120/336/84
f 125/312/196 153/37/37 154/29/29 126/28/28
f 107/56/56 151/55/55 152/305/110 108/337/21
f 89/301/190 149/54/54 150/92/90 90/91/89
f 136/324/199 145/323/198 161/108/102 157/107/101
f 135/65/2 158/89/87 150/92/90 98/66/67
f 89/301/190 95/300/191 151/55/55 149/54/54
f 125/312/196 128/311/197 155/38/38 153/37/37
f 137/34/34 160/26/26 154/29/29 110/35/35
f 7/16/16 6/112/105 163/127/111 152/126/110 94/17/17
f 11/338/19 10/339/107 164/10/10 1/9/9 103/274/20
f 19/78/77 18/117/109 165/83/81 156/82/80 127/79/78
f 15/340/85 14/341/108 162/94/92 144/93/91 115/283/86
