# Blender v2.80 (sub 75) OBJ File: 'dungeon.blend'
# www.blender.org
o Cylinder.001_Cylinder.007
v 0.002656 0.001622 -0.012559
v 0.003236 0.029551 -0.009702
v 0.009410 0.001514 -0.010748
v 0.008681 0.029928 -0.008240
v 0.014384 0.001508 -0.005783
v 0.012675 0.030347 -0.004244
v 0.016215 0.001473 0.000999
v 0.014144 0.030201 0.001217
v 0.014412 0.001491 0.007780
v 0.012684 0.030384 0.006673
v 0.009455 0.001484 0.012742
v 0.008692 0.030243 0.010664
v 0.002663 0.001328 0.014559
v 0.003237 0.029753 0.012123
v -0.004095 0.001394 0.012750
v -0.002209 0.030004 0.010661
v -0.009063 0.001309 0.007779
v -0.006195 0.029529 0.006665
v -0.010902 0.001388 0.000995
v -0.007663 0.029264 0.001205
v -0.009091 0.001372 -0.005789
v -0.006209 0.029720 -0.004253
v -0.004108 0.001436 -0.010742
v -0.002197 0.029301 -0.008236
v 0.002563 -0.000847 -0.010063
v 0.008050 -0.000987 -0.008592
v 0.012106 -0.000896 -0.004552
v 0.013598 -0.000892 0.000965
v 0.012134 -0.000862 0.006482
v 0.008096 -0.000970 0.010516
v 0.002572 -0.001095 0.011995
v -0.002925 -0.001059 0.010521
v -0.006965 -0.000994 0.006481
v -0.008464 -0.001179 0.000960
v -0.006989 -0.000897 -0.004556
v -0.002939 -0.000962 -0.008585
v 0.010705 0.032410 -0.011834
v 0.003196 0.031961 -0.013850
v 0.016209 0.032673 -0.006323
v 0.018218 0.033200 0.001199
v 0.016210 0.032841 0.008723
v 0.010702 0.032819 0.014225
v 0.003184 0.032314 0.016237
v -0.004323 0.032188 0.014220
v -0.009819 0.031726 0.008712
v -0.011846 0.032004 0.001183
v -0.009817 0.031387 -0.006334
v -0.004304 0.031708 -0.011834
v 0.017810 0.035614 -0.024579
v 0.002985 0.035246 -0.028561
v 0.028648 0.036490 -0.013715
v 0.032628 0.036235 0.001127
v 0.028645 0.036356 0.015960
v 0.017779 0.036227 0.026813
v 0.002950 0.035616 0.030780
v -0.011851 0.034440 0.026807
v -0.022698 0.033953 0.015942
v -0.026678 0.034333 0.001097
v -0.022699 0.034451 -0.013737
v -0.011834 0.034844 -0.024589
v 0.020995 0.046535 -0.030979
v 0.002559 0.046153 -0.035935
v 0.034499 0.046847 -0.017476
v 0.039399 0.047432 0.000971
v 0.034464 0.047187 0.019414
v 0.020957 0.046807 0.032901
v 0.002527 0.046156 0.037833
v -0.015885 0.045140 0.032892
v -0.029371 0.044787 0.019381
v -0.034289 0.044110 0.000945
v -0.029344 0.044390 -0.017495
v -0.015840 0.044700 -0.030987
v 0.015336 0.053349 -0.021689
v 0.002315 0.052967 -0.025195
v 0.024858 0.053864 -0.012152
v 0.028317 0.054225 0.000877
v 0.024827 0.054123 0.013900
v 0.015288 0.053770 0.023420
v 0.002277 0.053265 0.026897
v -0.010691 0.051787 0.023438
v -0.020217 0.051434 0.013891
v -0.023692 0.051686 0.000851
v -0.020197 0.051513 -0.012163
v -0.010665 0.051812 -0.021689
v 0.007760 0.056126 -0.008911
v 0.002162 0.055734 -0.010424
v 0.011877 0.056135 -0.004798
v 0.013392 0.055950 0.000824
v 0.011903 0.055673 0.006445
v 0.007791 0.055498 0.010550
v 0.002170 0.055437 0.012043
v -0.003411 0.054722 0.010548
v -0.007518 0.054569 0.006435
v -0.009031 0.054861 0.000810
v -0.007534 0.055038 -0.004804
v -0.003408 0.054819 -0.008905
v 0.023927 0.038038 -0.035746
v 0.023649 0.035739 -0.035161
v 0.002764 0.035180 -0.040768
v 0.002707 0.037841 -0.041444
v 0.039451 0.038677 -0.020203
v 0.038937 0.036221 -0.019856
v 0.045133 0.038622 0.001027
v 0.044528 0.036452 0.001044
v 0.039438 0.038640 0.022250
v 0.038919 0.036609 0.021939
v 0.023904 0.038012 0.037783
v 0.023619 0.036253 0.037231
v 0.002681 0.037474 0.043461
v 0.002731 0.035283 0.042824
v -0.018525 0.036702 0.037768
v -0.018152 0.034801 0.037218
v -0.034052 0.036345 0.022224
v -0.033438 0.034360 0.021914
v -0.039727 0.035895 0.000997
v -0.039025 0.033741 0.001015
v -0.034035 0.036087 -0.020227
v -0.033422 0.034048 -0.019882
v -0.018489 0.036373 -0.035756
v -0.018117 0.034411 -0.035172
v 0.032197 0.035588 -0.015810
v 0.019833 0.034802 -0.028195
v 0.002937 0.034129 -0.032732
v -0.013964 0.033979 -0.028207
v 0.036724 0.035611 0.001107
v 0.032189 0.035522 0.018018
v 0.019802 0.035467 0.030391
v 0.002894 0.034871 0.034914
v -0.013989 0.033803 0.030381
v -0.026355 0.033321 0.017995
v -0.030882 0.033099 0.001079
v -0.026350 0.033462 -0.015834
v 0.002996 0.010611 -0.011866
v 0.003228 0.020306 -0.010546
v 0.009087 0.020215 -0.008971
v 0.009486 0.010971 -0.010132
v 0.013403 0.020616 -0.004666
v 0.014242 0.010811 -0.005371
v 0.014983 0.020416 0.001215
v 0.016005 0.010937 0.001131
v 0.013419 0.020467 0.007093
v 0.014273 0.010874 0.007630
v 0.009121 0.020512 0.011395
v 0.009510 0.010597 0.012377
v 0.003233 0.020022 0.012962
v 0.003011 0.010640 0.014124
v -0.002621 0.020135 0.011395
v -0.003469 0.010322 0.012380
v -0.006924 0.019843 0.007086
v -0.008226 0.010335 0.007622
v -0.008518 0.019793 0.001203
v -0.009988 0.010536 0.001122
v -0.006946 0.019656 -0.004674
v -0.008250 0.010594 -0.005379
v -0.002625 0.020118 -0.008968
v -0.003474 0.010581 -0.010124
vt 0.010664 0.885043
vt 0.010664 0.885965
vt 0.010203 0.885965
vt 0.010203 0.885043
vt 0.009742 0.885965
vt 0.009742 0.885043
vt 0.009280 0.885965
vt 0.009280 0.885043
vt 0.008819 0.885965
vt 0.008819 0.885043
vt 0.008358 0.885965
vt 0.008358 0.885043
vt 0.007897 0.885965
vt 0.007897 0.885043
vt 0.007436 0.885965
vt 0.007436 0.885043
vt 0.006975 0.885965
vt 0.006975 0.885043
vt 0.006514 0.885965
vt 0.006514 0.885043
vt 0.006053 0.885965
vt 0.006053 0.885043
vt 0.009280 0.885965
vt 0.008819 0.885965
vt 0.005592 0.885965
vt 0.005592 0.885043
vt 0.005131 0.885965
vt 0.005131 0.885043
vt 0.006514 0.883199
vt 0.006053 0.883199
vt 0.006053 0.883199
vt 0.006514 0.883199
vt 0.009280 0.883143
vt 0.009944 0.882966
vt 0.010430 0.882479
vt 0.010608 0.881815
vt 0.010430 0.881151
vt 0.009944 0.880665
vt 0.009280 0.880488
vt 0.008616 0.880665
vt 0.008130 0.881151
vt 0.007952 0.881815
vt 0.008130 0.882479
vt 0.008616 0.882966
vt 0.006975 0.883199
vt 0.006975 0.883199
vt 0.007436 0.883199
vt 0.007436 0.883199
vt 0.007897 0.883199
vt 0.007897 0.883199
vt 0.008358 0.883199
vt 0.008358 0.883199
vt 0.008819 0.883199
vt 0.008819 0.883199
vt 0.009280 0.883199
vt 0.009280 0.883199
vt 0.005592 0.883199
vt 0.005131 0.883199
vt 0.005131 0.883199
vt 0.005592 0.883199
vt 0.010664 0.883199
vt 0.010203 0.883199
vt 0.010203 0.883199
vt 0.010664 0.883199
vt 0.009742 0.883199
vt 0.009742 0.883199
vt 0.009742 0.885965
vt 0.009742 0.885965
vt 0.009280 0.885965
vt 0.005592 0.885965
vt 0.005131 0.885965
vt 0.010664 0.885965
vt 0.010203 0.885965
vt 0.006053 0.885965
vt 0.006514 0.885965
vt 0.006975 0.885965
vt 0.007436 0.885965
vt 0.007897 0.885965
vt 0.008358 0.885965
vt 0.022584 0.928048
vt 0.023696 0.928086
vt 0.023557 0.928611
vt 0.022708 0.928560
vt 0.006514 0.885965
vt 0.006053 0.885965
vt 0.007897 0.885965
vt 0.007436 0.885965
vt 0.008819 0.885965
vt 0.005592 0.885965
vt 0.010664 0.885965
vt 0.010203 0.885965
vt 0.006975 0.885965
vt 0.008358 0.885965
vt 0.005131 0.885965
vt 0.020911 0.930609
vt 0.020978 0.929510
vt 0.021498 0.929671
vt 0.021430 0.930510
vt 0.024545 0.931805
vt 0.023499 0.932356
vt 0.023404 0.931798
vt 0.024181 0.931392
vt 0.021404 0.931622
vt 0.021823 0.931260
vt 0.021568 0.928536
vt 0.021939 0.928940
vt 0.024661 0.928695
vt 0.025169 0.929702
vt 0.024653 0.929826
vt 0.024285 0.929062
vt 0.022343 0.932273
vt 0.022524 0.931758
vt 0.020299 0.929296
vt 0.021048 0.927954
vt 0.021492 0.928454
vt 0.020852 0.929471
vt 0.025823 0.929571
vt 0.025823 0.931031
vt 0.025264 0.930857
vt 0.025308 0.929671
vt 0.022329 0.929365
vt 0.022039 0.929843
vt 0.023901 0.927396
vt 0.025280 0.928134
vt 0.024773 0.928590
vt 0.023733 0.927960
vt 0.023664 0.933182
vt 0.022112 0.932913
vt 0.022297 0.932403
vt 0.023525 0.932492
vt 0.020289 0.930723
vt 0.020794 0.930631
vt 0.022456 0.927418
vt 0.022558 0.927926
vt 0.025056 0.932356
vt 0.024634 0.931901
vt 0.020800 0.932133
vt 0.021305 0.931706
vt 0.025102 0.930809
vt 0.024593 0.930656
vt 0.022726 0.931197
vt 0.022248 0.930902
vt 0.022708 0.930490
vt 0.022915 0.930621
vt 0.023861 0.929447
vt 0.023386 0.929154
vt 0.023284 0.931223
vt 0.021983 0.930399
vt 0.022834 0.929116
vt 0.023789 0.930974
vt 0.024067 0.930495
vt 0.024107 0.929949
vt 0.023517 0.930078
vt 0.023506 0.930315
vt 0.023373 0.930521
vt 0.023156 0.930633
vt 0.022596 0.930272
vt 0.022610 0.930029
vt 0.022743 0.929823
vt 0.022961 0.929713
vt 0.023205 0.929728
vt 0.023408 0.929862
vt 0.006975 0.885965
vt 0.006514 0.885965
vt 0.005592 0.885965
vt 0.005131 0.885965
vt 0.008819 0.885965
vt 0.008358 0.885965
vt 0.007436 0.885965
vt 0.010203 0.885965
vt 0.009742 0.885965
vt 0.006053 0.885965
vt 0.009280 0.885965
vt 0.007897 0.885965
vt 0.010664 0.885965
vt 0.005592 0.884121
vt 0.005131 0.884121
vt 0.006053 0.884121
vt 0.006514 0.884121
vt 0.006975 0.884121
vt 0.007436 0.884121
vt 0.007897 0.884121
vt 0.008358 0.884121
vt 0.008819 0.884121
vt 0.009280 0.884121
vt 0.009742 0.884121
vt 0.010203 0.884121
vt 0.010664 0.884121
vn -0.0012 0.1138 -0.9935
vn 0.0290 -0.4957 -0.8680
vn 0.4620 -0.4959 -0.7353
vn 0.4962 0.1069 -0.8616
vn 0.7625 -0.4995 -0.4111
vn 0.8615 0.0991 -0.4980
vn 0.8866 -0.4625 0.0045
vn 0.9954 0.0958 -0.0003
vn 0.7615 -0.4863 0.4285
vn 0.8624 0.0948 0.4972
vn 0.4558 -0.4915 0.7421
vn 0.4955 0.0969 0.8632
vn 0.0189 -0.4789 0.8776
vn -0.0011 0.1033 0.9947
vn -0.4076 -0.5264 0.7462
vn -0.4973 0.1087 0.8608
vn -0.7377 -0.5064 0.4465
vn -0.8599 0.1168 0.4969
vn -0.8716 -0.4902 0.0064
vn -0.9924 0.1227 0.0025
vn -0.7270 -0.5498 -0.4113
vn -0.8593 0.1248 -0.4960
vn 0.5545 -0.8321 0.0077
vn 0.4762 -0.8410 0.2569
vn -0.4218 -0.5027 -0.7546
vn -0.4969 0.1194 -0.8596
vn -0.9487 -0.3163 -0.0003
vn -0.8187 -0.3206 -0.4763
vn -0.3702 -0.9023 -0.2210
vn -0.4261 -0.9046 -0.0044
vn 0.0024 -0.8997 -0.4364
vn 0.2099 -0.9043 -0.3718
vn 0.3634 -0.9068 -0.2137
vn 0.4118 -0.9112 -0.0043
vn 0.3597 -0.9107 0.2030
vn 0.2147 -0.9093 0.3564
vn 0.0034 -0.9087 0.4174
vn -0.2115 -0.9072 0.3637
vn -0.3704 -0.9041 0.2130
vn -0.2050 -0.9052 -0.3724
vn -0.8174 -0.3283 0.4733
vn -0.4740 -0.3360 0.8139
vn -0.0004 -0.3547 0.9350
vn 0.4688 -0.3606 0.8063
vn 0.8044 -0.3715 0.4637
vn 0.9278 -0.3730 -0.0027
vn -0.4692 -0.3278 -0.8200
vn -0.0024 -0.3240 -0.9461
vn 0.4649 -0.3458 -0.8150
vn 0.8067 -0.3596 -0.4690
vn 0.2292 -0.9734 -0.0004
vn 0.2200 -0.9709 -0.0945
vn 0.0055 -0.9996 0.0261
vn -0.0091 -1.0000 -0.0015
vn -0.2140 -0.8841 -0.4153
vn 0.0438 -0.8634 -0.5027
vn 0.2951 -0.8604 -0.4155
vn 0.4767 -0.8487 -0.2292
vn -0.3979 -0.8917 -0.2156
vn -0.4891 -0.8722 0.0112
vn -0.4057 -0.8758 0.2614
vn -0.2187 -0.8715 0.4390
vn 0.0320 -0.8607 0.5081
vn 0.2968 -0.8456 0.4438
vn 0.8565 0.1387 0.4972
vn 0.9887 0.1496 -0.0005
vn 0.7101 0.7041 -0.0037
vn 0.6128 0.7002 0.3662
vn -0.1563 -0.9827 -0.0998
vn -0.1713 -0.9852 -0.0069
vn 0.0673 -0.9977 -0.0053
vn 0.0624 -0.9979 0.0149
vn -0.0392 -0.9846 0.1705
vn 0.0546 -0.9766 0.2078
vn 0.0510 -0.9986 -0.0106
vn 0.0537 -0.9986 0.0027
vn 0.2001 -0.9738 0.1084
vn -0.0070 -0.9999 -0.0100
vn -0.0792 -0.9775 -0.1955
vn 0.0413 -0.9988 0.0249
vn 0.1491 -0.9736 -0.1730
vn 0.0307 -0.9764 -0.2138
vn 0.0265 -0.9986 0.0450
vn 0.0205 -0.9986 0.0496
vn -0.1204 -0.9897 0.0768
vn 0.0506 -0.9986 -0.0126
vn 0.1406 -0.9716 0.1901
vn 0.0156 -0.9997 -0.0173
vn -0.5009 0.1174 0.8575
vn -0.0056 0.1266 0.9919
vn -0.0302 0.6948 0.7186
vn -0.3831 0.6923 0.6115
vn -0.5012 0.1179 -0.8572
vn -0.8608 0.1156 -0.4956
vn -0.6357 0.6838 -0.3581
vn -0.3906 0.6840 -0.6161
vn -0.8620 0.1169 0.4932
vn -0.6318 0.6927 0.3478
vn 0.4927 0.1269 0.8609
vn 0.3424 0.6959 0.6312
vn 0.8535 0.1597 -0.4961
vn 0.4920 0.1517 -0.8573
vn 0.3451 0.6990 -0.6263
vn 0.6104 0.7009 -0.3690
vn -0.9935 0.1141 -0.0017
vn -0.7313 0.6820 -0.0051
vn 0.0368 -0.9959 0.0826
vn 0.0770 -0.9943 0.0732
vn 0.3584 -0.7306 0.5812
vn 0.0244 -0.7406 0.6715
vn 0.0798 -0.9934 -0.0827
vn 0.0311 -0.9938 -0.1071
vn 0.0223 -0.7198 -0.6938
vn 0.3667 -0.7124 -0.5983
vn 0.1592 0.9301 0.3311
vn -0.0577 0.9261 0.3727
vn 0.1091 -0.9940 0.0080
vn 0.0957 -0.9948 -0.0343
vn 0.6112 -0.7156 -0.3383
vn 0.6972 -0.7169 0.0045
vn -0.0503 -0.9975 -0.0492
vn -0.0842 -0.9964 0.0060
vn -0.6636 -0.7481 0.0042
vn -0.5662 -0.7511 -0.3394
vn -0.0303 -0.9941 0.1040
vn -0.3221 -0.7365 0.5949
vn 0.1086 -0.9924 0.0573
vn 0.6025 -0.7211 0.3422
vn -0.0159 -0.9967 -0.0799
vn -0.3168 -0.7430 -0.5895
vn -0.0865 -0.9931 0.0787
vn -0.5775 -0.7367 0.3519
vn -0.0067 0.1512 -0.9885
vn -0.0313 0.6984 -0.7150
vn -0.4218 0.9067 0.0011
vn -0.3603 0.9123 0.1946
vn -0.1329 0.9886 0.0705
vn -0.1495 0.9886 0.0152
vn 0.3148 0.9262 -0.2075
vn 0.3589 0.9334 -0.0036
vn -0.3730 0.9044 -0.2070
vn -0.2454 0.9151 0.3199
vn 0.3006 0.9337 0.1945
vn -0.2517 0.9060 -0.3403
vn -0.0559 0.9190 -0.3902
vn 0.1716 0.9211 -0.3495
vn 0.0084 0.9959 -0.0896
vn -0.0665 0.9931 -0.0967
vn -0.1178 0.9893 -0.0861
vn -0.1376 0.9890 -0.0544
vn -0.1184 0.9891 0.0876
vn -0.0679 0.9936 0.0899
vn -0.0054 0.9969 0.0779
vn 0.0232 0.9984 0.0517
vn 0.0435 0.9990 0.0096
vn 0.0433 0.9980 -0.0458
vn 0.1733 -0.9820 -0.0755
vn 0.2372 -0.9715 -0.0038
vn 0.1275 -0.9750 0.1818
vn 0.0241 -0.9730 0.2297
vn -0.1557 -0.9832 -0.0950
vn -0.0739 -0.9833 -0.1664
vn 0.1196 -0.9859 -0.1167
vn -0.0713 -0.9754 0.2086
vn -0.1488 -0.9823 0.1137
vn 0.2178 -0.9712 0.0963
vn -0.1801 -0.9836 -0.0018
vn 0.0489 -0.9848 -0.1669
vn -0.4966 0.1204 -0.8596
vn -0.0011 0.1054 -0.9944
vn -0.8586 0.1293 -0.4961
vn -0.9918 0.1278 0.0030
vn -0.8589 0.1159 0.4989
vn -0.4979 0.0997 0.8615
vn -0.0007 0.0837 0.9965
vn 0.4980 0.0683 0.8645
vn 0.8644 0.0625 0.4989
vn 0.9979 0.0641 -0.0012
vn 0.8635 0.0727 -0.4991
vn 0.4978 0.0899 -0.8626
s 1
f 134/1/1 2/2/2 4/3/3 135/4/4
f 135/4/4 4/3/3 6/5/5 137/6/6
f 137/6/6 6/5/5 8/7/7 139/8/8
f 139/8/8 8/7/7 10/9/9 141/10/10
f 141/10/10 10/9/9 12/11/11 143/12/12
f 143/12/12 12/11/11 14/13/13 145/14/14
f 145/14/14 14/13/13 16/15/15 147/16/16
f 147/16/16 16/15/15 18/17/17 149/18/18
f 149/18/18 18/17/17 20/19/19 151/20/20
f 151/20/20 20/19/19 22/21/21 153/22/22
f 10/9/9 8/7/7 40/23/23 41/24/24
f 153/22/22 22/21/21 24/25/25 155/26/26
f 155/26/26 24/25/25 2/27/2 134/28/1
f 19/29/27 21/30/28 35/31/29 34/32/30
f 25/33/31 26/34/32 27/35/33 28/36/34 29/37/35 30/38/36 31/39/37 32/40/38 33/41/39 34/42/30 35/43/29 36/44/40
f 17/45/41 19/29/27 34/32/30 33/46/39
f 15/47/42 17/45/41 33/46/39 32/48/38
f 13/49/43 15/47/42 32/48/38 31/50/37
f 11/51/44 13/49/43 31/50/37 30/52/36
f 9/53/45 11/51/44 30/52/36 29/54/35
f 7/55/46 9/53/45 29/54/35 28/56/34
f 23/57/47 1/58/48 25/59/31 36/60/40
f 1/61/48 3/62/49 26/63/32 25/64/31
f 5/65/50 7/55/46 28/56/34 27/66/33
f 21/30/28 23/57/47 36/60/40 35/31/29
f 3/62/49 5/65/50 27/66/33 26/63/32
f 40/23/51 39/67/52 51/68/53 52/69/54
f 2/27/2 24/25/25 48/70/55 38/71/56
f 4/3/3 2/2/2 38/72/56 37/73/57
f 8/7/7 6/5/5 39/67/58 40/23/23
f 24/25/25 22/21/21 47/74/59 48/70/55
f 6/5/5 4/3/3 37/73/57 39/67/58
f 22/21/21 20/19/19 46/75/60 47/74/59
f 20/19/19 18/17/17 45/76/61 46/75/60
f 18/17/17 16/15/15 44/77/62 45/76/61
f 16/15/15 14/13/13 43/78/63 44/77/62
f 14/13/13 12/11/11 42/79/64 43/78/63
f 12/11/11 10/9/9 41/24/24 42/79/64
f 105/80/65 103/81/66 64/82/67 65/83/68
f 47/74/69 46/75/70 58/84/71 59/85/72
f 44/77/73 43/78/74 55/86/75 56/87/76
f 41/24/77 40/23/51 52/69/54 53/88/78
f 48/70/79 47/74/69 59/85/72 60/89/80
f 37/73/81 38/72/82 50/90/83 49/91/84
f 45/76/85 44/77/73 56/87/76 57/92/86
f 42/79/87 41/24/77 53/88/78 54/93/88
f 38/71/82 48/70/79 60/89/80 50/94/83
f 39/67/52 37/73/81 49/91/84 51/68/53
f 46/75/70 45/76/85 57/92/86 58/84/71
f 43/78/74 42/79/87 54/93/88 55/86/75
f 111/95/89 109/96/90 67/97/91 68/98/92
f 119/99/93 117/100/94 71/101/95 72/102/96
f 113/103/97 111/95/89 68/98/92 69/104/98
f 107/105/99 105/80/65 65/83/68 66/106/100
f 101/107/101 97/108/102 61/109/103 63/110/104
f 115/111/105 113/103/97 69/104/98 70/112/106
f 128/113/107 127/114/108 108/115/109 110/116/110
f 103/81/66 101/107/101 63/110/104 64/82/67
f 122/117/111 123/118/112 99/119/113 98/120/114
f 117/100/94 115/111/105 70/112/106 71/101/95
f 109/96/90 107/105/99 66/106/100 67/97/91
f 67/97/91 66/106/100 78/121/115 79/122/116
f 125/123/117 121/124/118 102/125/119 104/126/120
f 132/127/121 131/128/122 116/129/123 118/130/124
f 129/131/125 128/113/107 110/116/110 112/132/126
f 126/133/127 125/123/117 104/126/120 106/134/128
f 124/135/129 132/127/121 118/130/124 120/136/130
f 121/124/118 122/117/111 98/120/114 102/125/119
f 130/137/131 129/131/125 112/132/126 114/138/132
f 127/114/108 126/133/127 106/134/128 108/115/109
f 123/118/112 124/135/129 120/136/130 99/119/113
f 100/139/133 119/99/93 72/102/96 62/140/134
f 131/128/122 130/137/131 114/138/132 116/129/123
f 82/141/135 81/142/136 93/143/137 94/144/138
f 64/82/67 63/110/104 75/145/139 76/146/140
f 71/101/95 70/112/106 82/141/135 83/147/141
f 68/98/92 67/97/91 79/122/116 80/148/142
f 65/83/68 64/82/67 76/146/140 77/149/143
f 72/102/96 71/101/95 83/147/141 84/150/144
f 61/109/103 62/140/134 74/151/145 73/152/146
f 69/104/98 68/98/92 80/148/142 81/142/136
f 66/106/100 65/83/68 77/149/143 78/121/115
f 62/140/134 72/102/96 84/150/144 74/151/145
f 63/110/104 61/109/103 73/152/146 75/145/139
f 70/112/106 69/104/98 81/142/136 82/141/135
f 85/153/147 86/154/148 96/155/149 95/156/150 94/144/138 93/143/137 92/157/151 91/158/152 90/159/153 89/160/154 88/161/155 87/162/156
f 79/122/116 78/121/115 90/159/153 91/158/152
f 76/146/140 75/145/139 87/162/156 88/161/155
f 83/147/141 82/141/135 94/144/138 95/156/150
f 80/148/142 79/122/116 91/158/152 92/157/151
f 77/149/143 76/146/140 88/161/155 89/160/154
f 84/150/144 83/147/141 95/156/150 96/155/149
f 73/152/146 74/151/145 86/154/148 85/153/147
f 81/142/136 80/148/142 92/157/151 93/143/137
f 78/121/115 77/149/143 89/160/154 90/159/153
f 74/151/145 84/150/144 96/155/149 86/154/148
f 75/145/139 73/152/146 85/153/147 87/162/156
f 98/120/114 99/119/113 100/139/133 97/108/102
f 102/125/119 98/120/114 97/108/102 101/107/101
f 104/126/120 102/125/119 101/107/101 103/81/66
f 106/134/128 104/126/120 103/81/66 105/80/65
f 108/115/109 106/134/128 105/80/65 107/105/99
f 110/116/110 108/115/109 107/105/99 109/96/90
f 112/132/126 110/116/110 109/96/90 111/95/89
f 114/138/132 112/132/126 111/95/89 113/103/97
f 116/129/123 114/138/132 113/103/97 115/111/105
f 118/130/124 116/129/123 115/111/105 117/100/94
f 120/136/130 118/130/124 117/100/94 119/99/93
f 99/119/113 120/136/130 119/99/93 100/139/133
f 97/108/102 100/139/133 62/140/134 61/109/103
f 58/84/71 57/92/86 130/163/157 131/164/158
f 50/94/83 60/89/80 124/165/159 123/166/160
f 54/93/88 53/88/78 126/167/161 127/168/162
f 57/92/86 56/87/76 129/169/163 130/163/157
f 51/68/53 49/91/84 122/170/164 121/171/165
f 60/89/80 59/85/72 132/172/166 124/165/159
f 53/88/78 52/69/54 125/173/167 126/167/161
f 56/87/76 55/86/75 128/174/168 129/169/163
f 59/85/72 58/84/71 131/164/158 132/172/166
f 52/69/54 51/68/53 121/171/165 125/173/167
f 49/91/84 50/90/83 123/175/160 122/170/164
f 55/86/75 54/93/88 127/168/162 128/174/168
f 23/57/47 156/176/169 133/177/170 1/58/48
f 156/176/169 155/26/26 134/28/1 133/177/170
f 21/30/28 154/178/171 156/176/169 23/57/47
f 154/178/171 153/22/22 155/26/26 156/176/169
f 19/29/27 152/179/172 154/178/171 21/30/28
f 152/179/172 151/20/20 153/22/22 154/178/171
f 17/45/41 150/180/173 152/179/172 19/29/27
f 150/180/173 149/18/18 151/20/20 152/179/172
f 15/47/42 148/181/174 150/180/173 17/45/41
f 148/181/174 147/16/16 149/18/18 150/180/173
f 13/49/43 146/182/175 148/181/174 15/47/42
f 146/182/175 145/14/14 147/16/16 148/181/174
f 11/51/44 144/183/176 146/182/175 13/49/43
f 144/183/176 143/12/12 145/14/14 146/182/175
f 9/53/45 142/184/177 144/183/176 11/51/44
f 142/184/177 141/10/10 143/12/12 144/183/176
f 7/55/46 140/185/178 142/184/177 9/53/45
f 140/185/178 139/8/8 141/10/10 142/184/177
f 5/65/50 138/186/179 140/185/178 7/55/46
f 138/186/179 137/6/6 139/8/8 140/185/178
f 3/62/49 136/187/180 138/186/179 5/65/50
f 136/187/180 135/4/4 137/6/6 138/186/179
f 1/61/48 133/188/170 136/187/180 3/62/49
f 133/188/170 134/1/1 135/4/4 136/187/180
