# Blender v2.80 (sub 75) OBJ File: 'dungeon.blend'
# www.blender.org
v 0.021951 0.072806 0.002796
v -0.000000 -0.156134 0.000091
v 0.021951 0.072806 -0.002614
v -0.021951 0.072806 0.002796
v -0.021951 0.072806 -0.002614
v 0.000000 0.071956 -0.009854
v 0.000000 0.071956 0.010036
v 0.023449 0.070782 0.000091
v -0.023449 0.070782 0.000091
v 0.010131 -0.106134 0.005076
v 0.010131 -0.106134 -0.004894
v -0.010132 -0.106134 -0.004894
v -0.010132 -0.106134 0.005076
v -0.000000 -0.106134 0.007294
v -0.000000 -0.106134 -0.007111
v -0.015590 -0.106134 0.000091
v 0.015590 -0.106134 0.000091
v 0.005161 -0.131129 0.005076
v 0.005161 -0.131129 -0.004894
v -0.005161 -0.131129 -0.004894
v -0.005161 -0.131129 0.005076
v -0.000000 -0.131129 0.006035
v -0.000000 -0.131129 -0.005852
v -0.010620 -0.131129 0.000091
v 0.010620 -0.131129 0.000091
v 0.022023 0.083005 0.000091
v 0.020475 0.081275 0.002310
v 0.000000 0.085785 -0.008108
v 0.020475 0.081275 -0.002128
v -0.022023 0.083005 0.000091
v -0.020475 0.081275 -0.002128
v 0.000000 0.085785 0.008290
v -0.020475 0.081275 0.002310
v 0.006894 0.136992 0.000091
v -0.045212 0.070941 0.000091
v -0.041355 0.070941 -0.004998
v -0.041355 0.085760 -0.004998
v -0.041355 0.070941 0.005181
v -0.045212 0.085760 0.000091
v -0.041355 0.085760 0.005181
v 0.045212 0.070941 0.000091
v 0.041355 0.070941 0.005181
v 0.041355 0.070941 -0.004998
v 0.045212 0.085760 0.000091
v 0.041355 0.085760 0.005181
v 0.041355 0.085760 -0.004998
v 0.006016 0.065605 -0.004496
v -0.006016 0.065605 -0.004496
v -0.006016 0.065605 0.004678
v 0.000000 0.051268 0.007294
v 0.000000 0.051268 -0.007111
v -0.012889 0.065452 0.000091
v 0.012889 0.065452 0.000091
v 0.006016 0.065605 0.004678
v 0.000000 0.065364 -0.009709
v 0.000000 0.065364 0.009891
v -0.018312 0.068367 0.000091
v 0.018312 0.068367 0.000091
v 0.033860 0.073776 0.003374
v 0.033885 0.082982 0.003258
v 0.033885 0.082982 -0.003076
v 0.033860 0.073776 -0.003192
v 0.034801 0.084147 0.000091
v 0.036415 0.072768 0.000091
v -0.034801 0.084147 0.000091
v -0.033885 0.082982 0.003258
v -0.036415 0.072768 0.000091
v -0.033860 0.073776 -0.003192
v -0.033860 0.073776 0.003374
v -0.033885 0.082982 -0.003076
v 0.007900 0.088753 0.000091
v 0.004552 0.089490 0.004018
v 0.000000 0.090982 -0.005898
v 0.004552 0.089490 -0.003836
v -0.007900 0.088753 0.000091
v -0.004552 0.089490 -0.003836
v 0.000000 0.090982 0.006080
v -0.004552 0.089490 0.004018
v 0.011023 0.139805 0.000091
v 0.004213 0.137088 0.004155
v 0.000000 0.134354 -0.006495
v 0.004331 0.137039 -0.003790
v -0.006894 0.136992 0.000091
v -0.004331 0.137039 -0.003790
v 0.000000 0.134354 0.006677
v -0.004213 0.137088 0.004155
v 0.009842 0.150911 0.000091
v 0.000000 0.138847 -0.010496
v -0.011023 0.139805 0.000091
v 0.000000 0.138798 0.010496
v 0.000000 0.155222 -0.004475
v -0.009842 0.150911 0.000091
v 0.000000 0.155222 0.004657
v 0.000000 0.156134 0.000091
v -0.041354 0.087529 0.000091
v 0.041354 0.087529 0.000091
v -0.027204 0.081783 0.002526
v -0.027970 0.073644 -0.002645
v -0.027970 0.073644 0.002828
v -0.028385 0.083159 0.000091
v -0.029781 0.072177 0.000091
v -0.027204 0.081783 -0.002344
v 0.027204 0.081783 0.002526
v 0.027970 0.073644 -0.002645
v 0.028385 0.083159 0.000091
v 0.029781 0.072177 0.000091
v 0.027970 0.073644 0.002828
v 0.027204 0.081783 -0.002344
vt 0.054993 0.942895
vt 0.056194 0.942057
vt 0.055776 0.942905
vt 0.056409 0.942901
vt 0.056988 0.942891
vt 0.051330 0.942895
vt 0.052531 0.942057
vt 0.052113 0.942905
vt 0.052747 0.942901
vt 0.053326 0.942891
vt 0.082458 0.947098
vt 0.082373 0.946282
vt 0.083457 0.946297
vt 0.087764 0.943355
vt 0.087520 0.943124
vt 0.087537 0.942332
vt 0.087931 0.942677
vt 0.088844 0.946184
vt 0.088425 0.946204
vt 0.088446 0.945916
vt 0.085547 0.946964
vt 0.085467 0.946135
vt 0.086551 0.946165
vt 0.057487 0.942866
vt 0.053825 0.942866
vt 0.053779 0.949366
vt 0.053956 0.943707
vt 0.054455 0.943682
vt 0.054455 0.949335
vt 0.057441 0.949366
vt 0.057618 0.943707
vt 0.058118 0.943682
vt 0.058118 0.949335
vt 0.056028 0.949382
vt 0.055238 0.943734
vt 0.056491 0.943728
vt 0.056782 0.948911
vt 0.052365 0.949382
vt 0.051575 0.943734
vt 0.052829 0.943728
vt 0.053120 0.948911
vt 0.051427 0.949370
vt 0.050792 0.943724
vt 0.055090 0.949370
vt 0.083130 0.948175
vt 0.083874 0.946315
vt 0.083768 0.946739
vt 0.086211 0.948070
vt 0.086967 0.946204
vt 0.086858 0.946640
vt 0.086255 0.944469
vt 0.086867 0.945839
vt 0.088603 0.944007
vt 0.088475 0.943925
vt 0.088259 0.942346
vt 0.088555 0.942645
vt 0.082468 0.945512
vt 0.082493 0.944384
vt 0.083153 0.944520
vt 0.082534 0.949360
vt 0.083250 0.949364
vt 0.083451 0.950014
vt 0.082299 0.950014
vt 0.086397 0.943273
vt 0.085681 0.943273
vt 0.085459 0.942582
vt 0.086611 0.942582
vt 0.085566 0.945401
vt 0.085596 0.944330
vt 0.085394 0.950284
vt 0.085370 0.949857
vt 0.086522 0.949857
vt 0.086545 0.950284
vt 0.082345 0.942632
vt 0.082376 0.942332
vt 0.083528 0.942332
vt 0.083496 0.942632
vt 0.085608 0.949229
vt 0.086324 0.949233
vt 0.087257 0.943355
vt 0.087145 0.942677
vt 0.088083 0.946308
vt 0.083287 0.943315
vt 0.082571 0.943317
vt 0.082326 0.950401
vt 0.083478 0.950401
vt 0.085491 0.942332
vt 0.086643 0.942332
vt 0.088434 0.945539
vt 0.088851 0.945577
vt 0.088451 0.945916
vt 0.088083 0.945596
vt 0.087517 0.946376
vt 0.087275 0.946603
vt 0.087104 0.945937
vt 0.087496 0.945591
vt 0.087782 0.946603
vt 0.087890 0.945937
vt 0.081861 0.946283
vt 0.080781 0.946305
vt 0.084955 0.946137
vt 0.088083 0.948843
vt 0.087476 0.948191
vt 0.087499 0.947542
vt 0.082160 0.944915
vt 0.082352 0.944274
vt 0.087544 0.944282
vt 0.087571 0.944920
vt 0.086967 0.945591
vt 0.082326 0.948459
vt 0.082142 0.947818
vt 0.087739 0.947131
vt 0.087512 0.946972
vt 0.088420 0.944488
vt 0.088573 0.944547
vt 0.088526 0.945069
vt 0.088314 0.945028
vt 0.088788 0.944478
vt 0.088791 0.945016
vt 0.086301 0.943873
vt 0.085668 0.943800
vt 0.082530 0.948839
vt 0.083165 0.948774
vt 0.083195 0.943918
vt 0.082561 0.943847
vt 0.088579 0.947417
vt 0.088432 0.947581
vt 0.088321 0.946990
vt 0.088528 0.946845
vt 0.082469 0.948302
vt 0.085607 0.948720
vt 0.086242 0.948658
vt 0.088796 0.947522
vt 0.088794 0.946913
vt 0.087724 0.943883
vt 0.087528 0.943717
vt 0.006177 0.934051
vt 0.005307 0.933818
vt 0.005362 0.927383
vt 0.006252 0.926990
vt 0.003511 0.927344
vt 0.004382 0.927111
vt 0.004456 0.934172
vt 0.003566 0.933778
vt 0.010693 0.934164
vt 0.009767 0.934043
vt 0.009879 0.926990
vt 0.010693 0.927007
vt 0.005307 0.926990
vt 0.005307 0.934147
vt 0.088611 0.947965
vt 0.088822 0.948112
vt 0.088844 0.949255
vt 0.088551 0.949034
vt 0.083773 0.945927
vt 0.088490 0.948166
vt 0.088257 0.949351
vt 0.088810 0.943917
vt 0.088851 0.942332
vt 0.088943 0.944340
vt 0.089202 0.943750
vt 0.089388 0.945268
vt 0.088071 0.944387
vt 0.085525 0.947701
vt 0.086359 0.947657
vt 0.086807 0.948584
vt 0.084088 0.948074
vt 0.008898 0.933810
vt 0.008952 0.927376
vt 0.007103 0.934172
vt 0.007103 0.927015
vt 0.007103 0.927344
vt 0.007972 0.927111
vt 0.008084 0.934164
vt 0.007157 0.933778
vt 0.008898 0.926990
vt 0.008898 0.934147
vt 0.086624 0.950299
vt 0.084088 0.943229
vt 0.084088 0.946989
vt 0.082051 0.946484
vt 0.086697 0.944719
vt 0.085383 0.943298
vt 0.086146 0.942535
vt 0.086697 0.943239
vt 0.082715 0.943305
vt 0.083510 0.942535
vt 0.086632 0.947039
vt 0.087533 0.948240
vt 0.088318 0.950458
vt 0.086807 0.948713
vt 0.087092 0.946997
vt 0.083656 0.947450
vt 0.088318 0.947938
vt 0.089187 0.946997
vt 0.086697 0.946997
vt 0.084661 0.946476
vt 0.088083 0.945591
vt 0.087732 0.944420
vt 0.087314 0.944420
vt 0.087730 0.947672
vt 0.087312 0.947672
vt 0.086967 0.948843
vt 0.087302 0.943883
vt 0.085549 0.948191
vt 0.087317 0.947131
vt 0.081932 0.945216
vt 0.085225 0.947738
vt 0.085002 0.947441
vt 0.086967 0.948941
vt 0.087509 0.948843
vt 0.087104 0.949306
vt 0.081918 0.947517
vt 0.083874 0.946183
vt 0.087261 0.943667
vt 0.084088 0.944177
vt 0.084673 0.946997
vt 0.081464 0.944191
vt 0.087416 0.946997
vt 0.084861 0.950299
vt 0.086967 0.950260
vn 0.6615 -0.1942 -0.7244
vn 0.6482 -0.2753 -0.7099
vn 0.6595 -0.2085 -0.7222
vn -0.1916 -0.1353 -0.9721
vn -0.1779 -0.2276 -0.9574
vn -0.1928 -0.1266 -0.9731
vn -0.6615 -0.1942 0.7244
vn -0.6482 -0.2753 0.7099
vn -0.6595 -0.2085 0.7222
vn 0.1916 -0.1353 0.9721
vn 0.1779 -0.2276 0.9574
vn 0.1928 -0.1266 0.9731
vn 0.6706 -0.0487 -0.7403
vn 0.6971 0.0574 -0.7147
vn 0.7126 0.0879 -0.6960
vn 0.2651 -0.9603 0.0874
vn 0.2661 -0.9640 -0.0000
vn -0.1928 -0.1266 0.9731
vn -0.1779 -0.2276 0.9574
vn -0.1916 -0.1353 0.9721
vn 0.1928 -0.1266 -0.9731
vn 0.1779 -0.2276 -0.9574
vn 0.1916 -0.1353 -0.9721
vn 0.1615 0.9408 0.2982
vn 0.0097 1.0000 0.0000
vn -0.4167 0.9091 0.0000
vn -0.6706 -0.0487 0.7403
vn -0.6971 0.0574 0.7147
vn -0.7126 0.0879 0.6960
vn -0.6595 -0.2085 -0.7222
vn -0.6482 -0.2753 -0.7099
vn -0.6615 -0.1942 -0.7244
vn 0.6595 -0.2085 0.7222
vn 0.6482 -0.2753 0.7099
vn 0.6615 -0.1942 0.7244
vn 0.5808 -0.2095 0.7866
vn 0.6441 -0.0630 0.7624
vn 0.6418 -0.0569 0.7648
vn 0.7501 -0.6613 0.0000
vn -0.5808 -0.2095 -0.7866
vn -0.6441 -0.0630 -0.7624
vn -0.6418 -0.0569 -0.7648
vn -0.7501 -0.6613 0.0000
vn 0.2829 0.0047 -0.9591
vn 0.2456 -0.0187 -0.9692
vn 0.2435 -0.0200 -0.9697
vn -0.2829 0.0047 0.9591
vn -0.2456 -0.0187 0.9692
vn -0.2435 -0.0200 0.9697
vn 0.2829 0.0047 0.9591
vn 0.2435 -0.0200 0.9697
vn 0.2456 -0.0187 0.9692
vn -0.6418 -0.0569 0.7648
vn -0.6441 -0.0630 0.7624
vn -0.5808 -0.2095 0.7866
vn -0.2829 0.0047 -0.9591
vn -0.2435 -0.0200 -0.9697
vn -0.2456 -0.0187 -0.9692
vn 0.6418 -0.0569 -0.7648
vn 0.6441 -0.0630 -0.7624
vn 0.5808 -0.2095 -0.7866
vn 0.2556 0.8101 -0.5277
vn 0.3702 0.4695 -0.8016
vn 0.3842 0.5540 -0.7386
vn -0.2556 0.8101 0.5277
vn -0.3702 0.4695 0.8016
vn -0.3842 0.5540 0.7386
vn 0.3702 0.4695 0.8016
vn 0.2556 0.8101 0.5277
vn 0.3842 0.5540 0.7386
vn 0.1470 0.9891 -0.0000
vn 0.4446 0.8957 0.0000
vn -0.2136 -0.0496 -0.9757
vn -0.0849 0.0718 -0.9938
vn -0.1790 -0.0165 -0.9837
vn -0.2418 0.0049 -0.9703
vn -0.2418 0.0049 0.9703
vn 0.2136 -0.0496 0.9757
vn 0.0849 0.0718 0.9938
vn 0.1790 -0.0165 0.9837
vn -1.0000 0.0000 0.0000
vn -0.7970 0.0000 0.6040
vn -0.7970 0.0000 -0.6040
vn 0.2418 0.0049 0.9703
vn 0.2651 -0.9603 -0.0874
vn 0.1615 0.9408 -0.2982
vn 0.2418 0.0049 -0.9703
vn 1.0000 -0.0000 0.0000
vn 0.7970 -0.0000 -0.6040
vn 0.7970 -0.0000 0.6040
vn -0.0097 1.0000 0.0000
vn -0.1615 0.9407 0.2982
vn 0.4167 0.9091 0.0000
vn -0.1615 0.9407 -0.2982
vn -0.2661 -0.9639 -0.0000
vn -0.2651 -0.9603 0.0874
vn -0.2661 -0.9640 -0.0000
vn -0.2651 -0.9603 -0.0874
vn 0.6547 -0.0757 -0.7521
vn 0.6517 -0.1374 -0.7459
vn -0.6547 -0.0757 0.7521
vn 0.4319 -0.9019 0.0000
vn 0.3105 -0.9506 0.0000
vn -0.4319 -0.9019 0.0000
vn -0.3105 -0.9506 -0.0000
vn 0.6971 0.0574 0.7147
vn 0.6547 -0.0757 0.7521
vn 0.6706 -0.0487 0.7403
vn -0.6971 0.0574 -0.7147
vn -0.6547 -0.0757 -0.7521
vn -0.6706 -0.0487 -0.7403
vn 0.1042 -0.8423 0.5289
vn 0.0842 -0.9965 0.0000
vn 0.0385 -0.9993 0.0000
vn 0.0353 -0.9150 0.4018
vn -0.0977 0.8781 -0.4684
vn -0.1432 0.9897 -0.0000
vn -0.1851 0.9827 0.0000
vn -0.1733 0.9197 -0.3523
vn -0.0977 0.8781 0.4684
vn -0.1733 0.9197 0.3523
vn -0.0644 0.0316 0.9974
vn -0.0640 0.0318 0.9974
vn -0.1032 0.0196 0.9945
vn -0.0640 0.0318 -0.9974
vn -0.0644 0.0316 -0.9974
vn -0.1032 0.0196 -0.9945
vn 0.0644 0.0316 -0.9974
vn 0.0640 0.0318 -0.9974
vn 0.1032 0.0196 -0.9945
vn 0.1432 0.9897 0.0000
vn 0.0977 0.8781 -0.4684
vn 0.1733 0.9197 -0.3523
vn 0.1851 0.9827 0.0000
vn 0.0849 0.0718 -0.9938
vn 0.2136 -0.0496 -0.9757
vn 0.1790 -0.0165 -0.9837
vn 0.0640 0.0318 0.9974
vn 0.0644 0.0316 0.9974
vn 0.1032 0.0196 0.9945
vn 0.0977 0.8781 0.4684
vn 0.1733 0.9197 0.3523
vn -0.1042 -0.8423 -0.5289
vn -0.0842 -0.9965 0.0000
vn -0.0385 -0.9993 0.0000
vn -0.0353 -0.9150 -0.4018
vn 0.7126 0.0879 0.6960
vn -0.2136 -0.0496 0.9757
vn -0.2598 -0.0945 0.9610
vn -0.1790 -0.0165 0.9837
vn -0.6517 -0.1374 -0.7459
vn -0.7126 0.0879 -0.6960
vn 0.2598 -0.0945 -0.9610
vn -0.6724 0.0037 0.7402
vn -0.0000 -0.0061 1.0000
vn -0.6778 0.0040 0.7353
vn 0.6724 0.0037 0.7402
vn 0.6778 0.0040 0.7353
vn 0.9999 0.0131 -0.0008
vn 0.6745 0.0043 -0.7382
vn 0.6794 0.0046 -0.7337
vn 0.9999 0.0131 0.0015
vn -0.1470 0.9891 0.0000
vn -0.4446 0.8957 0.0000
vn -0.3702 0.4695 -0.8016
vn -0.2556 0.8101 -0.5277
vn -0.3842 0.5540 -0.7386
vn 0.5630 -0.8265 0.0034
vn 0.5858 -0.6237 -0.5175
vn 0.6066 -0.7950 -0.0004
vn 0.5871 -0.6142 0.5274
vn -0.5858 -0.6237 -0.5175
vn -0.5630 -0.8265 0.0034
vn -0.6066 -0.7950 -0.0004
vn -0.6325 -0.5409 -0.5544
vn -0.0000 -0.0048 -1.0000
vn -0.9999 0.0131 -0.0008
vn -0.9999 0.0131 0.0015
vn -0.6745 0.0043 -0.7382
vn -0.6794 0.0046 -0.7337
vn -0.6025 0.1890 -0.7754
vn -0.9944 0.1057 0.0055
vn -0.9499 0.3127 0.0035
vn 0.6025 0.1890 -0.7754
vn 0.5059 0.2977 -0.8096
vn 0.9499 0.3127 0.0035
vn 0.6331 -0.5306 0.5637
vn -0.5871 -0.6142 0.5274
vn -0.6593 -0.4901 0.5702
vn -0.6331 -0.5306 0.5637
vn 0.6600 -0.4997 -0.5610
vn 0.6325 -0.5409 -0.5544
vn 0.0000 1.0000 0.0000
vn -0.4687 0.8833 0.0000
vn 0.0000 0.9806 0.1959
vn 0.4687 0.8833 0.0000
vn 0.0000 0.9806 -0.1959
vn 0.5980 0.1841 0.7800
vn 0.9944 0.1057 0.0055
vn -0.5980 0.1841 0.7800
vn -0.5042 0.2893 0.8137
vn -0.2778 -0.7066 -0.6508
vn -0.2778 -0.7066 0.6508
vn 0.2778 -0.7066 0.6508
vn 0.2778 -0.7066 -0.6508
vn -0.1042 -0.8423 0.5289
vn -0.0353 -0.9150 0.4018
vn -0.2598 -0.0945 -0.9610
vn -0.0849 0.0718 0.9938
vn 0.2598 -0.0945 0.9610
vn 0.1042 -0.8423 -0.5289
vn 0.0353 -0.9150 -0.4018
vn 0.4180 0.8696 0.2627
vn 0.4333 0.9013 0.0000
vn 0.4180 0.8696 -0.2627
vn -0.4180 0.8696 -0.2627
vn -0.4333 0.9013 0.0000
vn -0.4180 0.8696 0.2627
vn 0.0240 0.0441 0.9987
vn 0.0240 0.0441 -0.9987
vn -0.0240 0.0441 -0.9987
vn -0.0240 0.0441 0.9987
vn -0.6517 -0.1374 0.7459
vn 0.6593 -0.4901 0.5702
vn -0.6600 -0.4997 -0.5610
vn 0.5042 0.2893 0.8137
vn -0.5059 0.2977 -0.8096
vn 0.6517 -0.1374 0.7459
s 1
f 25/1/1 2/2/2 19/3/3
f 23/4/4 2/2/5 20/5/6
f 24/6/7 2/7/8 21/8/9
f 22/9/10 2/7/11 18/10/12
f 47/11/13 6/12/14 28/13/15
f 68/14/16 67/15/17 35/16/17 36/17/16
f 21/8/18 2/7/19 22/9/20
f 19/3/21 2/2/22 23/4/23
f 40/18/24 95/19/25 39/20/26
f 49/21/27 7/22/28 32/23/29
f 20/5/30 2/2/31 24/24/32
f 18/10/33 2/7/34 25/25/35
f 54/26/36 10/27/37 17/28/38 53/29/39
f 48/30/40 12/31/41 16/32/42 52/33/43
f 47/34/44 11/35/45 15/36/46 51/37/44
f 49/38/47 13/39/48 14/40/49 50/41/47
f 50/41/50 14/40/51 10/27/52 54/26/50
f 52/42/43 16/43/53 13/39/54 49/38/55
f 51/37/56 15/36/57 12/31/58 48/30/56
f 53/44/39 17/28/59 11/35/60 47/34/61
f 10/27/37 18/10/33 25/25/35 17/28/38
f 12/31/41 20/5/30 24/24/32 16/32/42
f 11/35/45 19/3/21 23/4/23 15/36/46
f 13/39/48 21/8/18 22/9/20 14/40/49
f 14/40/51 22/9/10 18/10/12 10/27/52
f 16/43/53 24/6/7 21/8/9 13/39/54
f 15/36/57 23/4/4 20/5/6 12/31/58
f 17/28/59 25/1/1 19/3/3 11/35/60
f 29/45/62 28/13/63 73/46/63 74/47/64
f 33/48/65 32/23/66 77/49/66 78/50/67
f 32/23/68 27/51/69 72/52/70 77/49/68
f 26/53/71 29/54/62 74/55/64 71/56/72
f 48/57/73 5/58/74 31/59/75
f 62/60/76 61/61/76 46/62/76 43/63/76
f 60/64/77 59/65/77 42/66/77 45/67/77
f 54/68/78 1/69/79 27/51/80
f 35/70/81 38/71/82 40/72/82 39/73/81
f 36/74/83 35/75/81 39/76/81 37/77/83
f 69/78/84 66/79/84 40/72/84 38/71/84
f 67/15/17 69/80/85 38/81/85 35/16/17
f 95/19/25 37/82/86 39/20/26
f 70/83/87 68/84/87 36/74/87 37/77/87
f 41/85/88 43/63/89 46/62/89 44/86/88
f 42/66/90 41/87/88 44/88/88 45/67/90
f 96/89/91 45/90/92 44/91/93
f 46/92/94 96/89/91 44/91/93
f 64/93/95 62/94/96 43/95/96 41/96/97
f 59/97/98 64/93/95 41/96/97 42/98/98
f 55/99/99 47/11/13 51/100/100
f 47/11/13 55/99/99 6/12/14
f 49/21/27 56/101/101 7/22/28
f 54/102/36 58/103/102 8/104/103
f 48/57/40 57/105/104 9/106/105
f 7/22/106 56/101/107 54/68/108
f 6/12/109 55/99/110 48/57/111
f 9/107/105 57/108/104 49/109/55
f 8/110/103 58/111/102 47/11/61
f 107/112/112 106/113/113 64/93/114 59/97/115
f 108/114/116 105/115/117 63/116/118 61/117/119
f 105/115/117 103/118/120 60/119/121 63/116/118
f 103/120/122 107/121/123 59/65/124 60/64/124
f 104/122/125 108/123/126 61/61/127 62/60/127
f 102/124/128 98/125/129 68/84/130 70/83/130
f 100/126/131 102/127/132 70/128/133 65/129/134
f 3/130/135 47/11/136 29/45/137
f 99/131/138 97/132/139 66/79/140 69/78/140
f 97/133/141 100/126/131 65/129/134 66/134/142
f 98/135/143 101/136/144 67/15/145 68/14/146
f 7/22/106 54/68/108 32/23/147
f 49/21/148 32/23/149 33/48/150
f 48/57/111 55/99/110 51/100/151
f 6/12/109 48/57/111 28/13/152
f 47/11/136 28/13/153 29/45/137
f 78/137/154 77/138/155 85/139/155 86/140/156
f 77/141/155 72/142/157 80/143/158 85/144/155
f 71/145/159 74/146/160 82/147/161 34/148/162
f 72/142/157 71/149/159 34/150/162 80/143/158
f 30/151/163 33/152/65 78/153/67 75/154/164
f 28/13/165 31/59/166 76/155/167 73/46/165
f 31/156/166 30/151/163 75/154/164 76/157/167
f 27/158/69 26/53/71 71/56/72 72/159/70
f 34/160/168 82/161/169 79/162/170
f 80/163/171 34/160/168 79/162/170
f 84/164/172 83/165/173 89/166/174
f 84/164/172 89/166/174 88/167/175
f 74/146/160 73/168/176 81/169/176 82/147/161
f 75/170/177 78/137/154 86/140/156 83/171/178
f 73/172/176 76/173/179 84/174/180 81/175/176
f 76/173/179 75/176/177 83/177/178 84/174/180
f 88/167/181 89/166/182 92/178/183
f 88/179/184 91/180/185 87/181/186
f 80/163/171 79/162/170 90/182/187
f 86/183/188 85/184/189 90/185/190
f 82/186/169 81/187/191 88/179/192
f 83/165/173 86/188/188 89/166/174
f 94/189/193 92/190/194 93/191/195
f 87/192/196 94/189/193 93/191/195
f 87/181/196 91/180/197 94/193/193
f 91/194/197 92/190/194 94/189/193
f 90/182/198 79/162/199 87/195/186
f 90/185/200 93/196/201 92/197/183
f 48/198/40 9/107/105 5/199/202
f 4/200/203 9/107/105 49/109/55
f 54/102/36 8/104/103 1/201/204
f 3/202/205 8/104/103 47/203/61
f 101/136/144 99/204/206 69/80/207 67/15/145
f 28/13/208 48/57/73 31/59/75
f 4/205/209 49/21/148 33/48/150
f 32/23/210 54/68/78 27/51/80
f 106/113/113 104/206/211 62/94/212 64/93/114
f 66/134/213 65/129/214 95/19/25 40/18/24
f 65/129/214 70/128/215 37/82/86 95/19/25
f 61/117/216 63/116/217 96/89/91 46/92/94
f 63/116/217 60/119/218 45/90/92 96/89/91
f 9/107/105 4/200/203 99/204/206 101/136/144
f 5/199/202 9/107/105 101/136/144 98/135/143
f 33/152/65 30/151/163 100/126/131 97/133/141
f 4/205/219 33/48/219 97/132/139 99/131/138
f 30/151/163 31/156/166 102/127/132 100/126/131
f 31/59/220 5/58/220 98/125/129 102/124/128
f 8/104/103 3/202/205 104/206/211 106/113/113
f 3/130/221 29/45/221 108/123/126 104/122/125
f 27/51/222 1/69/222 107/121/123 103/120/122
f 26/53/71 27/158/69 103/118/120 105/115/117
f 29/54/62 26/53/71 105/115/117 108/114/116
f 1/201/204 8/104/103 106/113/113 107/112/112
f 57/105/104 48/57/40 52/207/43
f 57/208/104 52/209/43 49/21/55
f 58/210/102 54/211/36 53/212/39
f 58/111/102 53/213/39 47/11/61
f 56/101/101 49/21/27 50/214/223
f 85/215/224 80/163/171 90/182/187
f 89/216/174 86/183/188 90/185/190
f 81/217/225 84/164/172 88/167/175
f 79/218/170 82/186/169 88/179/192
f 93/219/226 90/182/198 87/195/186
f 89/216/182 90/185/200 92/197/183
f 91/220/227 88/167/181 92/178/183
f 79/218/199 88/179/184 87/181/186
f 54/221/108 56/101/107 50/214/228
