# Blender v2.80 (sub 75) OBJ File: 'dungeon.blend'
# www.blender.org
o Wall.Lower_Cube.032
v -0.500000 0.500000 0.000000
v -0.500000 0.000000 0.000000
v 0.500000 0.500000 0.000000
v 0.500000 0.000000 0.000000
v -0.500000 0.249649 -0.022793
v 0.500000 0.249649 -0.022793
v 0.010294 0.262207 -0.016262
v 0.245933 0.258479 -0.023200
v -0.260853 0.260547 -0.037198
v -0.500000 0.125000 -0.022684
v 0.500000 0.125000 -0.022684
v -0.500000 0.375000 -0.022684
v 0.499833 0.375000 -0.022684
v -0.001956 0.371974 -0.030399
v 0.250800 0.371391 -0.029373
v -0.251092 0.374699 -0.022990
v 0.373746 0.243009 -0.024952
v 0.374808 0.124645 -0.022794
v 0.374886 0.374795 -0.022814
v 0.124788 0.251311 -0.022942
v 0.124942 0.125000 -0.022684
v -0.121990 0.264663 -0.029930
v -0.124856 0.125546 -0.034291
v -0.378731 0.259602 -0.043252
v -0.374873 0.125481 -0.034475
v 0.384743 0.134281 -0.027907
v 0.383756 0.233363 -0.029740
v 0.500000 0.242111 -0.039869
v 0.500000 0.135000 -0.033696
v 0.248520 0.249268 -0.037726
v 0.365696 0.233821 -0.040046
v 0.366809 0.134231 -0.038286
v 0.136999 0.134950 -0.038063
v 0.136501 0.241987 -0.037957
v -0.259421 0.242140 -0.047687
v -0.132385 0.244954 -0.041729
v -0.134705 0.136166 -0.039592
v -0.364958 0.135977 -0.040267
v -0.368614 0.249662 -0.048386
v 0.500000 0.490000 -0.051297
v 0.500000 0.385000 -0.051420
v 0.374885 0.384811 -0.051409
v 0.250408 0.381230 -0.057964
v -0.001106 0.381642 -0.058491
v -0.250490 0.384858 -0.051441
v -0.500000 0.385000 -0.051420
v -0.500000 0.490000 -0.051297
v 0.259933 0.261245 -0.034102
v 0.257929 0.345934 -0.046385
v 0.376192 0.358524 -0.037965
v 0.491978 0.364463 -0.027938
v 0.491688 0.259315 -0.027533
v 0.373862 0.252903 -0.030299
v 0.009998 0.251833 -0.021455
v 0.115276 0.241087 -0.027443
v 0.114945 0.135000 -0.027684
v -0.114714 0.136151 -0.038959
v -0.110606 0.254470 -0.034240
v -0.251892 0.268266 -0.054718
v -0.246642 0.348062 -0.049480
v -0.125844 0.361796 -0.046644
v -0.008974 0.363963 -0.043369
v -0.000230 0.272505 -0.040242
v -0.123212 0.273577 -0.054071
v -0.495825 0.260550 -0.029017
v -0.492507 0.361849 -0.027890
v -0.376523 0.358343 -0.038124
v -0.266239 0.349523 -0.036221
v -0.271092 0.269445 -0.042781
v -0.374998 0.270622 -0.048871
v 0.019776 0.271653 -0.025387
v 0.012136 0.365969 -0.031043
v 0.126559 0.355483 -0.037893
v 0.233060 0.350807 -0.041836
v 0.235021 0.267571 -0.031251
v 0.124688 0.261120 -0.030435
v 0.124942 0.115000 -0.051297
v 0.374854 0.114914 -0.051323
v 0.500000 0.115000 -0.057629
v 0.500000 0.010000 -0.051297
v -0.500000 0.010000 -0.051297
v -0.500000 0.115000 -0.057629
v -0.374884 0.115114 -0.062699
v -0.124959 0.115113 -0.062693
v -0.500000 0.135000 -0.033696
v -0.500000 0.242111 -0.039869
v -0.388081 0.249091 -0.047727
v -0.384944 0.135985 -0.039614
v 0.000000 0.500000 0.000000
v 0.000000 0.490000 -0.051297
v 0.250000 0.490000 -0.051297
v 0.250000 0.500000 0.000000
v -0.250000 0.500000 0.000000
v -0.250000 0.490000 -0.051297
v 0.375000 0.490000 -0.051297
v 0.375000 0.500000 0.000000
v -0.375000 0.500000 0.000000
v -0.375000 0.490000 -0.051297
v -0.125000 0.490000 -0.051297
v -0.125000 0.500000 0.000000
v 0.125000 0.500000 0.000000
v 0.125000 0.490000 -0.051297
v 0.249875 0.124823 -0.022739
v 0.251904 0.134590 -0.038175
v 0.249898 0.114957 -0.051310
v 0.000043 0.125273 -0.028487
v 0.000115 0.135576 -0.033322
v -0.000009 0.115056 -0.056995
v 0.124422 0.371682 -0.029886
v 0.124651 0.381436 -0.058228
v -0.126524 0.373337 -0.026695
v -0.125798 0.383250 -0.054966
v -0.375546 0.374850 -0.022837
v -0.375245 0.384929 -0.051431
v -0.249864 0.125513 -0.034383
v -0.249832 0.136072 -0.039930
v -0.249921 0.115113 -0.062696
v 0.000000 0.000000 0.000000
v 0.000000 0.010000 -0.051297
v 0.250000 0.000000 0.000000
v 0.250000 0.010000 -0.051297
v -0.250000 0.010000 -0.051297
v -0.250000 0.000000 0.000000
v -0.125000 0.000000 0.000000
v -0.125000 0.010000 -0.051297
v -0.375000 0.010000 -0.051297
v -0.375000 0.000000 0.000000
v 0.125000 0.010000 -0.051297
v 0.125000 0.000000 0.000000
v 0.375000 0.000000 0.000000
v 0.375000 0.010000 -0.051297
vt 0.010789 0.976730
vt 0.010789 0.975734
vt 0.011974 0.975734
vt 0.011974 0.976730
vt 0.009604 0.975734
vt 0.009604 0.976730
vt 0.007234 0.975734
vt 0.008419 0.975734
vt 0.008419 0.976730
vt 0.007234 0.976730
vt 0.006049 0.975734
vt 0.006049 0.976730
vt 0.004864 0.975734
vt 0.004864 0.976730
vt 0.003678 0.975734
vt 0.003678 0.976730
vt 0.002493 0.975734
vt 0.002493 0.976730
vt 0.059647 0.977497
vt 0.059647 0.978676
vt 0.059553 0.978582
vt 0.059553 0.977592
vt 0.023839 0.979320
vt 0.023839 0.978372
vt 0.024788 0.978372
vt 0.024788 0.979320
vt 0.025795 0.977916
vt 0.026880 0.977916
vt 0.026880 0.978906
vt 0.025795 0.978906
vt 0.024711 0.978906
vt 0.024711 0.977916
vt 0.021302 0.978422
vt 0.022340 0.978422
vt 0.022340 0.979370
vt 0.021302 0.979370
vt 0.020263 0.979370
vt 0.020263 0.978422
vt 0.003678 0.975698
vt 0.003678 0.976693
vt 0.002493 0.976693
vt 0.002493 0.975697
vt 0.057384 0.978582
vt 0.057384 0.977592
vt 0.058468 0.977592
vt 0.058468 0.978582
vt 0.022747 0.978897
vt 0.023720 0.978897
vt 0.023720 0.979786
vt 0.022747 0.979786
vt 0.021773 0.979786
vt 0.021773 0.978897
vt 0.036651 0.978730
vt 0.036651 0.977782
vt 0.037690 0.977782
vt 0.038728 0.977782
vt 0.038728 0.978730
vt 0.037690 0.978730
vt 0.050310 0.978582
vt 0.050310 0.977592
vt 0.051395 0.977592
vt 0.052479 0.977592
vt 0.052479 0.978582
vt 0.051395 0.978582
vt 0.022831 0.978728
vt 0.022831 0.977839
vt 0.023805 0.977839
vt 0.024778 0.977839
vt 0.024778 0.978728
vt 0.023805 0.978728
vt 0.021521 0.979401
vt 0.021521 0.978513
vt 0.022410 0.978513
vt 0.022410 0.979401
vt 0.011974 0.976788
vt 0.010789 0.976788
vt 0.010789 0.976693
vt 0.011974 0.976693
vt 0.042205 0.979949
vt 0.042205 0.978820
vt 0.042295 0.978911
vt 0.042295 0.979859
vt 0.043334 0.978820
vt 0.043244 0.978911
vt 0.043334 0.979949
vt 0.043244 0.979859
vt 0.025795 0.977822
vt 0.026974 0.977822
vt 0.026974 0.979001
vt 0.025795 0.979001
vt 0.024616 0.979001
vt 0.024616 0.977822
vt 0.021302 0.978332
vt 0.022431 0.978332
vt 0.022431 0.979461
vt 0.021302 0.979461
vt 0.020173 0.979461
vt 0.020173 0.978332
vt 0.009604 0.976788
vt 0.009604 0.976693
vt 0.008419 0.976788
vt 0.007234 0.976788
vt 0.007234 0.976693
vt 0.008419 0.976693
vt 0.006049 0.976788
vt 0.004864 0.976788
vt 0.004864 0.976693
vt 0.006049 0.976693
vt 0.003678 0.976788
vt 0.002493 0.976788
vt 0.010789 0.975603
vt 0.011974 0.975603
vt 0.011974 0.975697
vt 0.010789 0.975698
vt 0.057290 0.978676
vt 0.057290 0.977497
vt 0.058468 0.977497
vt 0.058468 0.978676
vt 0.022747 0.978813
vt 0.023805 0.978813
vt 0.023805 0.979871
vt 0.022747 0.979871
vt 0.021689 0.979871
vt 0.021689 0.978813
vt 0.036561 0.978820
vt 0.036561 0.977691
vt 0.037690 0.977691
vt 0.038818 0.977691
vt 0.038818 0.978820
vt 0.037690 0.978820
vt 0.050216 0.977497
vt 0.051395 0.977497
vt 0.052574 0.977497
vt 0.052574 0.978676
vt 0.051395 0.978676
vt 0.050216 0.978676
vt 0.022747 0.977755
vt 0.023805 0.977755
vt 0.024863 0.977755
vt 0.024863 0.978813
vt 0.009604 0.975640
vt 0.010789 0.975640
vt 0.011974 0.975640
vt 0.003678 0.976825
vt 0.002493 0.976825
vt 0.002493 0.975640
vt 0.003678 0.975640
vt 0.004864 0.975640
vt 0.006049 0.975640
vt 0.007234 0.975640
vt 0.008419 0.975640
vt 0.039892 0.978966
vt 0.040951 0.978966
vt 0.040866 0.979051
vt 0.039977 0.979051
vt 0.040951 0.980024
vt 0.040866 0.979940
vt 0.039892 0.980024
vt 0.039977 0.979940
vt 0.006049 0.975603
vt 0.007234 0.975603
vt 0.007234 0.975697
vt 0.006049 0.975698
vt 0.008419 0.975698
vt 0.008419 0.975603
vt 0.009604 0.975603
vt 0.009604 0.975698
vt 0.003678 0.975603
vt 0.004864 0.975603
vt 0.004864 0.975698
vt 0.002493 0.975603
vt 0.008419 0.976825
vt 0.007234 0.976825
vt 0.010789 0.976825
vt 0.009604 0.976825
vt 0.006049 0.976825
vt 0.004864 0.976825
vt 0.011974 0.976825
vt 0.041695 0.994550
vt 0.041695 0.995246
vt 0.036131 0.995246
vt 0.036131 0.994550
vt 0.036131 0.993855
vt 0.036131 0.993160
vt 0.036131 0.992464
vt 0.036131 0.991769
vt 0.036131 0.991073
vt 0.036131 0.990378
vt 0.036131 0.989682
vt 0.041695 0.989682
vt 0.041695 0.990378
vt 0.041695 0.991073
vt 0.041695 0.991769
vt 0.041695 0.992464
vt 0.041695 0.993160
vt 0.041695 0.993855
vt 0.038136 0.993683
vt 0.038059 0.992347
vt 0.038272 0.992253
vt 0.038274 0.990690
vt 0.037915 0.990565
vt 0.037917 0.989256
vt 0.038556 0.989131
vt 0.038556 0.995367
vt 0.037917 0.995242
vt 0.037838 0.993933
vt 0.038274 0.993808
vt 0.037198 0.995242
vt 0.037196 0.993933
vt 0.037555 0.993808
vt 0.037553 0.992245
vt 0.037340 0.992151
vt 0.037417 0.990815
vt 0.037555 0.990690
vt 0.037119 0.990565
vt 0.037198 0.989256
vt 0.037838 0.989131
vt 0.037838 0.995367
vn -0.0252 -0.0303 -0.9992
vn -0.0001 -0.0002 -1.0000
vn 0.0228 -0.0271 -0.9994
vn -0.0001 -0.0001 -1.0000
vn 0.0227 -0.0811 -0.9965
vn 0.0000 -0.1078 -0.9942
vn -0.0202 -0.0841 -0.9963
vn 0.5259 -0.0014 -0.8506
vn 0.2425 -0.1856 -0.9522
vn 0.3547 -0.0287 -0.9345
vn -0.2960 -0.0287 -0.9548
vn -0.2925 -0.0288 -0.9558
vn -0.0670 -0.0390 -0.9970
vn -0.0052 -0.0019 -1.0000
vn 0.0147 -0.0581 -0.9982
vn 0.0073 -0.2974 -0.9547
vn 0.0085 -0.2676 -0.9635
vn -0.1829 -0.2278 -0.9564
vn -0.2929 -0.0701 -0.9536
vn -0.0000 0.0013 -1.0000
vn -0.0000 0.0012 -1.0000
vn 0.0555 -0.0699 -0.9960
vn 0.0205 -0.3662 -0.9303
vn 0.0448 0.2686 -0.9622
vn 0.1820 0.1738 -0.9678
vn 0.1974 -0.1487 -0.9690
vn 0.0434 -0.1879 -0.9812
vn -0.1274 -0.1337 -0.9828
vn -0.0953 0.2165 -0.9716
vn 0.0401 0.0514 -0.9979
vn -0.0524 0.0807 -0.9954
vn -0.0392 0.3703 -0.9281
vn -0.0265 0.3351 -0.9418
vn -0.0082 0.3578 -0.9338
vn -0.2235 -0.1089 -0.9686
vn -0.1377 0.1056 -0.9848
vn -0.0243 0.1791 -0.9835
vn -0.0416 -0.0856 -0.9955
vn -0.0582 -0.0655 -0.9962
vn 0.2511 -0.0572 -0.9663
vn 0.2528 -0.0571 -0.9658
vn 0.0016 -0.9441 -0.3296
vn 0.0225 -0.9441 -0.3289
vn 0.0230 -0.9441 -0.3288
vn -0.4446 -0.0206 -0.8955
vn -0.0697 0.7686 -0.6359
vn -0.0155 -0.6298 -0.7766
vn 0.0141 0.8381 -0.5454
vn 0.0967 0.8374 -0.5380
vn 0.0305 0.8384 -0.5442
vn 0.8855 0.0005 -0.4646
vn -0.0023 -0.8447 -0.5353
vn -0.0023 -0.8419 -0.5397
vn -0.0023 -0.8451 -0.5346
vn -0.7877 -0.0026 -0.6161
vn -0.0518 0.8345 -0.5486
vn 0.0352 0.4970 -0.8670
vn 0.0301 0.4993 -0.8659
vn 0.0349 0.4972 -0.8670
vn 0.6470 -0.0067 -0.7624
vn 0.0018 -0.4651 -0.8853
vn 0.0018 -0.4749 -0.8801
vn -0.4760 -0.0742 -0.8763
vn 0.0401 0.4948 -0.8681
vn 0.0220 -0.9448 -0.3268
vn 0.0210 -0.9449 -0.3267
vn -0.0009 -0.9456 -0.3254
vn -0.0111 -0.9449 -0.3271
vn -0.0106 -0.9450 -0.3270
vn -0.0209 -0.9433 -0.3314
vn -0.0108 -0.9424 -0.3342
vn -0.0112 -0.9424 -0.3342
vn -0.0208 -0.9433 -0.3312
vn -0.0011 -0.9431 -0.3324
vn -0.0011 -0.9438 -0.3306
vn -0.0011 -0.9431 -0.3325
vn 0.0000 0.9815 -0.1913
vn -0.8129 -0.0425 -0.5808
vn 0.0085 0.6115 -0.7912
vn 0.0133 0.6072 -0.7944
vn 0.0132 0.6073 -0.7944
vn 0.0183 0.6027 -0.7977
vn 0.0418 -0.4440 -0.8950
vn -0.0132 -0.6116 -0.7911
vn -0.0691 -0.7570 -0.6498
vn 0.0465 0.4466 -0.8935
vn -0.0097 0.4296 -0.9030
vn 0.4378 -0.0004 -0.8990
vn 0.0417 -0.4245 -0.9045
vn 0.0415 -0.4301 -0.9018
vn -0.3853 0.0429 -0.9218
vn 0.1015 0.4618 -0.8812
vn -0.9376 0.1058 -0.3312
vn -0.0411 0.7696 -0.6372
vn -0.0232 0.8157 -0.5780
vn -0.0228 0.8167 -0.5765
vn -0.0038 0.8601 -0.5101
vn 0.9032 0.0578 -0.4252
vn 0.0278 -0.9260 -0.3765
vn 0.0351 -0.9282 -0.3705
vn 0.0362 -0.9285 -0.3696
vn 0.0435 -0.9306 -0.3634
vn -0.0271 0.5642 -0.8252
vn 0.0009 0.5608 -0.8279
vn 0.0275 0.5572 -0.8299
vn 0.5765 0.0439 -0.8159
vn 0.0475 -0.4778 -0.8772
vn -0.0496 -0.4568 -0.8882
vn -0.0135 -0.4651 -0.8851
vn -0.1118 -0.4408 -0.8906
vn -0.3642 -0.1250 -0.9229
vn -0.0086 0.3576 -0.9338
vn -0.0058 0.4185 -0.9082
vn -0.0025 0.4871 -0.8733
vn 0.6007 -0.0769 -0.7958
vn 0.0330 -0.6233 -0.7813
vn -0.0345 -0.6236 -0.7810
vn -0.0350 -0.6236 -0.7810
vn -0.1022 -0.6210 -0.7772
vn 0.0007 0.9452 -0.3264
vn -0.0041 0.9505 -0.3108
vn -0.0042 0.9505 -0.3106
vn -0.0090 0.9549 -0.2968
vn 0.0000 -0.9815 -0.1913
vn -0.0229 0.9515 -0.3068
vn -0.0118 0.9455 -0.3254
vn -0.0113 0.9453 -0.3261
vn 0.0000 0.9387 -0.3448
vn 0.0086 0.9393 -0.3429
vn 0.0083 0.9393 -0.3430
vn 0.0168 0.9413 -0.3372
vn 0.0086 0.9436 -0.3309
vn 0.0088 0.9436 -0.3309
vn 0.0168 0.9412 -0.3375
vn -0.1304 0.7872 -0.6027
vn 0.4432 -0.0486 -0.8951
vn -0.0530 -0.6339 -0.7716
vn -0.6983 0.0141 -0.7156
vn 0.0011 0.0637 -0.9980
vn -0.0063 0.0578 -0.9983
vn -0.0023 -0.8479 -0.5302
vn 0.0418 -0.4189 -0.9071
vn -0.0000 0.0011 -1.0000
vn 0.0130 0.0166 -0.9998
vn 0.0129 0.0164 -0.9998
vn 0.0134 0.0472 -0.9988
vn 0.0134 0.0471 -0.9988
vn -0.0139 0.0344 -0.9993
vn -0.0070 0.0097 -0.9999
vn 0.0018 -0.4552 -0.8904
vn 0.0000 0.0000 1.0000
vn 1.0000 -0.0001 -0.0006
vn -1.0000 -0.0000 0.0000
s off
f 131/1/1 78/2/1 79/3/1 80/4/1
f 105/5/2 78/2/2 131/1/2 121/6/2
f 108/7/3 77/8/3 128/9/3 119/10/3
f 77/8/4 105/5/4 121/6/4 128/9/4
f 84/11/5 108/7/5 119/10/5 125/12/5
f 117/13/6 84/11/6 125/12/6 122/14/6
f 83/15/6 117/13/6 122/14/6 126/16/6
f 82/17/7 83/15/7 126/16/7 81/18/7
s 1
f 13/19/8 6/20/8 52/21/9 51/22/10
f 26/23/11 27/24/12 28/25/13 29/26/13
f 30/27/14 31/28/14 32/29/14 104/30/14 33/31/14 34/32/14
f 35/33/15 36/34/15 37/35/16 116/36/17 38/37/18 39/38/19
f 98/39/20 114/40/20 46/41/21 47/42/21
f 48/43/22 49/44/22 50/45/22 51/22/10 52/21/9 53/46/23
f 54/47/24 55/48/25 56/49/26 107/50/27 57/51/28 58/52/29
f 59/53/30 60/54/30 61/55/30 62/56/30 63/57/30 64/58/30
f 65/59/31 66/60/32 67/61/33 68/62/34 69/63/31 70/64/31
f 71/65/35 72/66/36 73/67/37 74/68/38 75/69/38 76/70/38
f 85/71/39 86/72/39 87/73/40 88/74/41
f 13/75/42 19/76/43 42/77/44 41/78/42
f 18/79/45 17/80/45 27/81/12 26/82/11
f 17/80/46 6/83/46 28/84/46 27/81/46
f 11/85/47 18/79/47 26/82/47 29/86/47
f 8/87/48 17/88/49 31/28/49 30/27/50
f 17/88/51 18/89/51 32/29/51 31/28/51
f 103/90/52 21/91/53 33/31/53 104/30/54
f 21/91/55 20/92/55 34/32/55 33/31/55
f 20/92/56 8/87/48 30/27/50 34/32/56
f 9/93/57 22/94/58 36/34/58 35/33/59
f 22/94/60 23/95/60 37/35/60 36/34/60
f 115/96/61 25/97/62 38/37/18 116/36/17
f 25/97/63 24/98/63 39/38/19 38/37/18
f 24/98/64 9/93/57 35/33/59 39/38/64
f 19/76/43 15/99/65 43/100/66 42/77/44
f 109/101/67 14/102/68 44/103/69 110/104/67
f 111/105/70 16/106/71 45/107/72 112/108/73
f 113/109/74 12/110/75 46/41/75 114/40/76
f 96/111/77 3/112/77 40/113/77 95/114/77
f 8/115/78 15/116/78 49/44/78 48/43/78
f 15/116/79 19/117/80 50/45/81 49/44/79
f 19/117/80 13/19/82 51/22/82 50/45/81
f 6/20/83 17/118/84 53/46/23 52/21/9
f 17/118/84 8/115/85 48/43/85 53/46/23
f 7/119/86 20/120/87 55/48/25 54/47/24
f 20/120/88 21/121/88 56/49/26 55/48/25
f 106/122/89 23/123/90 57/51/28 107/50/27
f 23/123/91 22/124/91 58/52/29 57/51/28
f 22/124/92 7/119/86 54/47/24 58/52/29
f 9/125/93 16/126/93 60/54/93 59/53/93
f 16/126/94 111/127/95 61/55/96 60/54/94
f 111/127/95 14/128/97 62/56/97 61/55/96
f 14/128/98 7/129/98 63/57/98 62/56/98
f 7/129/99 22/130/100 64/58/101 63/57/99
f 22/130/100 9/125/102 59/53/102 64/58/101
f 12/131/103 113/132/104 67/61/33 66/60/32
f 113/132/104 16/133/105 68/62/34 67/61/33
f 16/133/106 9/134/106 69/63/106 68/62/106
f 9/134/107 24/135/108 70/64/109 69/63/107
f 24/135/108 5/136/110 65/59/110 70/64/109
f 7/119/111 14/137/111 72/66/36 71/65/35
f 14/137/112 109/138/113 73/67/37 72/66/36
f 109/138/113 15/139/114 74/68/114 73/67/37
f 15/139/115 8/140/115 75/69/115 74/68/115
f 8/140/116 20/120/117 76/70/118 75/69/116
f 20/120/117 7/119/119 71/65/119 76/70/118
f 103/141/120 18/142/121 78/2/122 105/5/120
f 18/142/121 11/143/123 79/3/123 78/2/122
f 127/144/124 2/145/124 81/18/124 126/16/124
f 10/146/125 25/147/126 83/15/127 82/17/125
f 115/148/128 23/149/129 84/11/130 117/13/128
f 106/150/131 21/151/132 77/8/133 108/7/134
f 5/152/135 24/153/135 87/154/135 86/155/135
f 24/153/136 25/156/136 88/157/41 87/154/40
f 25/156/137 10/158/137 85/159/137 88/157/137
f 66/60/138 65/59/138 5/136/138 12/131/138
f 100/160/77 89/161/77 90/162/77 99/163/77
f 102/164/139 110/104/139 44/103/140 90/162/140
f 101/165/77 92/166/77 91/167/77 102/164/77
f 97/168/77 93/169/77 94/170/77 98/39/77
f 92/166/77 96/111/77 95/114/77 91/167/77
f 1/171/77 97/168/77 98/39/77 47/42/77
f 93/169/77 100/160/77 99/163/77 94/170/77
f 89/161/77 101/165/77 102/164/77 90/162/77
f 21/151/132 103/141/120 105/5/120 77/8/133
f 18/89/141 103/90/52 104/30/54 32/29/141
f 23/149/129 106/150/131 108/7/134 84/11/130
f 21/121/142 106/122/89 107/50/27 56/49/26
f 40/113/143 41/78/143 42/77/144 95/114/145
f 95/114/145 42/77/144 43/100/146 91/167/147
f 15/99/65 109/101/67 110/104/67 43/100/66
f 14/102/68 111/105/70 112/108/73 44/103/69
f 16/106/71 113/109/74 114/40/76 45/107/72
f 91/167/147 43/100/146 110/104/139 102/164/139
f 90/162/140 44/103/140 112/108/148 99/163/148
f 99/163/148 112/108/148 45/107/149 94/170/149
f 94/170/149 45/107/149 114/40/20 98/39/20
f 25/147/126 115/148/128 117/13/128 83/15/127
f 23/95/150 115/96/61 116/36/17 37/35/16
f 129/172/124 118/173/124 119/10/124 128/9/124
f 130/174/124 120/175/124 121/6/124 131/1/124
f 124/176/124 123/177/124 122/14/124 125/12/124
f 118/173/124 124/176/124 125/12/124 119/10/124
f 123/177/124 127/144/124 126/16/124 122/14/124
f 120/175/124 129/172/124 128/9/124 121/6/124
f 4/178/124 130/174/124 131/1/124 80/4/124
f 97/179/151 1/180/151 2/181/151 127/182/151 123/183/151 124/184/151 118/185/151 129/186/151 120/187/151 130/188/151 4/189/151 3/190/151 96/191/151 92/192/151 101/193/151 89/194/151 100/195/151 93/196/151
f 29/197/152 28/198/152 6/199/152 13/200/152 41/201/152 40/202/152 3/203/152 4/204/152 80/205/152 79/206/152 11/207/152
f 47/208/153 46/209/153 12/210/153 5/211/153 86/212/153 85/213/153 10/214/153 82/215/153 81/216/153 2/217/153 1/218/153
