# Blender v2.80 (sub 75) OBJ File: 'dungeon.blend'
# www.blender.org
v -0.500000 0.250000 0.000000
v 0.500000 0.250000 0.000000
v -0.500167 0.000000 -0.022684
v 0.499833 0.000000 -0.022684
v -0.011596 0.006132 -0.034746
v 0.258061 0.005168 -0.025815
v -0.500000 0.125000 -0.022684
v 0.499833 0.125000 -0.022684
v -0.001956 0.121974 -0.030399
v 0.250800 0.121391 -0.029373
v -0.251092 0.124699 -0.022990
v 0.375252 0.001125 -0.022506
v 0.374886 0.124795 -0.022814
v 0.125257 0.000377 -0.028693
v -0.126615 0.001777 -0.023832
v 0.375252 0.001125 -0.022506
v 0.258061 0.005168 -0.025815
v 0.500000 0.240000 -0.051297
v 0.500000 0.135000 -0.051420
v 0.374885 0.134811 -0.051409
v 0.250408 0.131230 -0.057964
v -0.001106 0.131642 -0.058491
v -0.250490 0.134858 -0.051441
v -0.500000 0.135000 -0.051420
v -0.500000 0.240000 -0.051297
v -0.250367 0.007260 -0.030498
v -0.241819 0.114509 -0.028185
v -0.013084 0.112766 -0.035691
v -0.022243 0.016348 -0.039474
v -0.126648 0.011229 -0.028730
v -0.496815 0.010748 -0.027852
v -0.496815 0.115748 -0.027852
v -0.258920 0.115212 -0.028398
v -0.270931 0.007110 -0.030633
v -0.373058 0.010431 -0.028176
v -0.003832 0.013348 -0.046878
v 0.004817 0.110053 -0.043025
v 0.238917 0.109283 -0.041489
v 0.245349 0.012223 -0.038303
v 0.122837 0.007935 -0.040936
v 0.267687 0.014721 -0.030905
v 0.261241 0.111869 -0.034075
v 0.374885 0.114811 -0.027829
v 0.486234 0.117597 -0.027346
v 0.486234 0.012597 -0.027346
v 0.375235 0.010659 -0.027671
v 0.000000 0.250000 0.000000
v 0.000000 0.240000 -0.051297
v 0.250000 0.240000 -0.051297
v 0.250000 0.250000 0.000000
v -0.250000 0.250000 0.000000
v -0.250000 0.240000 -0.051297
v 0.375000 0.240000 -0.051297
v 0.375000 0.250000 0.000000
v -0.375000 0.250000 0.000000
v -0.375000 0.240000 -0.051297
v -0.125000 0.240000 -0.051297
v -0.125000 0.250000 0.000000
v 0.125000 0.250000 0.000000
v 0.125000 0.240000 -0.051297
v 0.124422 0.121682 -0.029886
v 0.124651 0.131436 -0.058228
v 0.121867 0.109668 -0.042257
v -0.126524 0.123337 -0.026695
v -0.125798 0.133250 -0.054966
v -0.127452 0.113637 -0.031938
v -0.375546 0.124850 -0.022837
v -0.375245 0.134929 -0.051431
v -0.377868 0.115480 -0.028125
v -0.260296 0.000000 -0.025653
v 0.375247 0.000000 -0.022486
v 0.125257 0.000000 -0.028676
v -0.178872 0.000000 -0.024566
v -0.126621 0.000000 -0.023915
v 0.376389 0.000000 -0.023063
v 0.257872 0.000000 -0.031293
v 0.374039 0.000000 -0.023811
v 0.125653 0.000000 -0.029089
v -0.128418 0.000000 -0.024711
v -0.011426 0.000000 -0.037749
v 0.124856 0.000000 -0.028882
v -0.124745 0.000000 -0.025021
v -0.257698 0.000000 -0.027036
v -0.263429 0.000000 -0.027094
v -0.375972 0.000000 -0.023136
v -0.500000 0.000000 0.000000
v 0.500000 0.000000 0.000000
vt 0.026894 0.974496
vt 0.026894 0.973607
vt 0.026979 0.973522
vt 0.026979 0.974580
vt 0.003678 0.975698
vt 0.003678 0.976693
vt 0.002493 0.976693
vt 0.002493 0.975697
vt 0.052668 0.973866
vt 0.052668 0.972876
vt 0.053753 0.972876
vt 0.054837 0.972876
vt 0.054837 0.973866
vt 0.053753 0.973866
vt 0.018599 0.974496
vt 0.018599 0.973607
vt 0.019572 0.973607
vt 0.020546 0.973607
vt 0.020546 0.974496
vt 0.019572 0.974496
vt 0.750000 0.250000
vt 0.750000 0.125000
vt 0.750000 0.250000
vt 0.038909 0.974214
vt 0.038909 0.973266
vt 0.039947 0.973266
vt 0.040986 0.973266
vt 0.040986 0.974214
vt 0.039947 0.974214
vt 0.875000 0.250000
vt 0.875000 0.250000
vt 0.011974 0.976788
vt 0.010789 0.976788
vt 0.010789 0.976693
vt 0.011974 0.976693
vt 1.000000 0.250000
vt 0.024947 0.974496
vt 0.024947 0.973607
vt 0.025921 0.973607
vt 0.025921 0.974496
vt 0.025921 0.974590
vt 0.025921 0.974580
vt 0.025931 0.974590
vt 0.039947 0.974308
vt 0.039947 0.974305
vt 0.039951 0.974308
vt 0.037249 0.974305
vt 0.037690 0.974305
vt 0.037673 0.974321
vt 0.009604 0.976788
vt 0.009604 0.976693
vt 0.008419 0.976788
vt 0.007234 0.976788
vt 0.007234 0.976693
vt 0.008419 0.976693
vt 0.006049 0.976788
vt 0.004864 0.976788
vt 0.004864 0.976693
vt 0.006049 0.976693
vt 0.003678 0.976788
vt 0.002493 0.976788
vt 0.010789 0.975603
vt 0.011974 0.975603
vt 0.011974 0.975697
vt 0.010789 0.975698
vt 0.021689 0.974597
vt 0.021689 0.974580
vt 0.021706 0.974598
vt 0.052574 0.973935
vt 0.052574 0.972781
vt 0.052600 0.973934
vt 0.053753 0.972781
vt 0.054932 0.972781
vt 0.054932 0.973960
vt 0.053753 0.973960
vt 0.019572 0.973522
vt 0.020631 0.973522
vt 0.020607 0.974557
vt 0.019572 0.974578
vt 0.018514 0.974580
vt 0.038818 0.974305
vt 0.038818 0.973176
vt 0.039947 0.973176
vt 0.041076 0.973176
vt 0.041076 0.974305
vt 0.024863 0.974580
vt 0.024863 0.973522
vt 0.025921 0.973522
vt 0.025921 0.974580
vt 0.018514 0.973522
vt 0.006049 0.975603
vt 0.007234 0.975603
vt 0.007234 0.975697
vt 0.006049 0.975698
vt 0.008419 0.975698
vt 0.008419 0.975603
vt 0.009604 0.975603
vt 0.009604 0.975698
vt 0.003678 0.975603
vt 0.004864 0.975603
vt 0.004864 0.975698
vt 0.002493 0.975603
vt 0.040304 0.989682
vt 0.040304 0.989556
vt 0.040999 0.989556
vt 0.041055 0.989396
vt 0.041639 0.989397
vt 0.041695 0.989682
vt 0.041695 0.994550
vt 0.041695 0.995246
vt 0.040304 0.995246
vt 0.041695 0.990378
vt 0.041695 0.991073
vt 0.041695 0.991769
vt 0.041695 0.992464
vt 0.041695 0.993160
vt 0.041695 0.993855
vt 0.022747 0.974580
vt 0.023805 0.974580
vt 0.023801 0.974584
vt 0.022747 0.974633
vt 0.042205 0.974305
vt 0.042194 0.974316
vt 0.041076 0.974352
vt 0.041639 0.995531
vt 0.041055 0.995532
vt 0.040999 0.995372
vt 0.040304 0.995372
vt 0.037690 0.974322
vt 0.053293 0.973960
vt 0.023805 0.974584
vt 0.042205 0.974316
vt 0.020631 0.974557
vt 0.037836 0.995778
vt 0.037707 0.995779
vt 0.037704 0.995068
vt 0.037681 0.994424
vt 0.037690 0.994406
vt 0.037682 0.994391
vt 0.037696 0.993940
vt 0.037695 0.993651
vt 0.037699 0.993641
vt 0.037693 0.993630
vt 0.037620 0.992981
vt 0.037671 0.992201
vt 0.037672 0.992199
vt 0.037670 0.992197
vt 0.037657 0.991440
vt 0.037700 0.990775
vt 0.037708 0.990768
vt 0.037704 0.990761
vt 0.037707 0.990055
vt 0.037836 0.990054
vn 0.1300 -0.1596 -0.9786
vn 0.1163 0.2121 -0.9703
vn 0.3243 0.0000 -0.9460
vn -0.0000 0.0013 -1.0000
vn -0.0000 0.0012 -1.0000
vn -0.1834 -0.1613 -0.9697
vn -0.1944 0.1965 -0.9610
vn -0.0301 0.2460 -0.9688
vn 0.1483 0.2008 -0.9683
vn 0.1213 -0.1809 -0.9760
vn -0.0289 -0.2450 -0.9691
vn -0.0052 -0.2374 -0.9714
vn -0.0037 0.2772 -0.9608
vn -0.0040 0.2567 -0.9665
vn 0.2090 0.1789 -0.9614
vn 0.1678 -0.1881 -0.9677
vn -0.0144 -0.2243 -0.9744
vn 0.0000 0.0000 1.0000
vn 0.0212 -0.0051 -0.9998
vn 0.0016 -0.9441 -0.3296
vn 0.0225 -0.9441 -0.3289
vn 0.0230 -0.9441 -0.3288
vn -0.1578 -0.2065 -0.9656
vn -0.1547 0.1586 -0.9751
vn 0.0201 0.2438 -0.9696
vn 0.0142 -0.2347 -0.9720
vn -0.4510 -0.0141 -0.8924
vn -0.7213 -0.0306 -0.6919
vn -0.0026 0.4453 -0.8954
vn 0.0220 -0.9448 -0.3268
vn 0.0210 -0.9449 -0.3267
vn -0.0009 -0.9456 -0.3254
vn -0.0111 -0.9449 -0.3271
vn -0.0106 -0.9450 -0.3270
vn -0.0209 -0.9433 -0.3314
vn -0.0108 -0.9424 -0.3342
vn -0.0112 -0.9424 -0.3342
vn -0.0208 -0.9433 -0.3312
vn -0.0011 -0.9431 -0.3324
vn -0.0011 -0.9438 -0.3306
vn -0.0011 -0.9431 -0.3325
vn 0.0000 0.9815 -0.1913
vn -0.5075 0.0417 -0.8606
vn -0.4563 0.0540 -0.8882
vn -0.0229 0.4780 -0.8780
vn -0.0224 0.4975 -0.8672
vn 0.4179 -0.0022 -0.9085
vn -0.0668 -0.4676 -0.8814
vn -0.0181 -0.4625 -0.8864
vn -0.0007 0.4919 -0.8706
vn -0.0007 0.4937 -0.8696
vn -0.0336 -0.4462 -0.8943
vn -0.0160 -0.4388 -0.8984
vn -0.0034 -0.4334 -0.9012
vn -0.8508 0.0932 -0.5172
vn 0.0057 0.7162 -0.6979
vn 0.0057 0.7107 -0.7035
vn 0.0057 0.7173 -0.6967
vn 0.7047 0.0228 -0.7091
vn 0.0416 -0.8488 -0.5270
vn 0.0180 -0.8514 -0.5243
vn 0.0112 -0.8520 -0.5234
vn -0.0125 -0.8539 -0.5203
vn -0.4378 -0.0564 -0.8973
vn 0.0355 0.4607 -0.8868
vn 0.0155 0.4751 -0.8798
vn -0.0039 0.4887 -0.8725
vn 0.0020 -0.4048 -0.9144
vn 0.0051 -0.4404 -0.8978
vn 0.0084 -0.4766 -0.8791
vn -0.8452 0.0006 -0.5344
vn 0.0011 0.0637 -0.9980
vn -0.0063 0.0578 -0.9983
vn -0.0000 0.0011 -1.0000
vn 0.0130 0.0166 -0.9998
vn 0.0129 0.0164 -0.9998
vn 0.0134 0.0472 -0.9988
vn 0.0134 0.0471 -0.9988
vn 0.0056 0.7227 -0.6911
vn -0.0235 0.4568 -0.8893
vn -0.0007 0.4896 -0.8719
vn -0.0139 0.0344 -0.9993
vn -0.0070 0.0097 -0.9999
vn 1.0000 -0.0005 -0.0025
vn -0.0232 0.4433 -0.8961
vn 0.0582 0.4379 -0.8971
vn -0.0194 0.4431 -0.8963
vn -0.1006 0.4456 -0.8895
vn 0.0172 0.7277 -0.6857
vn 0.0443 0.7278 -0.6843
vn 0.0157 0.7276 -0.6858
vn -0.0114 0.7269 -0.6866
vn -1.0000 0.0002 0.0012
vn 0.4044 0.0416 -0.9136
vn 0.0277 -0.4566 -0.8892
vn 0.4573 -0.0414 -0.8883
vn 0.7389 -0.0152 -0.6737
vn 0.4920 -0.0265 -0.8702
vn 0.0027 0.4460 -0.8950
vn 0.0000 -1.0000 0.0000
s 1
f 45/1/1 44/2/2 8/3/3 4/4/3
f 56/5/4 68/6/4 24/7/5 25/8/5
f 26/9/6 27/10/7 66/11/8 28/12/9 29/13/10 30/14/11
f 31/15/12 32/16/13 69/17/14 33/18/15 34/19/16 35/20/17
f 6/21/18 10/22/18 17/23/18
f 36/24/19 37/25/19 63/26/19 38/27/19 39/28/19 40/29/19
f 12/30/18 6/21/18 17/23/18 16/31/18
f 8/32/20 13/33/21 20/34/22 19/35/20
f 4/36/18 12/30/18 16/31/18
f 41/37/23 42/38/24 43/39/25 44/2/2 45/1/1 46/40/26
f 71/41/27 12/42/27 75/43/27
f 72/44/28 14/45/28 78/46/28
f 73/47/29 15/48/29 79/49/29
f 13/33/21 10/50/30 21/51/31 20/34/22
f 61/52/32 9/53/33 22/54/34 62/55/32
f 64/56/35 11/57/36 23/58/37 65/59/38
f 67/60/39 7/61/40 24/7/40 68/6/41
f 54/62/42 2/63/42 18/64/42 53/65/42
f 74/66/43 15/67/43 82/68/43
f 70/69/44 11/70/44 27/10/7 26/9/6 83/71/44
f 64/72/45 9/73/46 28/12/9 66/11/8
f 9/73/47 5/74/47 29/13/10 28/12/9
f 5/74/48 15/75/49 30/14/11 29/13/10
f 67/76/50 11/77/51 33/18/15 69/17/14
f 84/78/52 85/79/53 35/20/17 34/19/16
f 3/80/54 31/15/12 35/20/17 85/79/53
f 5/81/55 9/82/55 37/25/55 36/24/55
f 61/83/56 10/84/57 38/27/57 63/26/58
f 10/84/59 6/85/59 39/28/59 38/27/59
f 6/85/60 14/45/61 40/29/62 39/28/60
f 14/45/61 5/81/63 36/24/63 40/29/62
f 17/86/64 10/87/64 42/38/24 41/37/23
f 10/87/65 13/88/66 43/39/25 42/38/24
f 13/88/66 8/3/67 44/2/2 43/39/25
f 4/4/68 16/89/69 46/40/26 45/1/1
f 16/89/69 17/86/70 41/37/23 46/40/26
f 32/16/71 31/15/71 3/80/71 7/90/71
f 58/91/42 47/92/42 48/93/42 57/94/42
f 60/95/72 62/55/72 22/54/73 48/93/73
f 59/96/42 50/97/42 49/98/42 60/95/42
f 55/99/42 51/100/42 52/101/42 56/5/42
f 50/97/42 54/62/42 53/65/42 49/98/42
f 1/102/42 55/99/42 56/5/42 25/8/42
f 51/100/42 58/91/42 57/94/42 52/101/42
f 47/92/42 59/96/42 60/95/42 48/93/42
f 18/64/74 19/35/74 20/34/75 53/65/76
f 53/65/76 20/34/75 21/51/77 49/98/78
f 9/82/79 61/83/56 63/26/58 37/25/79
f 10/50/30 61/52/32 62/55/32 21/51/31
f 11/70/80 64/72/45 66/11/8 27/10/7
f 9/53/33 64/56/35 65/59/38 22/54/34
f 7/90/81 67/76/50 69/17/14 32/16/13
f 11/57/36 67/60/39 68/6/41 23/58/37
f 49/98/78 21/51/77 62/55/72 60/95/72
f 48/93/73 22/54/73 65/59/82 57/94/82
f 57/94/82 65/59/82 23/58/83 52/101/83
f 52/101/83 23/58/83 68/6/4 56/5/4
f 87/103/84 4/104/84 8/105/84 19/106/84 18/107/84 2/108/84
f 55/109/18 1/110/18 86/111/18 87/103/18 2/108/18 54/112/18 50/113/18 59/114/18 47/115/18 58/116/18 51/117/18
f 5/118/85 14/119/86 81/120/86 80/121/87
f 15/67/88 5/118/85 80/121/87 82/68/88
f 6/85/89 12/122/90 77/123/90 76/124/91
f 14/45/92 6/85/89 76/124/91 78/46/92
f 25/125/93 24/126/93 7/127/93 3/128/93 86/111/93 1/110/93
f 15/48/94 74/129/94 79/49/94
f 15/75/49 73/130/95 83/71/95 26/9/6 30/14/11
f 14/119/96 72/131/96 81/120/96
f 12/122/97 71/132/97 77/123/97
f 11/77/98 70/133/98 84/78/98 34/19/16 33/18/15
f 12/42/99 4/4/99 75/43/99
f 86/134/100 3/135/100 85/136/100 84/137/100 70/138/100 83/139/100 73/140/100 79/141/100 74/142/100 82/143/100 80/144/100 81/145/100 72/146/100 78/147/100 76/148/100 77/149/100 71/150/100 75/151/100 4/152/100 87/153/100
