# Blender v2.80 (sub 75) OBJ File: 'dungeon.blend'
# www.blender.org
o Wall.Upper_Cube.031
v -0.500000 0.500000 0.000000
v -0.500000 -0.000000 0.000000
v 0.500000 0.500000 0.000000
v 0.500000 -0.000000 0.000000
v -0.500167 0.250000 -0.022684
v 0.499833 0.250000 -0.022684
v -0.011596 0.256132 -0.034746
v -0.260500 0.247224 -0.025713
v -0.500000 0.125427 -0.022559
v 0.500000 0.125427 -0.022559
v -0.500000 0.375000 -0.022684
v 0.499833 0.375000 -0.022684
v -0.001956 0.371974 -0.030399
v 0.250800 0.371391 -0.029373
v -0.251092 0.374699 -0.022990
v 0.374808 0.124645 -0.022794
v 0.374886 0.374795 -0.022814
v 0.125257 0.250377 -0.028693
v 0.124942 0.125000 -0.022684
v -0.126615 0.251777 -0.023832
v -0.124856 0.125546 -0.034291
v -0.376056 0.249699 -0.022990
v -0.374873 0.125481 -0.034475
v 0.375252 0.251125 -0.022506
v 0.258061 0.255168 -0.025815
v 0.384618 0.143170 -0.025284
v 0.384905 0.241577 -0.027234
v 0.500000 0.240000 -0.027572
v 0.500000 0.138903 -0.026545
v 0.257696 0.245206 -0.036375
v 0.365389 0.241979 -0.033118
v 0.364648 0.142653 -0.031084
v 0.253782 0.134771 -0.033094
v 0.134938 0.134902 -0.033657
v 0.135500 0.240614 -0.038939
v -0.260230 0.237296 -0.031041
v -0.136368 0.242161 -0.028587
v -0.137035 0.146050 -0.033772
v -0.250782 0.136054 -0.036097
v -0.364916 0.135000 -0.028105
v -0.366783 0.239509 -0.028185
v 0.500000 0.490000 -0.051297
v 0.500000 0.385000 -0.051420
v 0.374885 0.384811 -0.051409
v 0.250408 0.381230 -0.057964
v -0.001106 0.381642 -0.058491
v -0.250490 0.384858 -0.051441
v -0.500000 0.385000 -0.051420
v -0.500000 0.490000 -0.051297
v 0.124942 0.115000 -0.051297
v 0.374854 0.114913 -0.051323
v 0.500000 0.115000 -0.057629
v 0.500000 0.010000 -0.051297
v -0.500000 0.010000 -0.051297
v -0.500000 0.115000 -0.057629
v -0.374884 0.115114 -0.062699
v -0.124959 0.115113 -0.062693
v -0.011321 0.246201 -0.039610
v 0.114623 0.240388 -0.033703
v 0.114968 0.134989 -0.028377
v -0.000279 0.135469 -0.036564
v -0.116934 0.145476 -0.033926
v -0.117405 0.243029 -0.029688
v -0.250367 0.257260 -0.030498
v -0.241819 0.364509 -0.028185
v -0.013084 0.362766 -0.035691
v -0.022243 0.266348 -0.039474
v -0.126648 0.261229 -0.028730
v -0.496815 0.260748 -0.027852
v -0.496815 0.365748 -0.027852
v -0.258920 0.365212 -0.028398
v -0.270931 0.257110 -0.030633
v -0.373058 0.260431 -0.028176
v -0.500000 0.138903 -0.026545
v -0.500000 0.240000 -0.027572
v -0.385389 0.239874 -0.027812
v -0.384911 0.135000 -0.027684
v -0.003832 0.263348 -0.046878
v 0.004817 0.360053 -0.043025
v 0.238917 0.359283 -0.041489
v 0.245349 0.262223 -0.038303
v 0.122837 0.257935 -0.040936
v 0.267687 0.264721 -0.030905
v 0.261241 0.361869 -0.034075
v 0.374885 0.364811 -0.027829
v 0.486234 0.367597 -0.027346
v 0.486234 0.262597 -0.027346
v 0.375235 0.260659 -0.027671
v 0.000000 0.500000 0.000000
v 0.000000 0.490000 -0.051297
v 0.250000 0.490000 -0.051297
v 0.250000 0.500000 0.000000
v -0.250000 0.500000 0.000000
v -0.250000 0.490000 -0.051297
v 0.375000 0.490000 -0.051297
v 0.375000 0.500000 0.000000
v -0.375000 0.500000 0.000000
v -0.375000 0.490000 -0.051297
v -0.125000 0.490000 -0.051297
v -0.125000 0.500000 0.000000
v 0.125000 0.500000 0.000000
v 0.125000 0.490000 -0.051297
v 0.249875 0.124823 -0.022739
v 0.249898 0.114957 -0.051310
v 0.000043 0.125273 -0.028487
v -0.000009 0.115056 -0.056995
v 0.124422 0.371682 -0.029886
v 0.124651 0.381436 -0.058228
v 0.121867 0.359668 -0.042257
v -0.126524 0.373337 -0.026695
v -0.125798 0.383250 -0.054966
v -0.127452 0.363637 -0.031938
v -0.375546 0.374850 -0.022837
v -0.375245 0.384929 -0.051431
v -0.377868 0.365480 -0.028125
v -0.249864 0.125513 -0.034383
v -0.249921 0.115113 -0.062696
v 0.000000 -0.000000 0.000000
v 0.000000 0.010000 -0.051297
v 0.250000 -0.000000 0.000000
v 0.250000 0.010000 -0.051297
v -0.250000 0.010000 -0.051297
v -0.250000 -0.000000 0.000000
v -0.125000 -0.000000 0.000000
v -0.125000 0.010000 -0.051297
v -0.375000 0.010000 -0.051297
v -0.375000 -0.000000 0.000000
v 0.125000 0.010000 -0.051297
v 0.125000 -0.000000 0.000000
v 0.375000 -0.000000 0.000000
v 0.375000 0.010000 -0.051297
vt 0.010789 0.976730
vt 0.010789 0.975734
vt 0.011974 0.975734
vt 0.011974 0.976730
vt 0.009604 0.975734
vt 0.009604 0.976730
vt 0.007234 0.975734
vt 0.008419 0.975734
vt 0.008419 0.976730
vt 0.007234 0.976730
vt 0.006049 0.975734
vt 0.006049 0.976730
vt 0.004864 0.975734
vt 0.004864 0.976730
vt 0.003678 0.975734
vt 0.003678 0.976730
vt 0.002493 0.975734
vt 0.002493 0.976730
vt 0.026894 0.974496
vt 0.026894 0.973607
vt 0.026979 0.973522
vt 0.026979 0.974580
vt 0.026005 0.975554
vt 0.026005 0.974665
vt 0.026894 0.974665
vt 0.026894 0.975554
vt 0.041076 0.974395
vt 0.042115 0.974395
vt 0.042115 0.975343
vt 0.041076 0.975343
vt 0.040038 0.975343
vt 0.040038 0.974395
vt 0.036561 0.974395
vt 0.037599 0.974395
vt 0.037599 0.975343
vt 0.036561 0.975343
vt 0.035522 0.975343
vt 0.035522 0.974395
vt 0.003678 0.975698
vt 0.003678 0.976693
vt 0.002493 0.976693
vt 0.002493 0.975697
vt 0.022747 0.974665
vt 0.023720 0.974665
vt 0.023720 0.975554
vt 0.022747 0.975554
vt 0.021773 0.975554
vt 0.021773 0.974665
vt 0.052668 0.973866
vt 0.052668 0.972876
vt 0.053753 0.972876
vt 0.054837 0.972876
vt 0.054837 0.973866
vt 0.053753 0.973866
vt 0.018599 0.974496
vt 0.018599 0.973607
vt 0.019572 0.973607
vt 0.020546 0.973607
vt 0.020546 0.974496
vt 0.019572 0.974496
vt 0.023319 0.976198
vt 0.023319 0.975208
vt 0.024309 0.975208
vt 0.024309 0.976198
vt 0.038909 0.974214
vt 0.038909 0.973266
vt 0.039947 0.973266
vt 0.040986 0.973266
vt 0.040986 0.974214
vt 0.039947 0.974214
vt 0.011974 0.976788
vt 0.010789 0.976788
vt 0.010789 0.976693
vt 0.011974 0.976693
vt 0.024947 0.974496
vt 0.024947 0.973607
vt 0.025921 0.973607
vt 0.025921 0.974496
vt 0.025921 0.975638
vt 0.025921 0.974580
vt 0.026979 0.975638
vt 0.041076 0.974305
vt 0.042205 0.974305
vt 0.042205 0.975434
vt 0.041076 0.975434
vt 0.039947 0.975434
vt 0.039947 0.974305
vt 0.036561 0.974305
vt 0.037690 0.974305
vt 0.037690 0.975434
vt 0.036561 0.975434
vt 0.035432 0.975434
vt 0.035432 0.974305
vt 0.009604 0.976788
vt 0.009604 0.976693
vt 0.008419 0.976788
vt 0.007234 0.976788
vt 0.007234 0.976693
vt 0.008419 0.976693
vt 0.006049 0.976788
vt 0.004864 0.976788
vt 0.004864 0.976693
vt 0.006049 0.976693
vt 0.003678 0.976788
vt 0.002493 0.976788
vt 0.010789 0.975603
vt 0.011974 0.975603
vt 0.011974 0.975697
vt 0.010789 0.975698
vt 0.009604 0.975640
vt 0.010789 0.975640
vt 0.011974 0.975640
vt 0.003678 0.976825
vt 0.002493 0.976825
vt 0.002493 0.975640
vt 0.003678 0.975640
vt 0.004864 0.975640
vt 0.006049 0.975640
vt 0.007234 0.975640
vt 0.008419 0.975640
vt 0.022747 0.974580
vt 0.023805 0.974580
vt 0.023805 0.975638
vt 0.022747 0.975638
vt 0.021689 0.975638
vt 0.021689 0.974580
vt 0.052574 0.973960
vt 0.052574 0.972781
vt 0.053753 0.972781
vt 0.054932 0.972781
vt 0.054932 0.973960
vt 0.053753 0.973960
vt 0.019572 0.973522
vt 0.020631 0.973522
vt 0.020631 0.974580
vt 0.019572 0.974580
vt 0.018514 0.974580
vt 0.023224 0.975114
vt 0.024403 0.975114
vt 0.024403 0.976293
vt 0.023224 0.976293
vt 0.038818 0.974305
vt 0.038818 0.973176
vt 0.039947 0.973176
vt 0.041076 0.973176
vt 0.024863 0.974580
vt 0.024863 0.973522
vt 0.025921 0.973522
vt 0.041639 0.995531
vt 0.041055 0.995532
vt 0.040999 0.995372
vt 0.040304 0.995372
vt 0.040248 0.995399
vt 0.039686 0.995394
vt 0.036827 0.995372
vt 0.036771 0.995567
vt 0.036187 0.995531
vt 0.036131 0.995246
vt 0.041695 0.995246
vt 0.018514 0.973522
vt 0.039613 0.989558
vt 0.039686 0.989535
vt 0.040248 0.989529
vt 0.040304 0.989556
vt 0.040999 0.989556
vt 0.041055 0.989396
vt 0.041639 0.989397
vt 0.041695 0.989682
vt 0.036131 0.989682
vt 0.036187 0.989397
vt 0.036771 0.989362
vt 0.006049 0.975603
vt 0.007234 0.975603
vt 0.007234 0.975697
vt 0.006049 0.975698
vt 0.008419 0.975698
vt 0.008419 0.975603
vt 0.009604 0.975603
vt 0.009604 0.975698
vt 0.003678 0.975603
vt 0.004864 0.975603
vt 0.004864 0.975698
vt 0.002493 0.975603
vt 0.008419 0.976825
vt 0.007234 0.976825
vt 0.010789 0.976825
vt 0.009604 0.976825
vt 0.006049 0.976825
vt 0.004864 0.976825
vt 0.011974 0.976825
vt 0.041695 0.994550
vt 0.036131 0.994550
vt 0.036131 0.993855
vt 0.036131 0.993160
vt 0.036131 0.992464
vt 0.036131 0.991769
vt 0.036131 0.991073
vt 0.036131 0.990378
vt 0.041695 0.990378
vt 0.041695 0.991073
vt 0.041695 0.991769
vt 0.041695 0.992464
vt 0.041695 0.993160
vt 0.041695 0.993855
vn -0.0252 -0.0303 -0.9992
vn -0.0001 -0.0002 -1.0000
vn 0.0228 -0.0271 -0.9994
vn -0.0001 -0.0001 -1.0000
vn 0.0227 -0.0811 -0.9965
vn 0.0000 -0.1078 -0.9942
vn -0.0202 -0.0841 -0.9963
vn 0.1300 -0.1596 -0.9786
vn 0.1163 0.2121 -0.9703
vn 0.3243 0.0000 -0.9460
vn -0.1528 -0.0707 -0.9857
vn -0.1340 0.1672 -0.9768
vn -0.0023 0.2168 -0.9762
vn -0.0072 -0.1080 -0.9941
vn 0.0188 -0.0333 -0.9993
vn -0.0116 0.2543 -0.9671
vn 0.0810 0.2152 -0.9732
vn 0.0922 0.0280 -0.9953
vn -0.0134 0.0731 -0.9972
vn 0.0068 0.1182 -0.9930
vn 0.0157 0.2029 -0.9791
vn -0.0000 0.0013 -1.0000
vn -0.0000 0.0012 -1.0000
vn -0.0073 0.2224 -0.9749
vn 0.2003 0.1425 -0.9693
vn 0.2843 -0.0340 -0.9581
vn 0.0143 -0.2134 -0.9769
vn -0.1507 -0.0540 -0.9871
vn -0.1664 0.1946 -0.9667
vn -0.1834 -0.1612 -0.9697
vn -0.1944 0.1965 -0.9610
vn -0.0301 0.2460 -0.9688
vn 0.1483 0.2008 -0.9683
vn 0.1213 -0.1809 -0.9760
vn -0.0288 -0.2449 -0.9691
vn -0.0052 -0.2374 -0.9714
vn -0.0037 0.2772 -0.9608
vn -0.0040 0.2567 -0.9665
vn 0.2089 0.1789 -0.9614
vn 0.1679 -0.1894 -0.9674
vn -0.0142 -0.2254 -0.9742
vn -0.0288 0.0454 -0.9986
vn -0.0038 0.2246 -0.9744
vn -0.0412 0.1833 -0.9822
vn -0.0590 0.0539 -0.9968
vn 0.0212 -0.0051 -0.9998
vn 0.0016 -0.9441 -0.3296
vn 0.0225 -0.9441 -0.3289
vn 0.0230 -0.9441 -0.3288
vn -0.1578 -0.2065 -0.9656
vn -0.1547 0.1586 -0.9751
vn 0.0201 0.2438 -0.9696
vn 0.0142 -0.2347 -0.9720
vn -0.1155 -0.1386 -0.9836
vn -0.3454 -0.0058 -0.9385
vn 0.0031 0.4426 -0.8967
vn -0.0070 -0.1963 -0.9805
vn 0.0166 0.7274 -0.6860
vn 0.0435 0.7311 -0.6809
vn 0.0150 0.7272 -0.6863
vn 0.6843 -0.0092 -0.7292
vn 0.0249 -0.5508 -0.8343
vn 0.0107 -0.6614 -0.7500
vn 0.0150 -0.6298 -0.7766
vn 0.0005 -0.7322 -0.6811
vn -0.7232 -0.0310 -0.6900
vn -0.0119 0.7228 -0.6909
vn -0.0073 0.4589 -0.8884
vn 0.1153 0.2680 -0.9565
vn 0.0830 0.0011 -0.9966
vn -0.0097 0.0967 -0.9953
vn -0.0309 0.1102 -0.9934
vn -0.0140 0.2669 -0.9636
vn 0.0220 -0.9448 -0.3268
vn 0.0210 -0.9449 -0.3267
vn -0.0009 -0.9456 -0.3254
vn -0.0111 -0.9449 -0.3271
vn -0.0106 -0.9450 -0.3270
vn -0.0209 -0.9433 -0.3314
vn -0.0108 -0.9424 -0.3342
vn -0.0112 -0.9424 -0.3342
vn -0.0208 -0.9433 -0.3312
vn -0.0011 -0.9431 -0.3324
vn -0.0011 -0.9438 -0.3306
vn -0.0011 -0.9431 -0.3325
vn 0.0000 0.9815 -0.1913
vn 0.0007 0.9452 -0.3264
vn -0.0049 0.9496 -0.3134
vn -0.0050 0.9497 -0.3132
vn -0.0106 0.9532 -0.3021
vn 0.0000 -0.9815 -0.1913
vn -0.0218 0.9498 -0.3120
vn -0.0112 0.9446 -0.3280
vn -0.0108 0.9444 -0.3287
vn 0.0000 0.9387 -0.3448
vn 0.0086 0.9393 -0.3429
vn 0.0083 0.9393 -0.3430
vn 0.0168 0.9413 -0.3372
vn 0.0086 0.9436 -0.3309
vn 0.0088 0.9436 -0.3309
vn 0.0168 0.9412 -0.3375
vn -0.0216 0.4396 -0.8979
vn 0.0597 0.4182 -0.9064
vn 0.4605 -0.0435 -0.8866
vn 0.0470 -0.5465 -0.8362
vn 0.0257 -0.4083 -0.9125
vn -0.0847 -0.1754 -0.9808
vn -0.2256 0.2644 -0.9377
vn -0.4563 0.0540 -0.8882
vn -0.0229 0.4780 -0.8780
vn -0.0224 0.4975 -0.8672
vn 0.4179 -0.0022 -0.9085
vn -0.0668 -0.4676 -0.8814
vn -0.0181 -0.4623 -0.8865
vn 0.0277 -0.4563 -0.8894
vn -0.0007 0.4919 -0.8706
vn -0.0007 0.4937 -0.8696
vn 0.4917 -0.0264 -0.8704
vn -0.0332 -0.4495 -0.8927
vn -0.0160 -0.4403 -0.8977
vn -0.0034 -0.4334 -0.9012
vn -0.0013 0.4403 -0.8978
vn -0.0524 0.0983 -0.9938
vn -0.8508 0.0932 -0.5172
vn 0.0057 0.7162 -0.6979
vn 0.0057 0.7107 -0.7035
vn 0.0057 0.7173 -0.6967
vn 0.7047 0.0228 -0.7091
vn 0.0416 -0.8488 -0.5270
vn 0.0180 -0.8514 -0.5243
vn 0.0112 -0.8520 -0.5234
vn -0.0125 -0.8539 -0.5203
vn -0.4378 -0.0564 -0.8973
vn 0.0355 0.4607 -0.8868
vn 0.0155 0.4751 -0.8798
vn -0.0039 0.4887 -0.8725
vn 0.0020 -0.4048 -0.9144
vn 0.0051 -0.4404 -0.8978
vn 0.0084 -0.4766 -0.8791
vn -1.0000 -0.0000 0.0006
vn -0.8452 0.0006 -0.5344
vn 1.0000 -0.0001 -0.0012
vn 0.0011 0.0637 -0.9980
vn -0.0063 0.0578 -0.9983
vn -0.0000 0.0011 -1.0000
vn 0.0130 0.0166 -0.9998
vn 0.0129 0.0164 -0.9998
vn 0.0134 0.0472 -0.9988
vn 0.0134 0.0471 -0.9988
vn 0.0056 0.7227 -0.6911
vn -0.0235 0.4568 -0.8893
vn -0.0007 0.4896 -0.8719
vn -0.0139 0.0344 -0.9993
vn -0.0070 0.0097 -0.9999
vn 0.0000 0.0000 1.0000
s off
f 131/1/1 51/2/1 52/3/1 53/4/1
f 104/5/2 51/2/2 131/1/2 121/6/2
f 106/7/3 50/8/3 128/9/3 119/10/3
f 50/8/4 104/5/4 121/6/4 128/9/4
f 57/11/5 106/7/5 119/10/5 125/12/5
f 117/13/6 57/11/6 125/12/6 122/14/6
f 56/15/6 117/13/6 122/14/6 126/16/6
f 55/17/7 56/15/7 126/16/7 54/18/7
s 1
f 87/19/8 86/20/9 12/21/10 6/22/10
f 26/23/11 27/24/12 28/25/13 29/26/14
f 30/27/15 31/28/15 32/29/15 33/30/15 34/31/15 35/32/15
f 36/33/16 37/34/17 38/35/18 39/36/19 40/37/20 41/38/21
f 98/39/22 114/40/22 48/41/23 49/42/23
f 58/43/24 59/44/25 60/45/26 61/46/27 62/47/28 63/48/29
f 64/49/30 65/50/31 112/51/32 66/52/33 67/53/34 68/54/35
f 69/55/36 70/56/37 115/57/38 71/58/39 72/59/40 73/60/41
f 74/61/42 75/62/43 76/63/44 77/64/45
f 78/65/46 79/66/46 109/67/46 80/68/46 81/69/46 82/70/46
f 12/71/47 17/72/48 44/73/49 43/74/47
f 83/75/50 84/76/51 85/77/52 86/20/9 87/19/8 88/78/53
f 16/79/54 24/80/55 27/24/12 26/23/11
f 24/80/56 6/22/56 28/25/13 27/24/12
f 10/81/57 16/79/54 26/23/11 29/26/14
f 25/82/58 24/83/59 31/28/59 30/27/60
f 24/83/61 16/84/61 32/29/61 31/28/61
f 16/84/62 103/85/63 33/30/64 32/29/62
f 103/85/63 19/86/65 34/31/65 33/30/64
f 19/86/66 18/87/66 35/32/66 34/31/66
f 18/87/67 25/82/58 30/27/60 35/32/67
f 8/88/68 20/89/69 37/34/17 36/33/16
f 20/89/69 21/90/70 38/35/18 37/34/17
f 21/90/70 116/91/71 39/36/19 38/35/18
f 116/91/71 23/92/72 40/37/20 39/36/19
f 23/92/72 22/93/73 41/38/21 40/37/20
f 22/93/73 8/88/68 36/33/16 41/38/21
f 17/72/48 14/94/74 45/95/75 44/73/49
f 107/96/76 13/97/77 46/98/78 108/99/76
f 110/100/79 15/101/80 47/102/81 111/103/82
f 113/104/83 11/105/84 48/41/84 114/40/85
f 96/106/86 3/107/86 42/108/86 95/109/86
f 103/110/87 16/111/88 51/2/89 104/5/87
f 16/111/88 10/112/90 52/3/90 51/2/89
f 127/113/91 2/114/91 54/18/91 126/16/91
f 9/115/92 23/116/93 56/15/94 55/17/92
f 116/117/95 21/118/96 57/11/97 117/13/95
f 105/119/98 19/120/99 50/8/100 106/7/101
f 7/121/102 18/122/103 59/44/25 58/43/24
f 18/122/104 19/123/104 60/45/26 59/44/25
f 19/123/105 105/124/106 61/46/27 60/45/105
f 105/124/106 21/125/107 62/47/28 61/46/27
f 21/125/107 20/126/108 63/48/29 62/47/28
f 20/126/108 7/121/102 58/43/24 63/48/29
f 8/127/109 15/128/109 65/50/31 64/49/30
f 110/129/110 13/130/111 66/52/33 112/51/32
f 13/130/112 7/131/112 67/53/34 66/52/33
f 7/131/113 20/132/114 68/54/35 67/53/34
f 20/132/114 8/127/115 64/49/30 68/54/35
f 113/133/116 15/134/117 71/58/39 115/57/38
f 15/134/118 8/135/118 72/59/40 71/58/39
f 8/135/119 22/136/120 73/60/41 72/59/40
f 22/136/120 5/137/121 69/55/36 73/60/41
f 5/138/122 22/139/73 76/63/44 75/62/43
f 22/139/73 23/140/72 77/64/45 76/63/44
f 23/140/72 9/141/123 74/61/42 77/64/45
f 7/142/124 13/143/124 79/66/124 78/65/124
f 107/144/125 14/145/126 80/68/126 109/67/127
f 14/145/128 25/82/128 81/69/128 80/68/128
f 25/82/129 18/87/130 82/70/131 81/69/129
f 18/87/130 7/142/132 78/65/132 82/70/131
f 25/146/133 14/147/133 84/76/51 83/75/50
f 14/147/134 17/148/135 85/77/52 84/76/51
f 17/148/135 12/21/136 86/20/9 85/77/52
f 6/22/137 24/80/138 88/78/53 87/19/8
f 24/80/138 25/146/139 83/75/50 88/78/53
f 49/149/140 48/150/140 11/151/140 5/152/140 75/153/140 74/154/140 9/155/140 55/156/140 54/157/140 2/158/140 1/159/140
f 70/56/141 69/55/141 5/137/141 11/160/141
f 10/161/142 29/162/142 28/163/142 6/164/142 12/165/142 43/166/142 42/167/142 3/168/142 4/169/142 53/170/142 52/171/142
f 100/172/86 89/173/86 90/174/86 99/175/86
f 102/176/143 108/99/143 46/98/144 90/174/144
f 101/177/86 92/178/86 91/179/86 102/176/86
f 97/180/86 93/181/86 94/182/86 98/39/86
f 92/178/86 96/106/86 95/109/86 91/179/86
f 1/183/86 97/180/86 98/39/86 49/42/86
f 93/181/86 100/172/86 99/175/86 94/182/86
f 89/173/86 101/177/86 102/176/86 90/174/86
f 19/120/99 103/110/87 104/5/87 50/8/100
f 21/118/96 105/119/98 106/7/101 57/11/97
f 42/108/145 43/74/145 44/73/146 95/109/147
f 95/109/147 44/73/146 45/95/148 91/179/149
f 13/143/150 107/144/125 109/67/127 79/66/150
f 14/94/74 107/96/76 108/99/76 45/95/75
f 15/128/151 110/129/110 112/51/32 65/50/31
f 13/97/77 110/100/79 111/103/82 46/98/78
f 11/160/152 113/133/116 115/57/38 70/56/37
f 15/101/80 113/104/83 114/40/85 47/102/81
f 91/179/149 45/95/148 108/99/143 102/176/143
f 90/174/144 46/98/144 111/103/153 99/175/153
f 99/175/153 111/103/153 47/102/154 94/182/154
f 94/182/154 47/102/154 114/40/22 98/39/22
f 23/116/93 116/117/95 117/13/95 56/15/94
f 129/184/91 118/185/91 119/10/91 128/9/91
f 130/186/91 120/187/91 121/6/91 131/1/91
f 124/188/91 123/189/91 122/14/91 125/12/91
f 118/185/91 124/188/91 125/12/91 119/10/91
f 123/189/91 127/113/91 126/16/91 122/14/91
f 120/187/91 129/184/91 128/9/91 121/6/91
f 4/190/91 130/186/91 131/1/91 53/4/91
f 97/191/155 1/159/155 2/158/155 127/192/155 123/193/155 124/194/155 118/195/155 129/196/155 120/197/155 130/198/155 4/169/155 3/168/155 96/199/155 92/200/155 101/201/155 89/202/155 100/203/155 93/204/155
